<?xml version="1.0" encoding="UTF-8"?>
<!DOCTYPE svg PUBLIC "-//W3C//DTD SVG 1.1//EN" "http://www.w3.org/Graphics/SVG/1.1/DTD/svg11.dtd">
<!-- Creator: CorelDRAW -->
<svg xmlns="http://www.w3.org/2000/svg" xml:space="preserve" width="1821px" height="1883px" style="shape-rendering:geometricPrecision; text-rendering:geometricPrecision; image-rendering:optimizeQuality; fill-rule:evenodd; clip-rule:evenodd"
viewBox="0 0 1821 1883.51"
 xmlns:xlink="http://www.w3.org/1999/xlink">
 <defs>
  <style type="text/css">
   <![CDATA[
    .fil3 {fill:#27373E;fill-rule:nonzero}
    .fil14 {fill:#29383E;fill-rule:nonzero}
    .fil1 {fill:#344B53;fill-rule:nonzero}
    .fil0 {fill:#354A53;fill-rule:nonzero}
    .fil2 {fill:#3F5E69;fill-rule:nonzero}
    .fil16 {fill:#823D3E;fill-rule:nonzero}
    .fil13 {fill:#954C91;fill-rule:nonzero}
    .fil12 {fill:#A85D5D;fill-rule:nonzero}
    .fil15 {fill:#AD62A3;fill-rule:nonzero}
    .fil4 {fill:#B671AC;fill-rule:nonzero}
    .fil11 {fill:#D199C4;fill-rule:nonzero}
    .fil8 {fill:#E0E0E0;fill-rule:nonzero}
    .fil5 {fill:#E2B7D6;fill-rule:nonzero}
    .fil18 {fill:#E7E7E6;fill-rule:nonzero}
    .fil10 {fill:#E9C4DE;fill-rule:nonzero}
    .fil6 {fill:#EBECEC;fill-rule:nonzero}
    .fil19 {fill:#F18D93;fill-rule:nonzero}
    .fil17 {fill:#F3A2AA;fill-rule:nonzero}
    .fil7 {fill:#FAFAFA;fill-rule:nonzero}
    .fil9 {fill:#FEFEFE;fill-rule:nonzero}
   ]]>
  </style>
 </defs>
 <g id="Layer_x0020_1">
  <metadata id="CorelCorpID_0Corel-Layer"/>
  <g id="_616488144">
   <path id="_604587464" class="fil0" d="M205.78 1531.13l0.0212618 0.0118121 -0.0212618 -0.0118121zm-3.34873 -4.10471l0.594149 0.854016 -0.594149 -0.854016zm-2.11201 -3.78814l0.0212618 0.0377988 -0.0212618 -0.0377988zm-1.56747 -5.3249l0.229155 1.09971 -0.229155 -1.09971zm11.1601 16.4177l-0.813854 -0.537451 0.813854 0.537451zm8.75277 3.47512l-0.915439 -0.1949 0.915439 0.1949zm509.603 -1424.25c-0.683921,0.186631 -1.35839,0.420511 -2.03405,0.670928 0.675653,-0.250417 1.35012,-0.484297 2.03405,-0.670928zm3.05461 -0.624861c-0.624861,0.0874096 -1.24618,0.207893 -1.86749,0.344914 0.621317,-0.13702 1.24263,-0.257504 1.86749,-0.344914zm-6.08442 1.65842c-0.995761,0.415786 -1.99625,0.895358 -2.97075,1.45761 0.979224,-0.562257 1.97499,-1.04183 2.97075,-1.45761zm9.13076 -1.88758c-0.591787,0.00826848 -1.1883,0.0330739 -1.78363,0.0874096 0.59533,-0.0543357 1.19184,-0.0791411 1.78363,-0.0874096zm3.02036 0.145289c-0.578793,-0.0661478 -1.1505,-0.125208 -1.73756,-0.145289 0.587062,0.0200806 1.15877,0.0791411 1.73756,0.145289zm2.95893 0.504377c-0.558713,-0.129933 -1.11743,-0.270497 -1.67968,-0.362632 0.562257,0.0956781 1.12097,0.232699 1.67968,0.362632zm3.79996 1.17885l-1.09971 -0.382712 1.09971 0.382712zm2.59158 1.24145l-0.91662 -0.453585 0.91662 0.453585zm2.40495 1.50959l-0.754794 -0.504377 0.754794 0.504377zm2.1876 1.72457l-0.578793 -0.496109 0.578793 0.496109zm1.90411 1.86631l-0.333102 -0.366175 0.333102 0.366175zm5.36388 9.23943l0.0118121 0.0248054c-2.63764,-11.368 -9.72609,-21.3728 -19.9896,-27.4856l-1.72929 -1.03002c-12.0885,-7.20066 -25.8981,-11.0006 -39.9663,-11.0006l0 0.00826848c-4.27126,-0.0590606 -8.67127,0.991036 -12.8091,3.37945l-485.797 280.472c-15.6168,9.02209 -27.2387,23.1104 -33.348,39.495l-0.29294 0.766606c-0.898902,2.49236 -1.66315,5.04259 -2.30336,7.63062l-0.256323 1.09971c-0.594149,2.57504 -1.07372,5.18434 -1.39974,7.83025l-0.101584 1.00403c-0.301209,2.75458 -0.492565,5.52925 -0.492565,8.33463l0 1059.35c0,8.47991 4.4638,16.335 11.7483,20.6736l19.3671 11.5381c6.70928,3.99604 14.3753,6.1045 22.1843,6.1045l9.56427 0 0 -0.0118121c4.27244,0.061423 8.67127,-0.987493 12.8114,-3.3759l485.794 -280.476c23.6349,-13.643 38.1945,-38.8654 38.1945,-66.1596l0 -1050.57c0,-2.69552 -0.445317,-5.22922 -1.19066,-7.59991z"/>
   <polygon id="_604585160" class="fil1" points="759.79,139.897 759.79,139.893 "/>
   <path id="_604586552" class="fil1" d="M198.277 462.677c0,-27.2942 14.5643,-52.5131 38.1992,-66.1608l485.791 -280.472c14.3517,-8.28738 31.7569,-0.507921 36.3447,14.0895 -2.63764,-11.368 -9.72609,-21.3728 -19.9896,-27.4821l-1.72929 -1.03356c-12.0885,-7.20066 -25.8981,-11.0006 -39.9663,-11.0006l0 0.00826848c-4.27126,-0.0590606 -8.67127,0.991036 -12.8091,3.37945l-485.796 280.472c-23.6349,13.6477 -38.1956,38.8666 -38.1956,66.1608l0 1050.58c0,19.2561 20.8472,31.2867 37.5235,21.6611l0.627223 -0.362632 0 -1049.83z"/>
   <path id="_604586192" class="fil2" d="M721.596 1254.44l-485.794 280.476c-16.6775,9.62569 -37.5247,-2.40849 -37.5247,-21.6646l0 -1050.57c0,-27.2942 14.5643,-52.5131 38.1992,-66.1608l485.791 -280.472c16.6811,-9.62923 37.5235,2.40495 37.5235,21.6646l0 1050.57c0,27.2942 -14.5596,52.5166 -38.1945,66.1596z"/>
   <path id="_604586864" class="fil3" d="M198.277 1513.25l0 -1050.57c0,-11.6515 2.67426,-22.9108 7.55266,-33.0656l-37.5613 -23.2604c-5.2623,10.4679 -8.14209,22.1725 -8.14209,34.287l0 1059.35c0,8.47991 4.4638,16.335 11.7483,20.6736l19.3671 11.5381c6.70928,3.99604 14.3753,6.1045 22.1855,6.1045l9.56309 0 0 -0.0118121c-12.9319,-0.179544 -24.7133,-10.5683 -24.7133,-25.0405z"/>
   <path id="_604586960" class="fil1" d="M704.874 217.025l0 883.014c0,24.1026 -12.8551,46.3708 -33.7318,58.4262l-428.982 247.669c-3.43732,1.9868 -7.07545,2.8916 -10.6368,2.95421 4.9729,11.5133 19.3754,17.2433 31.3423,10.3344l428.982 -247.673c20.8732,-12.0519 33.7318,-34.3248 33.7318,-58.4262l0 -874.264c0,-12.3637 -9.73318,-21.3102 -20.7055,-22.0355z"/>
   <path id="_604586360" class="fil4" d="M231.523 1409.09c3.56135,-0.0626042 7.19948,-0.967412 10.6368,-2.95421l428.982 -247.669c20.8767,-12.0554 33.7318,-34.3236 33.7318,-58.4262l0 -883.014c0.333102,0.0212618 0.382712,0.0212618 0.199625,0.0212618 -0.908351,-0.00472484 -7.62944,-0.00826848 -12.6295,2.88334l-428.979 247.668c-20.8755,12.0554 -33.7318,34.3248 -33.7318,58.4262l0 874.264c0,3.2377 0.670928,6.22971 1.84741,8.91814l-0.0566981 -0.11694z"/>
   <path id="_604587032" class="fil5" d="M231.58 1409.21l-0.0566981 -0.11694c0.00118121,0 0.00472484,0 0.00708727,0 0.0153557,0.0377988 0.0330739,0.0744163 0.0496109,0.11694z"/>
   <path id="_604587056" class="fil5" d="M231.53 1409.09l0 0zm0 0c-1.14577,-2.65891 -1.7978,-5.61312 -1.7978,-8.8012l0 -874.264c0,-24.1014 12.8563,-46.3708 33.7318,-58.4262l428.979 -247.668c4.72957,-2.72978 10.9876,-2.87979 12.4299,-2.88334l0 55.0799 -88.3251 51.7713 -1.02883 1.79544 0 7.59637c0,22.7029 -18.5521,51.893 -41.3542,65.0729l-51.0626 29.4488c-6.06788,3.5082 -11.9763,5.58359 -17.3059,6.13757 -1.87931,-5.29537 -1.90057,-11.5711 -1.90057,-17.2008 0,-0.783143 -0.441773,-1.43399 -1.05364,-1.78835l0 -0.0200806 -20.0652 -11.4223 -2.08248 0.0129933 -165.061 96.7211c-20.631,12.0885 -33.4472,34.4654 -33.4472,58.4097l0 824.367 -40.0265 23.1069c-3.43614,1.9868 -7.07191,2.8916 -10.6297,2.95421z"/>
   <path id="_604586624" class="fil5" d="M705.141 217.046c-0.016537,0 -0.0377988,0 -0.067329,0 -0.0283491,0 -0.0661478,0 -0.112215,0 -0.0248054,0 -0.0543357,0 -0.0874096,0l0 -0.0212618c0.207893,0.0129933 0.303571,0.0212618 0.303571,0.0212618 0,0 -0.0118121,0 -0.0366175,0z"/>
   <path id="_604587368" class="fil3" d="M411.046 338.182c0,4.92565 -3.45859,10.9132 -7.72158,13.3808 -4.26299,2.46283 -7.72512,0.466578 -7.72512,-4.45907 0,-4.92919 3.46213,-10.9179 7.72512,-13.3808 4.26299,-2.46637 7.72158,-0.466578 7.72158,4.45907z"/>
   <path id="_604587440" class="fil3" d="M439.786 321.593c0,4.92565 -3.45859,10.9132 -7.72512,13.376 -4.26772,2.46283 -7.7263,0.466578 -7.7263,-4.45907 0,-4.92919 3.45859,-10.9168 7.7263,-13.3796 4.26653,-2.46283 7.72512,-0.466578 7.72512,4.46262z"/>
   <path id="_604587536" class="fil3" d="M555.781 263.538l-93.4338 53.9471c-3.69601,2.13327 -6.68802,-0.129933 -6.68802,-5.05558 0,-4.92919 2.99201,-10.651 6.68802,-12.7842l93.4338 -53.9424c3.69601,-2.13327 6.68802,0.128752 6.68802,5.0544 0,4.93038 -2.99201,10.651 -6.68802,12.7807z"/>
   <path id="_604587272" class="fil3" d="M539.971 1283.77c-2.62465,0 -5.52098,0.832754 -8.5626,2.58803l-44.6876 25.8024c-11.9184,6.87465 -21.5736,25.3311 -21.5736,41.2113 0,11.831 5.35561,18.8982 13.0063,18.8982 2.62465,0 5.52098,-0.833935 8.56732,-2.59158l44.6876 -25.7988c11.9125,-6.87583 21.5677,-25.3311 21.5677,-41.2125 0,-11.8298 -5.34971,-18.9017 -13.0051,-18.897zm0.00472484 3.81649c5.57886,0 9.18392,5.91787 9.18392,15.0805 0,14.3931 -9.00083,31.7533 -19.6601,37.9039l-44.6876 25.8071c-2.39195,1.37493 -4.62917,2.07421 -6.65849,2.07421 -5.58004,0 -9.18864,-5.91669 -9.18864,-15.0805 0,-14.3931 9.00437,-31.7521 19.6636,-37.9027l44.6876 -25.8071c2.39195,-1.37493 4.63035,-2.07539 6.65967,-2.07539z"/>
   <path id="_604587632" class="fil6" d="M827.056 244.898l-22.6143 -13.3595c-7.09317,-4.67523 -16.6102,-5.62965 -24.9897,-0.71227l-161.848 94.8666 0 7.59637c0,23.4116 -18.9856,53.347 -42.396,66.8778l-51.0626 29.4488c-17.4524,10.0923 -32.4325,8.17989 -38.9374,-3.13848l16.6055 -9.72964 -20.0641 -11.4176 -165.061 96.7164c-20.103,11.7802 -32.4172,33.2948 -32.4172,56.6143l0 1006.08c0,9.04217 4.8536,16.3728 11.6515,20.3818l-0.00826848 0.00826848 0.14647 0.0791411 0.459491 0.262229 22.032 12.3933 0 -12.0354c0.51737,-0.262229 1.03828,-0.486659 1.54266,-0.791411 120.426,-72.5275 363.661,-217.728 457.165,-273.513 23.4648,-13.9678 37.82,-39.2776 37.82,-66.5884l0 -988.067 11.9763 -11.9763z"/>
   <path id="_604587656" class="fil6" d="M296.984 1583.34l19.4841 10.9652 0 -8.47283 1.14696 -1.86159 0.502015 -0.246873 0.89772 -0.466578c130.107,-78.3568 403.665,-241.588 457.178,-273.517 22.7064,-13.5131 36.803,-38.3457 36.803,-64.8012l0 -988.067 0.613049 -1.47061 10.0757 -10.0805 -20.3015 -11.9881c-7.03057,-4.63035 -15.7644,-4.88431 -22.8777,-0.713452l-160.818 94.2677 0 6.3998c0,24.0282 -19.4853,54.8389 -43.4379,68.6815l-51.0626 29.4488c-10.4892,6.06316 -20.7645,8.20115 -28.9279,5.99701 -5.54697,-1.48833 -9.99305,-4.91384 -12.8551,-9.90091l0.750069 -2.83373 13.493 -7.90467 -15.8814 -9.04335 -164.023 96.1128c-19.3636,11.3432 -31.3883,32.3451 -31.3883,54.8141l0 1006.08c0,7.71449 3.97123,14.6647 10.6262,18.5864l0.00354363 0.0106309zm20.5472 16.3444l-22.5777 -12.9225 -0.0885908 0.154739c-7.94128,-4.67996 -12.6779,-12.9685 -12.6779,-22.1737l0 -1006.08c0,-23.9443 12.8161,-46.3212 33.4472,-58.4097l165.061 -96.7211 2.08248 -0.0129933 20.0652 11.4223 0.0248054 3.6086 -14.7262 8.6252c2.27029,3.10068 5.35797,5.18788 9.19219,6.2179 7.11325,1.90411 16.2476,-0.0755975 25.7693,-5.58004l51.0626 -29.4488c22.8021,-13.18 41.3542,-42.37 41.3542,-65.0729l0 -7.59637 1.02883 -1.79544 161.848 -94.8678c8.48464,-4.98353 18.9065,-4.69177 27.1903,0.771331l22.5269 13.3016 0.416968 3.26723 -11.368 11.3668 0 987.204c0,27.9144 -14.8809,54.1172 -38.837,68.3803 -53.5136,31.9246 -327.063,195.156 -457.157,273.509l-0.533907 0.295303 0 10.7431 -3.10422 1.8167z"/>
   <path id="_604587704" class="fil7" d="M835.148 262.642l0 993.72c0,27.3072 -14.36,52.6171 -37.82,66.5896 -93.5129,55.7803 -336.744,200.985 -457.169,273.508 -15.7727,9.49576 -35.8273,-1.89584 -35.8273,-20.2979l0 -1006.08c0,-23.3147 12.32,-44.8293 32.4219,-56.6095l165.059 -96.7211 0 6.37972c0,23.4104 18.9809,31.4438 42.396,17.9095l51.059 -29.4488c23.4187,-13.5296 42.3996,-43.4662 42.3996,-66.8802l0 -7.59283 161.848 -94.8713c15.7715,-9.24652 35.6324,2.14626 35.6324,20.3983z"/>
   <path id="_604587224" class="fil6" d="M833.065 262.642c0,14.4049 0,28.8145 0,43.2205 0,37.9405 0,75.8857 0,113.826 0,53.36 0,106.714 0,160.073 0,61.0438 0,122.083 0,183.126 0,61.11 0,122.22 0,183.33 0,53.0588 0,106.114 0,159.173 0,36.9908 0,73.9816 0,110.977 0,16.7673 1.73756,34.8906 -0.878821,51.567 -3.82122,24.34 -18.8061,43.0162 -39.5588,55.3929 -12.1299,7.24201 -24.2644,14.4805 -36.399,21.7177 -32.5695,19.4392 -65.1391,38.8831 -97.7051,58.3353 -75.5857,45.1494 -151.151,90.3201 -226.666,135.588 -16.5559,9.92099 -33.1117,19.8467 -49.6546,29.7866 -14.7143,8.8331 -29.2527,19.1545 -44.6344,26.7639 -14.8088,7.32587 -30.6335,-4.03265 -31.1521,-19.731 -0.0519733,-1.60527 0,-3.22471 0,-4.83824 0,-22.8931 0,-45.7873 0,-68.6851 0,-43.6753 0,-87.3494 0,-131.029 0,-56.7052 0,-113.41 0,-170.119 0,-61.8021 0,-123.603 0,-185.404 0,-59.4515 0,-118.903 0,-178.358 0,-49.6215 0,-99.243 0,-148.868 0,-31.7864 0,-63.5728 0,-95.3592 0,-6.91717 -0.0129933,-13.8391 0,-20.7562 0.0460672,-23.8723 11.2345,-45.0325 31.9175,-57.4139 41.5975,-24.8893 83.664,-49.025 125.493,-73.5316 13.0134,-7.6259 26.028,-15.2506 39.0367,-22.8765 -1.04183,-0.600055 -2.0872,-1.20011 -3.13375,-1.80017 0,7.87513 -0.191356,15.9806 4.15904,22.919 4.53821,7.24555 12.6638,10.4667 20.9984,9.96706 13.6961,-0.812673 26.3398,-10.2387 37.9027,-16.9055 11.1684,-6.43878 22.4277,-12.7476 33.5157,-19.3317 20.1397,-11.955 36.6116,-33.3196 41.9247,-56.28 0.967412,-4.17558 1.4588,-8.38778 1.5214,-12.6673 0.0248054,-1.62062 0.337826,-3.80468 0,-5.3627 -0.466578,-2.15925 0.720539,-1.60054 -0.896539,-0.255142 1.52494,-1.27098 3.65939,-2.14154 5.36742,-3.14202 9.8513,-5.77494 19.7014,-11.5511 29.5527,-17.326 29.0814,-17.0437 58.1557,-34.0862 87.2336,-51.1299 11.4259,-6.69629 22.8553,-13.4008 34.2823,-20.0971 1.7541,-1.02529 3.47867,-2.13445 5.27056,-3.08769 14.6931,-7.83852 31.8951,1.86277 32.5034,18.5934 0.0921345,2.67426 4.26299,2.68726 4.16731,0 -0.72172,-19.8065 -21.3067,-31.6907 -38.7792,-22.1902 -5.4253,2.95067 -10.6793,6.26278 -16.0101,9.38472 -27.4313,16.0798 -54.859,32.1573 -82.2903,48.2371 -13.3264,7.80899 -26.6481,15.618 -39.9745,23.4317 -7.30933,4.28307 -15.351,8.11374 -22.2517,13.0429 -2.31754,1.6537 -2.34234,2.57504 -2.34234,5.7336 0,11.6633 -2.37896,22.3308 -7.71685,32.7869 -9.16856,17.9591 -23.186,30.6855 -40.362,40.5947 -14.2478,8.21769 -28.4696,16.4814 -42.7457,24.6531 -8.71379,4.9918 -20.1066,10.0958 -30.0914,5.55051 -10.7041,-4.87958 -10.7715,-17.039 -10.7715,-27.1194 0,-1.57574 -1.77064,-2.5963 -3.13375,-1.79662 -40.2947,23.6112 -80.5858,47.2177 -120.877,70.8278 -14.7108,8.62166 -29.5362,17.0685 -44.1407,25.865 -21.5512,12.9803 -33.4389,35.5119 -33.4968,60.4426 -0.0437048,19.9944 0,39.9828 0,59.9772 0,42.1539 0,84.303 0,126.453 0,56.1004 0,112.202 0,168.307 0,62.5132 0,125.023 0,187.537 0,60.7769 0,121.557 0,182.334 0,51.0791 0,102.155 0,153.227 0,33.3279 0,66.6593 0,99.9883 0,7.63771 0,15.2801 0,22.9179 0,1.09971 -0.0318927,2.21359 0,3.3133 0.480753,15.2471 13.4505,27.5813 29.0023,25.5933 8.48228,-1.07963 15.9086,-7.05419 23.0572,-11.3585 7.28453,-4.37521 14.5679,-8.75868 21.8524,-13.1351 16.7177,-10.0427 33.4401,-20.0723 50.1672,-30.102 37.7527,-22.632 75.5196,-45.2427 113.297,-67.8358 71.6653,-42.8662 143.359,-85.6874 215.07,-128.491 29.294,-17.4772 64.4977,-32.2742 77.4071,-66.3604 4.35513,-11.4885 5.13,-23.2356 5.13,-35.2781 0,-24.9649 0,-49.9298 0,-74.89 0,-45.5924 0,-91.1919 0,-136.784 0,-58.3672 0,-116.731 0,-175.094 0,-62.831 0,-125.662 0,-188.493 0,-59.122 0,-118.244 0,-177.371 0,-47.1043 0,-94.2122 0,-141.317 0,-27.2777 0,-54.5554 0,-81.8367 0,-3.58379 0,-7.16405 0,-10.7467 0,-2.68371 -4.16731,-2.68371 -4.16731,0z"/>
   <path id="_604588544" class="fil4" d="M427.048 587.259c0,18.6348 -13.0807,41.2951 -29.2196,50.609 -16.1389,9.31739 -29.2196,1.76709 -29.2196,-16.8689 0,-18.6348 13.0807,-41.2951 29.2196,-50.6078 16.1389,-9.31857 29.2196,-1.76709 29.2196,16.8677z"/>
   <path id="_604588448" class="fil4" d="M454.926 562.965c-1.44226,0 -2.84199,-0.745344 -3.61332,-2.08366 -1.15404,-1.99152 -0.470122,-4.54176 1.52494,-5.69226l134.542 -77.6776c1.98325,-1.15404 4.53703,-0.471303 5.69226,1.52494 1.14932,1.99625 0.466578,4.54176 -1.52612,5.69226l-134.541 77.6776c-0.654391,0.379169 -1.37139,0.558713 -2.07893,0.558713z"/>
   <path id="_604588232" class="fil4" d="M454.926 588.426c-1.44226,0 -2.84199,-0.746525 -3.61332,-2.08366 -1.15404,-1.99152 -0.470122,-4.54176 1.52494,-5.69226l82.5206 -47.6465c1.98325,-1.15404 4.53821,-0.466578 5.6958,1.52967 1.1505,1.99152 0.466578,4.53821 -1.52849,5.69226l-82.5206 47.6418c-0.654391,0.379169 -1.37139,0.558713 -2.07893,0.558713z"/>
   <path id="_604588496" class="fil8" d="M775.18 782.965l-392.779 226.771c-7.61645,4.40001 -13.793,-0.271679 -13.793,-10.4301l0 -289.498c0,-10.1549 6.17655,-21.9552 13.793,-26.3599l392.779 -226.767c7.62117,-4.40119 13.8013,0.265773 13.8013,10.4254l0 289.497c0,10.1596 -6.1801,21.9646 -13.8013,26.3611z"/>
   <path id="_604588352" class="fil9" d="M409.063 717.042c-1.44226,0 -2.84199,-0.746525 -3.61332,-2.08366 -1.15404,-1.99625 -0.470122,-4.54294 1.52612,-5.69226l339.468 -195.994c1.98325,-1.14577 4.54176,-0.466578 5.69226,1.52494 1.1505,1.99625 0.466578,4.54294 -1.52494,5.69226l-339.469 195.994c-0.65321,0.379169 -1.3702,0.558713 -2.07893,0.558713z"/>
   <path id="_604588160" class="fil9" d="M409.063 756.483c-1.44226,0 -2.84199,-0.745344 -3.61332,-2.08366 -1.15404,-1.99152 -0.470122,-4.54176 1.52612,-5.69226l339.468 -195.992c1.98325,-1.1505 4.54176,-0.466578 5.69226,1.52849 1.1505,1.9927 0.466578,4.53821 -1.52494,5.69226l-339.469 195.989c-0.65321,0.379169 -1.3702,0.558713 -2.07893,0.558713z"/>
   <path id="_604588472" class="fil9" d="M409.063 795.928c-1.44226,0 -2.84199,-0.746525 -3.61332,-2.08366 -1.15404,-1.99152 -0.470122,-4.54176 1.52612,-5.69226l339.468 -195.992c1.98325,-1.15522 4.54176,-0.471303 5.69226,1.52494 1.1505,1.99152 0.466578,4.54176 -1.52494,5.69226l-339.469 195.992c-0.65321,0.379169 -1.3702,0.558713 -2.07893,0.558713z"/>
   <path id="_604588424" class="fil9" d="M409.063 835.369c-1.44226,0 -2.84199,-0.745344 -3.61332,-2.08366 -1.15404,-1.99152 -0.470122,-4.53703 1.52612,-5.69108l339.468 -195.994c1.98325,-1.14577 4.54176,-0.466578 5.69226,1.52967 1.1505,1.99152 0.466578,4.54176 -1.52494,5.69226l-339.469 195.992c-0.65321,0.375625 -1.3702,0.553988 -2.07893,0.553988z"/>
   <path id="_604587992" class="fil9" d="M409.063 874.814c-1.44226,0 -2.84199,-0.750069 -3.61332,-2.08366 -1.15404,-1.99507 -0.470122,-4.54176 1.52612,-5.69226l339.468 -195.992c1.98325,-1.1505 4.54176,-0.474847 5.69226,1.52494 1.1505,1.99152 0.466578,4.54176 -1.52494,5.69226l-339.469 195.994c-0.65321,0.379169 -1.3702,0.557532 -2.07893,0.557532z"/>
   <path id="_604587968" class="fil9" d="M409.063 914.256c-1.44226,0 -2.84199,-0.746525 -3.61332,-2.08011 -1.15404,-1.99507 -0.470122,-4.54176 1.52612,-5.6958l339.468 -195.994c1.98325,-1.14932 4.54176,-0.466578 5.69226,1.52612 1.1505,1.99507 0.466578,4.54176 -1.52494,5.6958l-339.469 195.994c-0.65321,0.379169 -1.3702,0.553988 -2.07893,0.553988z"/>
   <path id="_604588832" class="fil9" d="M409.063 953.702c-1.44226,0 -2.84199,-0.746525 -3.61332,-2.08366 -1.15404,-1.99625 -0.470122,-4.54176 1.52612,-5.69226l339.468 -195.994c1.98325,-1.15404 4.54176,-0.470122 5.69226,1.52612 1.1505,1.99152 0.466578,4.53703 -1.52494,5.69108l-339.469 195.994c-0.65321,0.379169 -1.3702,0.558713 -2.07893,0.558713z"/>
   <path id="_604588688" class="fil4" d="M427.048 1064.68c0,18.636 -13.0807,41.2916 -29.2196,50.6137 -16.1389,9.31267 -29.2196,1.76237 -29.2196,-16.8724 0,-18.6348 13.0807,-41.2916 29.2196,-50.6137 16.1389,-9.31267 29.2196,-1.76237 29.2196,16.8724z"/>
   <path id="_604589384" class="fil10" d="M427.047 587.369l0 -0.26341c-0.0519733,-13.1221 -6.61596,-20.7066 -16.1672,-20.7066 -3.92989,0 -8.36297,1.2828 -13.0512,3.99249 -16.1389,9.31267 -29.2196,31.973 -29.2196,50.6078 0,13.2178 6.58053,20.8602 16.1684,20.8602 3.92516,0 8.35943,-1.2828 13.0512,-3.99131 16.107,-9.29613 29.1676,-31.8844 29.2184,-50.4991z"/>
   <path id="_604589048" class="fil10" d="M384.777 1119.28c-9.58789,0 -16.1684,-7.64244 -16.1684,-20.8602 0,-18.6348 13.0807,-41.2916 29.2196,-50.6137 4.68823,-2.70379 9.12131,-3.98777 13.0477,-3.98777 9.58789,0 16.172,7.64244 16.172,20.8602 0,18.636 -13.0807,41.2916 -29.2196,50.6137 -4.69177,2.70379 -9.12131,3.98777 -13.0512,3.98777z"/>
   <path id="_604588664" class="fil4" d="M454.926 1040.38c-1.44226,0 -2.84199,-0.746525 -3.61332,-2.08366 -1.15404,-1.9927 -0.470122,-4.54294 1.52494,-5.69226l134.542 -77.6788c1.98325,-1.14932 4.53703,-0.466578 5.69226,1.52612 1.14932,1.99152 0.466578,4.54176 -1.52612,5.69108l-134.541 77.6788c-0.654391,0.379169 -1.37139,0.558713 -2.07893,0.558713z"/>
   <path id="_604589312" class="fil4" d="M454.926 1065.84c-1.44226,0 -2.84199,-0.741801 -3.61332,-2.08366 -1.15404,-1.99152 -0.470122,-4.53703 1.52494,-5.69226l82.5241 -47.6453c1.97971,-1.1505 4.53467,-0.466578 5.69226,1.52494 1.1505,1.99625 0.466578,4.54176 -1.52849,5.6958l-82.5206 47.6465c-0.654391,0.379169 -1.37139,0.553988 -2.07893,0.553988z"/>
   <path id="_604589528" class="fil8" d="M775.18 1260.38l-392.779 226.77c-7.61645,4.40119 -13.793,-0.270497 -13.793,-10.4301l0 -289.497c0,-10.1549 6.17655,-21.9564 13.793,-26.3564l392.779 -226.771c7.62117,-4.40001 13.8013,0.270497 13.8013,10.4301l0 289.494c0,10.1596 -6.1801,21.9599 -13.8013,26.3611z"/>
   <path id="_604596200" class="fil9" d="M409.063 1194.46c-1.44226,0 -2.84199,-0.745344 -3.61332,-2.08366 -1.15404,-1.99625 -0.470122,-4.54176 1.52612,-5.69226l339.468 -195.992c1.98325,-1.1505 4.54176,-0.466578 5.69226,1.52494 1.1505,1.99152 0.466578,4.54176 -1.52494,5.69226l-339.469 195.992c-0.65321,0.379169 -1.3702,0.558713 -2.07893,0.558713z"/>
   <path id="_616481136" class="fil9" d="M409.063 1233.91c-1.44226,0 -2.84199,-0.745344 -3.61332,-2.08366 -1.15404,-1.99625 -0.470122,-4.54176 1.52612,-5.6958l339.468 -195.994c1.98325,-1.14932 4.54176,-0.470122 5.69226,1.52494 1.1505,1.99625 0.466578,4.54294 -1.52494,5.69698l-339.469 195.992c-0.65321,0.379169 -1.3702,0.558713 -2.07893,0.558713z"/>
   <path id="_616480896" class="fil9" d="M409.063 1273.35c-1.44226,0 -2.84199,-0.740619 -3.61332,-2.08248 -1.15404,-1.9927 -0.470122,-4.53821 1.52612,-5.69226l339.468 -195.994c1.98325,-1.14577 4.54176,-0.471303 5.69226,1.52494 1.1505,1.99625 0.466578,4.54294 -1.52494,5.69226l-339.469 195.997c-0.65321,0.375625 -1.3702,0.553988 -2.07893,0.553988z"/>
   <path id="_616481472" class="fil9" d="M409.063 1312.79c-1.44226,0 -2.84199,-0.746525 -3.61332,-2.08366 -1.15404,-1.99152 -0.470122,-4.54176 1.52612,-5.69226l339.468 -195.989c1.98325,-1.15404 4.54176,-0.474847 5.69226,1.52494 1.1505,1.9927 0.466578,4.54294 -1.52494,5.69226l-339.469 195.989c-0.65321,0.379169 -1.3702,0.558713 -2.07893,0.558713z"/>
   <path id="_616480824" class="fil9" d="M409.063 1352.23c-1.44226,0 -2.84199,-0.746525 -3.61332,-2.08366 -1.15404,-1.99625 -0.470122,-4.54176 1.52612,-5.69226l339.468 -195.994c1.98325,-1.15404 4.54176,-0.474847 5.69226,1.52612 1.1505,1.99152 0.466578,4.54176 -1.52494,5.69226l-339.469 195.992c-0.65321,0.379169 -1.3702,0.558713 -2.07893,0.558713z"/>
   <path id="_616481088" class="fil9" d="M409.063 1391.68c-1.44226,0 -2.84199,-0.746525 -3.61332,-2.08366 -1.15404,-1.99625 -0.470122,-4.54176 1.52612,-5.69226l339.468 -195.994c1.98325,-1.14932 4.54176,-0.474847 5.69226,1.52612 1.1505,1.99152 0.466578,4.54176 -1.52494,5.69226l-339.469 195.992c-0.65321,0.379169 -1.3702,0.558713 -2.07893,0.558713z"/>
   <path id="_616481304" class="fil9" d="M409.063 1431.12c-1.44226,0 -2.84199,-0.745344 -3.61332,-2.08366 -1.15404,-1.99625 -0.470122,-4.54176 1.52612,-5.6958l339.468 -195.994c1.98325,-1.15404 4.54176,-0.470122 5.69226,1.52967 1.1505,1.99152 0.466578,4.53821 -1.52494,5.69226l-339.469 195.992c-0.65321,0.379169 -1.3702,0.558713 -2.07893,0.558713z"/>
   <path id="_616480968" class="fil6" d="M992.191 338.978l-20.7929 -11.9302c-1.23437,-0.870553 -2.54197,-1.62062 -3.91808,-2.24666 -6.60061,-3.00382 -14.5714,-3.08296 -21.7225,1.10916l-161.848 94.8666 0 7.59637c0,23.4104 -18.9844,53.347 -42.3996,66.8778l-51.059 29.4523c-17.4512,10.0887 -32.4361,8.17516 -38.9363,-3.14202l16.6055 -9.72964 -20.0688 -11.4176 -165.057 96.7164c-20.1019,11.7802 -32.4195,33.2948 -32.4195,56.6095l0 1006.08c0,9.04217 4.85478,16.3716 11.655,20.3842l-0.00826848 0.00826848 0.141745 0.083866 0.461854 0.258685 22.0272 12.3933 0 -12.0354c0.51737,-0.266954 1.04183,-0.486659 1.54621,-0.791411 120.428,-72.5275 363.658,-217.728 457.168,-273.513 23.46,-13.9714 37.8236,-39.2824 37.8236,-66.5896l0 -990.241 10.801 -10.8045z"/>
   <path id="_616481160" class="fil6" d="M463.293 1678.43l19.4758 10.9652 0 -8.47283 1.13751 -1.8545 0.555169 -0.275222 0.862284 -0.445317c135.07,-81.3453 424.605,-254.09 457.18,-273.521 22.7017,-13.5178 36.803,-38.3445 36.803,-64.7977l0 -990.241 0.608324 -1.47061 8.88035 -8.88035 -18.4352 -10.5754c-1.2828,-0.896539 -2.48763,-1.58755 -3.74208,-2.15807 -6.46713,-2.94712 -13.6843,-2.57977 -19.8054,1.00757l-160.82 94.2677 0 6.3998c0,24.027 -19.4888,54.8425 -43.4414,68.6815l-51.059 29.4523c-10.488,6.06316 -20.7763,8.18461 -28.9361,5.99228 -5.54224,-1.49187 -9.9836,-4.91266 -12.8469,-9.90091l0.754794 -2.83254 13.4883 -7.90585 -15.8849 -9.04572 -164.019 96.1163c-19.3601,11.3432 -31.3895,32.3451 -31.3895,54.8094l0 1006.08c0,7.71213 3.97478,14.6636 10.6297,18.5899l0.00472484 0.0106309zm20.5389 16.3397l-22.5151 -12.6638 -0.044886 -0.270497 -0.100403 0.173638c-7.94246,-4.68232 -12.6803,-12.9791 -12.6803,-22.1796l0 -1006.08c0,-23.9349 12.8173,-46.3165 33.4484,-58.405l165.058 -96.7211 2.0872 -0.0129933 20.0641 11.4223 0.0248054 3.60388 -14.7214 8.62993c2.27029,3.10068 5.34971,5.18788 9.18864,6.2179 7.10853,1.89939 16.2464,-0.0755975 25.7681,-5.5765l51.059 -29.4523c22.8068,-13.1764 41.3577,-42.37 41.3577,-65.0729l0 -7.59637 1.03002 -1.79544 161.848 -94.8713c7.30461,-4.27953 15.9215,-4.7213 23.6396,-1.20484 1.49187,0.683921 2.92468,1.50014 4.25472,2.44274l20.631 11.8251 0.437048 3.28022 -10.1927 10.1927 0 989.378c0,27.9156 -14.8844,54.1136 -38.8406,68.3815 -32.566,19.4274 -322.101,192.168 -457.159,273.505l-0.537451 0.300028 0 10.7431 -3.10422 1.81198z"/>
   <path id="_616480848" class="fil7" d="M1001.45 357.725l0 993.726c0,27.3025 -14.3553,52.6123 -37.82,66.5849 -93.5094,55.7839 -336.743,200.982 -457.168,273.513 -15.768,9.48749 -35.8238,-1.90175 -35.8238,-20.2979l0 -1006.09c0,-23.3147 12.3141,-44.8293 32.416,-56.6095l165.065 -96.7211 0 6.37972c0,23.4104 18.9844,31.4403 42.396,17.9095l51.0626 -29.4488c23.4104,-13.5296 42.3913,-43.4662 42.3913,-66.8814l0 -7.59164 161.848 -94.8713c15.7727,-9.24652 35.6324,2.14626 35.6324,20.3972z"/>
   <path id="_616481040" class="fil6" d="M999.367 357.725c0,14.4061 0,28.8109 0,43.2205 0,37.9417 0,75.8869 0,113.827 0,53.3589 0,106.714 0,160.069 0,61.0426 0,122.086 0,183.129 0,61.11 0,122.22 0,183.333 0,53.0553 0,106.109 0,159.165 0,36.9955 0,73.9863 0,110.977 0,16.7685 1.74229,34.8953 -0.875277,51.567 -3.82122,24.3483 -18.8096,43.0162 -39.5576,55.3964 -12.1346,7.23846 -24.2644,14.4769 -36.399,21.7189 -32.5743,19.4392 -65.1391,38.8867 -97.7086,58.3388 -75.5786,45.1459 -151.148,90.3201 -226.663,135.583 -16.5606,9.92099 -33.1117,19.8526 -49.6593,29.7866 -14.7143,8.83428 -29.248,19.1557 -44.6285,26.7651 -14.81,7.32469 -30.6371,-4.03384 -31.1533,-19.731 -0.0496109,-1.60881 0,-3.22943 0,-4.83352 0,-22.8942 0,-45.7967 0,-68.6898 0,-43.6753 0,-87.3541 0,-131.029 0,-56.7052 0,-113.414 0,-170.119 0,-61.8021 0,-123.603 0,-185.405 0,-59.4504 0,-118.902 0,-178.353 0,-49.625 0,-99.2513 0,-148.872 0,-31.7864 0,-63.5728 0,-95.3592 0,-6.91717 -0.0129933,-13.8391 0,-20.7562 0.0460672,-23.8735 11.238,-45.0372 31.9116,-57.4092 41.5987,-24.8987 83.6735,-49.0297 125.499,-73.5363 13.0134,-7.6259 26.0233,-15.2518 39.0367,-22.8765 -1.04655,-0.600055 -2.08838,-1.20011 -3.13375,-1.80017 0,7.87513 -0.191356,15.9806 4.15432,22.9179 4.53821,7.24673 12.6638,10.4679 20.9984,9.96824 13.6961,-0.812673 26.3434,-10.2387 37.9074,-16.9055 11.1672,-6.44233 22.4312,-12.7476 33.5157,-19.327 20.1397,-11.9633 36.6069,-33.3243 41.9247,-56.2847 0.966231,-4.17558 1.45407,-8.38778 1.51668,-12.6673 0.0248054,-1.6218 0.346095,-3.80941 0,-5.36388 -0.466578,-2.15807 0.720539,-1.59936 -0.888271,-0.25396 1.5214,-1.27098 3.65467,-2.14154 5.35916,-3.14202 9.8513,-5.77494 19.7061,-11.5511 29.5574,-17.326 29.0779,-17.0437 58.1546,-34.0862 87.2289,-51.1299 11.4294,-6.69629 22.8564,-13.4008 34.2906,-20.0971 1.74937,-1.02529 3.47512,-2.13445 5.2623,-3.08887 14.6978,-7.83734 31.8986,1.85923 32.5034,18.5934 0.100403,2.67544 4.26299,2.68371 4.16731,0 -0.716995,-19.8054 -21.302,-31.6895 -38.7792,-22.1891 -5.42058,2.95067 -10.6793,6.26278 -16.0054,9.38472 -27.4277,16.0763 -54.859,32.1561 -82.2867,48.2371 -13.33,7.80899 -26.6564,15.6227 -39.9781,23.4317 -7.30933,4.28307 -15.3557,8.11256 -22.2528,13.0429 -2.31636,1.6537 -2.34589,2.57504 -2.34589,5.7336 0,11.6633 -2.37542,22.3308 -7.71331,32.7857 -9.17092,17.9603 -23.1848,30.6867 -40.362,40.5959 -14.2513,8.21769 -28.4731,16.4803 -42.7457,24.6519 -8.71734,4.99298 -20.1054,10.097 -30.0902,5.55051 -10.7089,-4.87958 -10.7715,-17.039 -10.7715,-27.1182 0,-1.57574 -1.77182,-2.5963 -3.13848,-1.79662 -40.2911,23.6112 -80.5822,47.2166 -120.873,70.8278 -14.7096,8.62166 -29.5362,17.0685 -44.1419,25.865 -21.5512,12.9803 -33.4365,35.5108 -33.4944,60.4426 -0.0460672,19.9896 0,39.9828 0,59.976 0,42.1503 0,84.3042 0,126.453 0,56.1016 0,112.202 0,168.307 0,62.5109 0,125.024 0,187.539 0,60.7769 0,121.553 0,182.333 0,51.0756 0,102.151 0,153.231 0,33.3279 0,66.6569 0,99.9883 0,7.63889 0,15.2766 0,22.9155 0,1.10325 -0.0377988,2.2065 0,3.31566 0.479572,15.2435 13.4469,27.5742 28.9987,25.5898 8.47991,-1.07963 15.9133,-7.05774 23.0561,-11.355 7.28807,-4.38347 14.5726,-8.76222 21.8607,-13.1422 16.7141,-10.0391 33.4365,-20.0735 50.1625,-30.0996 37.7491,-22.6355 75.5196,-45.2416 113.294,-67.8311 71.67,-42.8709 143.364,-85.6957 215.075,-128.495 29.2893,-17.4807 64.4977,-32.2778 77.4107,-66.3569 4.34686,-11.492 5.12173,-23.2391 5.12173,-35.2863 0,-24.9602 0,-49.9251 0,-74.8864 0,-45.5959 0,-91.1907 0,-136.787 0,-58.3636 0,-116.728 0,-175.092 0,-62.8298 0,-125.661 0,-188.492 0,-59.122 0,-118.244 0,-177.371 0,-47.1043 0,-94.2122 0,-141.317 0,-27.2777 0,-54.5601 0,-81.8367 0,-3.58379 0,-7.16405 0,-10.7478 0,-2.68371 -4.16731,-2.68726 -4.16731,0z"/>
   <path id="_616481256" class="fil4" d="M697.173 1500.13l-151.36 87.3872c-11.0172,6.36318 -19.9554,-0.392162 -19.9554,-15.0841 0,-14.6978 8.93822,-31.7663 19.9554,-38.133l151.36 -87.3836c11.0172,-6.362 19.9554,0.388618 19.9554,15.09 0,14.6919 -8.93822,31.7604 -19.9554,38.1236z"/>
   <path id="_616481808" class="fil4" d="M926.277 1361.05l-151.356 87.3872c-11.0219,6.36318 -19.9566,-0.392162 -19.9566,-15.0841 0,-14.6978 8.93468,-31.7663 19.9566,-38.133l151.356 -87.3836c11.0219,-6.36318 19.9554,0.392162 19.9554,15.0888 0,14.6931 -8.9335,31.7663 -19.9554,38.1248z"/>
   <path id="_616481832" class="fil10" d="M537.892 1589.91c-7.08018,0 -12.0342,-6.54273 -12.0342,-17.4807 0,-14.6978 8.93822,-31.7663 19.9554,-38.133l68.1145 -39.3249 0 53.2183 -68.1145 39.3237c-2.81246,1.62535 -5.49263,2.39668 -7.9212,2.39668z"/>
   <path id="_616481976" class="fil4" d="M932.436 831.711l-392.778 226.771c-7.62236,4.40474 -13.8013,-0.271679 -13.8013,-10.4301l0 -333.011c0,-10.1584 6.17892,-21.9599 13.8013,-26.3599l392.778 -226.771c7.62117,-4.39647 13.7965,0.270497 13.7965,10.4301l0 333.009c0,10.1596 -6.17537,21.9611 -13.7965,26.3611z"/>
   <path id="_616482216" class="fil10" d="M534.179 1060.14c-4.8973,0 -8.32163,-4.52168 -8.32163,-12.0885l0 -333.011c0,-10.1584 6.17892,-21.9599 13.8013,-26.3599l392.778 -226.771c1.94545,-1.12097 3.79641,-1.65488 5.47491,-1.65488 4.89612,0 8.32163,4.52168 8.32163,12.085l0 61.6344c-4.19212,20.7397 -20.6806,43.9789 -40.3289,55.3303l-51.0579 29.4488c-6.06788,3.5082 -11.9763,5.58359 -17.3024,6.13757 -1.88285,-5.29537 -1.90411,-11.5711 -1.90411,-17.2008 0,-0.787868 -0.441773,-1.43753 -1.05364,-1.78835l0 -0.0200806 -20.0652 -11.427 -2.08366 0.0177182 -165.06 96.7164c-20.631,12.0932 -33.4495,34.4748 -33.4495,58.4097l0 266.004 -74.2687 42.8791c-1.94664,1.12451 -3.80114,1.65842 -5.47964,1.65842z"/>
   <path id="_616482240" class="fil4" d="M932.436 1261.6l-392.778 226.771c-7.62236,4.40001 -13.8013,-0.271679 -13.8013,-10.4301l0 -333.011c0,-10.1584 6.17892,-21.9599 13.8013,-26.3599l392.778 -226.771c7.62117,-4.40001 13.7965,0.270497 13.7965,10.4301l0 333.009c0,10.1596 -6.17537,21.9611 -13.7965,26.3611z"/>
   <path id="_616481664" class="fil10" d="M534.179 1490.02c-4.8973,0 -8.32163,-4.51695 -8.32163,-12.0838l0 -333.011c0,-10.1584 6.17892,-21.9599 13.8013,-26.3599l74.2687 -42.8791 0 369.801 -74.2687 42.8791c-1.94664,1.12451 -3.80114,1.6537 -5.47964,1.6537z"/>
   <path id="_616481736" class="fil6" d="M1158.61 435.674l-22.8564 -13.4764c-7.04592,-4.43309 -16.3432,-5.25048 -24.5609,-0.433504l-161.847 94.8713 0 7.59283c0,23.4104 -18.9856,53.3506 -42.4008,66.8814l-51.0579 29.4476c-17.4524,10.0887 -32.4372,8.17989 -38.9327,-3.1373l16.6007 -9.72964 -20.0641 -11.4223 -165.061 96.7211c-20.1019,11.7802 -32.4195,33.2948 -32.4195,56.6095l0 1006.08c0,9.04217 4.85478,16.3716 11.655,20.3806l-0.00826848 0.00826848 0.141745 0.0803224 0.463035 0.261048 22.0355 12.398 0 -12.0389c0.512646,-0.262229 1.0371,-0.483115 1.54148,-0.791411 120.423,-72.5275 363.655,-217.729 457.167,-273.509 23.4565,-13.9714 37.82,-39.2824 37.82,-66.5896l0 -988.42 11.7849 -11.7885z"/>
   <path id="_616482096" class="fil6" d="M628.724 1774.28l19.49 10.9628 0 -8.47047 1.13751 -1.85923 0.532726 -0.262229 0.875277 -0.451223c131.488,-79.1896 403.905,-241.737 457.18,-273.52 22.7029,-13.5178 36.8042,-38.3445 36.8042,-64.7977l0 -988.42 0.608324 -1.47533 9.88437 -9.87965 -20.5354 -12.1133c-7.0223,-4.42127 -15.4018,-4.56302 -22.4525,-0.433504l-160.82 94.2666 0 6.40098c0,24.027 -19.4888,54.8425 -43.4414,68.6851l-51.0579 29.4488c-10.4844,6.05843 -20.761,8.19288 -28.9361,5.99583 -5.54224,-1.49187 -9.98005,-4.9162 -12.848,-9.90091l0.754794 -2.83727 13.4883 -7.90112 -15.8802 -9.04217 -164.023 96.1092c-19.3601,11.3467 -31.3907,32.3486 -31.3907,54.8129l0 1006.08c0,7.71685 3.97123,14.6624 10.6297,18.584l0 0.0129933zm20.5483 16.3421l-22.5186 -12.6661 -0.0460672 -0.270497 -0.100403 0.173638c-7.93774,-4.67878 -12.6803,-12.9709 -12.6803,-22.1761l0 -1006.08c0,-23.9349 12.8185,-46.3165 33.4495,-58.4097l165.06 -96.7164 2.08366 -0.0177182 20.0652 11.427 0.0248054 3.6086 -14.7226 8.6252c2.27147,3.09595 5.35089,5.18434 9.18864,6.2179 7.09672,1.91238 16.2393,-0.0708727 25.7693,-5.58004l51.0579 -29.4488c22.8068,-13.1764 41.3589,-42.37 41.3589,-65.0765l0 -7.59283 1.02883 -1.80017 161.848 -94.8666c8.29683,-4.87131 18.5391,-4.6835 26.7273,0.466578l22.8021 13.4469 0.412243 3.26723 -11.1719 11.1754 0 987.557c0,27.9108 -14.8844,54.1136 -38.8406,68.378 -53.2714,31.7781 -325.68,194.321 -457.158,273.508l-0.533907 0.296484 0 10.7467 -3.10422 1.8108z"/>
   <path id="_616481952" class="fil7" d="M1166.89 453.58l0 993.721c0,27.3108 -14.3553,52.6206 -37.82,66.5931 -93.5047,55.7839 -336.74,200.982 -457.163,273.512 -15.7727,9.48867 -35.8285,-1.89939 -35.8285,-20.2979l0 -1006.09c0,-23.3195 12.3141,-44.8341 32.4195,-56.6095l165.061 -96.7211 0 6.375c0,23.4151 18.9856,31.445 42.396,17.9142l51.0626 -29.4488c23.4104,-13.5343 42.396,-43.4662 42.396,-66.8814l0 -7.59164 161.848 -94.8713c15.7715,-9.24652 35.6277,2.14154 35.6277,20.3936z"/>
   <path id="_616482120" class="fil6" d="M1164.8 453.58c0,14.4096 0,28.8145 0,43.2205 0,37.9452 0,75.8857 0,113.831 0,53.3553 0,106.714 0,160.069 0,61.0426 0,122.086 0,183.126 0,61.1135 0,122.223 0,183.333 0,53.0541 0,106.113 0,159.168 0,36.9908 0,73.9863 0,110.977 0,16.7685 1.74229,34.8906 -0.875277,51.567 -3.82004,24.3436 -18.8049,43.0162 -39.5576,55.3964 -12.1346,7.23846 -24.2644,14.4769 -36.3943,21.7189 -32.5778,19.4392 -65.1438,38.8867 -97.7098,58.3377 -75.581,45.1483 -151.151,90.3178 -226.666,135.581 -16.5559,9.92572 -33.107,19.8526 -49.6546,29.7866 -14.7143,8.83428 -29.2527,19.1557 -44.6332,26.7639 -14.81,7.32942 -30.6359,-4.03384 -31.1533,-19.7274 -0.0496109,-1.60763 0,-3.22943 0,-4.83233 0,-22.9025 0,-45.7967 0,-68.6898 0,-43.6765 0,-87.3553 0,-131.029 0,-56.7088 0,-113.414 0,-170.119 0,-61.8021 0,-123.603 0,-185.409 0,-59.4468 0,-118.903 0,-178.355 0,-49.6203 0,-99.2465 0,-148.872 0,-31.7864 0,-63.5681 0,-95.3545 0,-6.9219 -0.00826848,-13.8391 0,-20.7598 0.0460672,-23.8699 11.2392,-45.0337 31.9151,-57.4104 41.5999,-24.894 83.6711,-49.025 125.495,-73.5351 13.0134,-7.6259 26.0233,-15.2518 39.0367,-22.873 -1.04537,-0.600055 -2.0872,-1.20011 -3.13375,-1.80017 0,7.87159 -0.191356,15.9759 4.15432,22.9179 4.53821,7.24673 12.6638,10.4643 20.9984,9.96824 13.6973,-0.812673 26.3446,-10.2387 37.9074,-16.9055 11.1719,-6.44233 22.4312,-12.7476 33.5157,-19.3317 20.1397,-11.9586 36.6081,-33.3196 41.9247,-56.28 0.967412,-4.17558 1.45407,-8.38778 1.5214,-12.6673 0.0248054,-1.6218 0.34137,-3.80941 0,-5.36742 -0.471303,-2.15453 0.720539,-1.60054 -0.891814,-0.250417 1.52022,-1.27098 3.65821,-2.14154 5.35797,-3.14202 9.85603,-5.77494 19.7061,-11.5511 29.5622,-17.326 29.0732,-17.0437 58.151,-34.0862 87.2242,-51.1299 11.4306,-6.70101 22.86,-13.4008 34.2906,-20.0971 1.75055,-1.03002 3.47512,-2.13445 5.26702,-3.08887 14.6978,-7.83734 31.8951,1.85923 32.4987,18.5899 0.100403,2.67544 4.26772,2.68726 4.16731,0 -0.716995,-19.8018 -21.302,-31.686 -38.7744,-22.1855 -5.4253,2.95067 -10.6841,6.25924 -16.0101,9.38472 -27.4265,16.0763 -54.859,32.1561 -82.2867,48.2336 -13.33,7.81253 -26.6564,15.6215 -39.9781,23.4352 -7.30933,4.28307 -15.3557,8.10901 -22.2517,13.0429 -2.31754,1.6537 -2.34234,2.57504 -2.34234,5.7336 0,11.6597 -2.37896,22.3308 -7.71803,32.7822 -9.17092,17.9603 -23.1813,30.6902 -40.3573,40.5959 -14.2513,8.2165 -28.4731,16.4838 -42.7504,24.6519 -8.71734,4.9918 -20.1019,10.1005 -30.0902,5.55051 -10.7041,-4.87604 -10.7715,-17.0354 -10.7715,-27.1147 0,-1.57928 -1.77064,-2.5963 -3.1373,-1.79662 -40.2911,23.6065 -80.5822,47.2166 -120.875,70.8278 -14.7096,8.61694 -29.535,17.0685 -44.1407,25.865 -21.5477,12.9803 -33.4365,35.5072 -33.4956,60.439 -0.0413424,19.9932 0,39.9864 0,59.9795 0,42.1503 0,84.2995 0,126.45 0,56.1052 0,112.206 0,168.307 0,62.5144 0,125.024 0,187.537 0,60.7816 0,121.557 0,182.334 0,51.0791 0,102.156 0,153.231 0,33.3314 0,66.6593 0,99.9883 0,7.63653 0,15.2766 0,22.9131 0,1.10089 -0.0330739,2.21359 0,3.31802 0.479572,15.2471 13.4481,27.5777 28.9987,25.5945 8.48464,-1.08435 15.9145,-7.0601 23.0608,-11.3573 7.28335,-4.38347 14.5679,-8.76222 21.8559,-13.1422 16.7141,-10.0415 33.4365,-20.0711 50.1637,-30.0984 37.7491,-22.6355 75.5184,-45.2416 113.294,-67.8381 71.6688,-42.8673 143.367,-85.6886 215.077,-128.487 29.2869,-17.4807 64.4941,-32.2778 77.4071,-66.3569 4.3504,-11.492 5.12173,-23.2391 5.12173,-35.2863 0,-24.9602 0,-49.9251 0,-74.89 0,-45.5924 0,-91.1919 0,-136.783 0,-58.3636 0,-116.732 0,-175.096 0,-62.8263 0,-125.657 0,-188.488 0,-59.122 0,-118.249 0,-177.371 0,-47.1079 0,-94.2122 0,-141.317 0,-27.2824 0,-54.5601 0,-81.8367 0,-3.58379 0,-7.16759 0,-10.7514 0,-2.68017 -4.16731,-2.68371 -4.16731,0z"/>
   <path id="_616482888" class="fil4" d="M1097.87 640.889l-392.778 226.771c-7.62117,4.40001 -13.8013,-0.270497 -13.8013,-10.4301l0 -40.9538c0,-10.1596 6.1801,-21.9599 13.8013,-26.3611l392.778 -226.77c7.62117,-4.39647 13.7977,0.270497 13.7977,10.4301l0 40.9538c0,10.1584 -6.17655,21.9599 -13.7977,26.3599z"/>
   <path id="_616482912" class="fil10" d="M699.615 869.315c-4.89612,0 -8.32163,-4.51695 -8.32163,-12.085l0 -40.9538c0,-10.1596 6.1801,-21.9599 13.8013,-26.3611l392.778 -226.77c1.94664,-1.12097 3.79641,-1.65488 5.47609,-1.65488 4.89612,0 8.32163,4.52168 8.32163,12.085l0 40.9538c0,10.1584 -6.17655,21.9599 -13.7977,26.3599l-392.778 226.771c-1.94664,1.12569 -3.79996,1.65488 -5.47964,1.65488z"/>
   <path id="_616482288" class="fil9" d="M1066.31 594.923c-3.64286,2.10019 -7.28453,5.80447 -10.0592,10.6167 -5.55524,9.62215 -5.55524,20.0192 0,23.2273 2.77466,1.60408 6.41634,1.10443 10.0592,-0.995761 3.64167,-2.10019 7.28335,-5.8092 10.0592,-10.6179 5.55405,-9.62096 5.55405,-20.0227 0,-23.2309 -2.77585,-1.60054 -6.41752,-1.10443 -10.0592,1.00049zm0 5.62965c2.4959,-1.44226 4.84651,-1.67614 6.60888,-0.654391 1.76709,1.01584 2.74159,3.16683 2.74159,6.05016 0,2.88334 -0.974499,6.15529 -2.74159,9.21345 -1.76237,3.05816 -4.11298,5.53752 -6.60888,6.97978 -2.4959,1.44226 -4.84651,1.67496 -6.60888,0.654391 -3.6464,-2.10492 -3.6464,-8.95122 0,-15.2636 1.76237,-3.06288 4.11298,-5.5387 6.60888,-6.97978z"/>
   <path id="_616482408" class="fil9" d="M1086.55 635.472c-0.621317,0 -1.24618,-0.237423 -1.72102,-0.715814l-13.5308 -13.5308c-0.954419,-0.949694 -0.954419,-2.49236 0,-3.44205 0.94615,-0.949694 2.48763,-0.949694 3.43732,0l13.5355 13.5343c0.953237,0.949694 0.953237,2.48763 0,3.43851 -0.476028,0.478391 -1.10089,0.715814 -1.72102,0.715814z"/>
   <path id="_616482960" class="fil4" d="M749.736 907.839c0,18.6395 -13.0807,41.2951 -29.2196,50.6125 -16.1389,9.31739 -29.2232,1.76355 -29.2232,-16.8677 0,-18.6348 13.0843,-41.2951 29.2232,-50.6125 16.1389,-9.31857 29.2196,-1.76355 29.2196,16.8677z"/>
   <path id="_616482312" class="fil4" d="M777.614 883.549c-1.43753,0 -2.83845,-0.746525 -3.61332,-2.08366 -1.14932,-1.99625 -0.466578,-4.54294 1.52494,-5.69226l134.542 -77.6788c1.9868,-1.15404 4.53703,-0.470122 5.6958,1.52612 1.1505,1.99152 0.466578,4.54176 -1.52849,5.69226l-134.542 77.6776c-0.654391,0.379169 -1.3702,0.558713 -2.07893,0.558713z"/>
   <path id="_616482744" class="fil4" d="M777.614 909.009c-1.43753,0 -2.83845,-0.745344 -3.61332,-2.08366 -1.14932,-1.99507 -0.466578,-4.54176 1.52494,-5.69226l82.5241 -47.6453c1.98443,-1.1505 4.53821,-0.471303 5.69226,1.52494 1.15522,1.99625 0.46776,4.54176 -1.52494,5.69226l-82.5241 47.6465c-0.654391,0.379169 -1.3702,0.557532 -2.07893,0.557532z"/>
   <path id="_616482456" class="fil4" d="M862.609 1132.18l-151.36 87.3872c-11.0172,6.36791 -19.9554,-0.390981 -19.9554,-15.0841l0 -167.636c0,-14.6978 8.93822,-31.7699 19.9554,-38.133l151.36 -87.3872c11.0172,-6.35846 19.9554,0.395706 19.9554,15.0888l0 167.641c0,14.6931 -8.93822,31.7651 -19.9554,38.1236z"/>
   <path id="_616482600" class="fil11" d="M703.327 1221.96c-7.08018,0 -12.0342,-6.538 -12.0342,-17.4807l0 -167.636c0,-14.6978 8.93822,-31.7699 19.9554,-38.133l151.36 -87.3872c2.81246,-1.62535 5.49145,-2.39195 7.9212,-2.39195 7.08018,0 12.0342,6.538 12.0342,17.4807l0 167.641c0,14.6931 -8.93822,31.7651 -19.9554,38.1236l-151.36 87.3872c-2.81246,1.62535 -5.49145,2.39668 -7.9212,2.39668z"/>
   <polygon id="_616482624" class="fil4" points="869.718,1082.06 705.223,1177.03 753.819,1050.59 792.302,1085.88 821.88,1041.56 "/>
   <path id="_616482720" class="fil4" d="M812.654 1003.18c0,9.56781 -6.71755,21.2016 -15.0014,25.9902 -8.28383,4.78391 -15.0061,0.908351 -15.0061,-8.66418 0,-9.56663 6.72227,-21.2051 15.0061,-25.989 8.28383,-4.78391 15.0014,-0.904808 15.0014,8.663z"/>
   <path id="_616483080" class="fil4" d="M1091.71 1000.77l-151.356 87.3884c-11.0219,6.35846 -19.9554,-0.392162 -19.9554,-15.0852l0 -167.645c0,-14.6931 8.9335,-31.7651 19.9554,-38.1283l151.356 -87.3836c11.0219,-6.36318 19.9566,0.387437 19.9566,15.0852l0 167.64c0,14.6931 -8.93468,31.7663 -19.9566,38.1283z"/>
   <path id="_616483296" class="fil11" d="M932.436 1090.55c-7.08018,0 -12.0342,-6.53328 -12.0342,-17.476l0 -167.645c0,-14.6931 8.9335,-31.7651 19.9554,-38.1283l151.356 -87.3836c2.81719,-1.62535 5.49618,-2.3955 7.9212,-2.3955 7.08018,0 12.0354,6.538 12.0354,17.4807l0 167.64c0,14.6931 -8.93468,31.7663 -19.9566,38.1283l-151.356 87.3884c-2.81246,1.62417 -5.49145,2.39077 -7.9212,2.39077z"/>
   <polygon id="_616483608" class="fil4" points="1098.28,946.793 933.79,1041.76 982.386,915.318 1020.87,950.614 1050.45,906.289 "/>
   <path id="_616483104" class="fil4" d="M1041.22 867.91c0,9.56781 -6.71282,21.2016 -15.0061,25.9902 -8.28383,4.78272 -15.0014,0.903627 -15.0014,-8.66418 0,-9.57135 6.71755,-21.2063 15.0014,-25.989 8.29328,-4.78391 15.0061,-0.904808 15.0061,8.663z"/>
   <path id="_616483056" class="fil4" d="M862.609 1598.31l-151.36 87.3836c-11.0172,6.36318 -19.9554,-0.388618 -19.9554,-15.0852 0,-14.6978 8.93822,-31.7663 19.9554,-38.1283l151.36 -87.3872c11.0172,-6.36318 19.9554,0.392162 19.9554,15.0841 0,14.6978 -8.93822,31.7663 -19.9554,38.133z"/>
   <path id="_616483416" class="fil4" d="M1091.71 1464.09l-151.356 87.3836c-11.0219,6.36673 -19.9554,-0.387437 -19.9554,-15.0852 0,-14.6931 8.9335,-31.7651 19.9554,-38.1283l151.356 -87.3872c11.0219,-6.35846 19.9566,0.392162 19.9566,15.0888 0,14.6978 -8.93468,31.7616 -19.9566,38.1283z"/>
   <path id="_616483224" class="fil8" d="M1097.87 1364.11l-392.778 226.77c-7.62117,4.39647 -13.8013,-0.275222 -13.8013,-10.4301l0 -289.497c0,-10.1631 6.1801,-21.9646 13.8013,-26.3611l392.778 -226.771c7.62117,-4.40001 13.7977,0.266954 13.7977,10.4301l0 289.494c0,10.1596 -6.17655,21.9646 -13.7977,26.3658z"/>
   <path id="_616483560" class="fil9" d="M731.751 1298.19c-1.43753,0 -2.83727,-0.741801 -3.61332,-2.08366 -1.14932,-1.9927 -0.466578,-4.54294 1.52612,-5.69226l339.468 -195.994c1.98798,-1.14577 4.54176,-0.470122 5.69226,1.52494 1.15404,1.99625 0.471303,4.54294 -1.52494,5.69226l-339.469 195.994c-0.65321,0.379169 -1.3702,0.558713 -2.07893,0.558713z"/>
   <path id="_616483152" class="fil9" d="M731.751 1337.63c-1.43753,0 -2.83727,-0.746525 -3.61332,-2.08366 -1.14932,-1.99152 -0.466578,-4.54176 1.52612,-5.69226l339.468 -195.989c1.98798,-1.15404 4.54176,-0.474847 5.69226,1.52494 1.15404,1.9927 0.471303,4.54294 -1.52494,5.69226l-339.469 195.989c-0.65321,0.379169 -1.3702,0.558713 -2.07893,0.558713z"/>
   <path id="_616483488" class="fil9" d="M731.751 1377.07c-1.43753,0 -2.83727,-0.746525 -3.61332,-2.08366 -1.14932,-1.99625 -0.466578,-4.54176 1.52612,-5.69226l339.468 -195.992c1.98798,-1.15522 4.54176,-0.476028 5.69226,1.52494 1.15404,1.99152 0.471303,4.54176 -1.52494,5.69226l-339.469 195.992c-0.65321,0.379169 -1.3702,0.558713 -2.07893,0.558713z"/>
   <path id="_616484352" class="fil9" d="M731.751 1416.52c-1.43753,0 -2.83727,-0.746525 -3.61332,-2.08366 -1.14932,-1.99625 -0.466578,-4.54176 1.52612,-5.69226l339.468 -195.997c1.98798,-1.14577 4.54176,-0.474847 5.69226,1.52967 1.15404,1.99152 0.471303,4.53703 -1.52494,5.69226l-339.469 195.992c-0.65321,0.379169 -1.3702,0.558713 -2.07893,0.558713z"/>
   <path id="_616484496" class="fil9" d="M731.751 1455.96c-1.43753,0 -2.83727,-0.745344 -3.61332,-2.08366 -1.14932,-1.99507 -0.466578,-4.54176 1.52612,-5.6958l339.468 -195.989c1.98798,-1.1505 4.54176,-0.471303 5.69226,1.52494 1.15404,1.99625 0.471303,4.54176 -1.52494,5.69698l-339.469 195.989c-0.65321,0.379169 -1.3702,0.557532 -2.07893,0.557532z"/>
   <path id="_616483824" class="fil9" d="M731.751 1495.4c-1.43753,0 -2.83727,-0.741801 -3.61332,-2.08366 -1.14932,-1.99152 -0.466578,-4.53821 1.52612,-5.69226l339.468 -195.994c1.98798,-1.14932 4.54176,-0.470122 5.69226,1.52612 1.15404,1.99507 0.471303,4.54176 -1.52494,5.69108l-339.469 195.997c-0.65321,0.375625 -1.3702,0.555169 -2.07893,0.555169z"/>
   <path id="_616484136" class="fil9" d="M731.751 1534.85c-1.43753,0 -2.83727,-0.741801 -3.61332,-2.08366 -1.14932,-1.9927 -0.466578,-4.54294 1.52612,-5.69226l339.468 -195.994c1.98798,-1.15404 4.54176,-0.470122 5.69226,1.52494 1.15404,1.99625 0.471303,4.54294 -1.52494,5.69226l-339.469 195.994c-0.65321,0.379169 -1.3702,0.558713 -2.07893,0.558713z"/>
   <path id="_616484232" class="fil12" d="M1298.31 999.743l-22.3981 26.7603 52.4422 84.5204 -18.7978 21.8937 -73.7737 -87.0494c-8.74214,-10.3261 -9.36228,-25.2685 -1.49541,-36.2785l28.9149 -40.4612 35.108 30.6146z"/>
   <path id="_616484400" class="fil4" d="M1361.67 902.122l-20.5897 -1.8923c-16.1601,-1.48714 -31.9612,5.38042 -41.8999,18.206l-45.2994 58.2845c0,0 5.97102,22.1725 43.0622,34.1075l53.5833 -75.4652 11.1435 -33.2405z"/>
   <path id="_616483872" class="fil13" d="M1296.95 1010.83c-2.13799,-0.687465 -4.16731,-1.408 -6.10568,-2.15807 -23.4896,-9.09769 -32.4691,-22.2859 -35.5356,-28.4825 -1.06781,-2.15453 -1.421,-3.46685 -1.421,-3.46685l45.2994 -58.2845c9.04217,-11.6715 22.9356,-18.4056 37.5413,-18.4056 1.4458,0 2.89987,0.0661478 4.35867,0.199625l19.6554 1.80843c-1.37847,-0.112215 -2.74986,-0.170094 -4.10825,-0.170094 -26.2441,0 -48.321,20.8472 -49.2081,47.6784l-1.6218 48.8136 -8.85436 12.4677z"/>
   <path id="_616483896" class="fil14" d="M1349.78 1543.62c0,0 5.09574,11.4837 3.83776,29.0968 -0.321289,4.47679 -15.0345,8.31573 -19.1888,9.27723 -4.15904,0.959143 -17.2646,8.95122 -23.6608,13.4304 -6.40098,4.48033 -20.4692,14.7096 -42.5331,14.7096 -22.065,0 -32.2943,-7.67551 -32.2943,-15.351 0,-7.67669 14.3883,-16.3066 25.2602,-17.9072 7.02584,-1.03356 42.2082,-21.7473 48.6045,-37.7314l39.9745 4.47561z"/>
   <path id="_616484304" class="fil2" d="M1349.78 1538.14c0,0 5.09574,11.4849 3.83776,29.1027 -0.321289,4.47679 -15.0345,8.31336 -19.1888,9.27133 -4.15904,0.959143 -17.2646,8.95476 -23.6608,13.4304 -6.40098,4.47561 -20.4692,14.7108 -42.5331,14.7108 -22.065,0 -32.2943,-7.67669 -32.2943,-15.3487 0,-7.67433 14.3883,-16.3102 25.2602,-17.9095 7.02584,-1.03356 42.2082,-21.7437 48.6045,-37.7326l39.9745 4.47561z"/>
   <path id="_616484280" class="fil7" d="M1286.14 1591.23c0.31184,4.01021 0.0248054,10.4962 0.00354363,10.9557 -5.25875,1.45761 -11.1636,2.47582 -17.9095,2.47582 -22.065,0 -32.2943,-7.67669 -32.2943,-15.3487 0,-7.67433 14.3883,-16.3102 25.2602,-17.9095 0,0 23.3183,-1.3076 24.9401,19.8266z"/>
   <path id="_616485240" class="fil7" d="M1297.98 1571.44l1.10798 -0.294122c1.09616,-0.608324 1.4836,-1.9927 0.870553,-3.08769 -5.00479,-8.94295 -16.6185,-10.0344 -17.1134,-10.0769 -1.22137,-0.0956781 -2.34234,0.817398 -2.45101,2.06358 -0.10749,1.24972 0.817398,2.35297 2.06358,2.46283 0.0956781,0.00826848 9.72137,0.948513 13.5426,7.76764 0.412243,0.740619 1.18357,1.16467 1.97971,1.16467z"/>
   <path id="_616484712" class="fil7" d="M1308.51 1564.09l1.10443 -0.29294c1.09616,-0.610686 1.48833,-1.99507 0.870553,-3.09123 -5.00361,-8.94177 -16.6137,-10.0332 -17.1098,-10.0757 -1.24145,-0.115759 -2.34116,0.820942 -2.44983,2.06712 -0.112215,1.24618 0.812673,2.35061 2.06239,2.4581 0.0921345,0.00944969 9.71782,0.950875 13.539,7.77119 0.416968,0.738257 1.18357,1.16349 1.98325,1.16349z"/>
   <path id="_616484856" class="fil7" d="M1318.1 1555.16l1.10916 -0.288216c1.09498,-0.616592 1.48242,-1.99979 0.870553,-3.09123 -5.00834,-8.94295 -16.6185,-10.0308 -17.1146,-10.0722 -1.25445,-0.100403 -2.34116,0.816217 -2.44983,2.06239 -0.108671,1.24618 0.812673,2.34589 2.06239,2.46283 0.0956781,0.00826848 9.71782,0.94615 13.539,7.76764 0.412243,0.745344 1.18712,1.15877 1.98325,1.15877z"/>
   <path id="_616485264" class="fil0" d="M1387.7 1111.42l-19.8526 224.308c0,0 2.72505,26.8607 -2.82073,89.537 -5.54224,62.6762 -11.935,116.399 -11.935,116.399 0,0 -30.2733,11.5133 -48.1828,-5.11346 0,0 -5.07212,-153.022 -5.11346,-204.048 -0.0496109,-54.7468 5.11346,-218.912 5.11346,-218.912l82.7911 -2.17107z"/>
   <path id="_616485024" class="fil14" d="M1373.76 1268.83l-9.84658 -76.761c0,0 -33.003,-4.50868 -38.7579,-20.7102 -7.16759,-20.1727 -3.1999,-46.0495 -3.1999,-46.0495l64.7138 -2.39668 -12.9095 145.917z"/>
   <path id="_616484736" class="fil14" d="M1461.82 1571.4c0,0 6.87229,38.9504 6.87229,52.3714 0,13.4221 -8.18461,30.7706 -30.7706,30.7706 -22.5848,0 -21.602,-26.1875 -20.2932,-36.9873 1.31233,-10.8057 6.87111,-46.1546 6.87111,-46.1546l37.3204 0z"/>
   <path id="_616484952" class="fil2" d="M1461.38 1567.25c0,0 6.71282,38.0539 6.71282,51.1642 0,13.1126 -7.9968,30.0559 -30.0571,30.0559 -22.0638,0 -21.1059,-25.5815 -19.8266,-36.1332 1.27925,-10.5541 6.71282,-45.0868 6.71282,-45.0868l36.4581 0z"/>
   <path id="_616484664" class="fil7" d="M1440.69 1613.93l3.12076 0c8.55906,0 16.5263,4.35749 21.1437,11.5641l1.68795 2.63646c-3.15856,10.4892 -11.7849,20.3357 -28.603,20.3357 -13.9182,0 -18.6679,-10.1714 -19.9601,-20.3393 4.18385,-8.68072 12.9768,-14.197 22.6107,-14.197z"/>
   <path id="_616485048" class="fil0" d="M1453.71 1107.62l10.2293 220.862c0,0 13.6477,65.66 8.53071,133.029 -5.11701,67.3645 -5.96748,113.415 -5.96748,113.415 0,0 -29.424,15.3463 -44.3462,-2.56441l-30.2733 -250.276 -20.8897 -136.867c0,0 -40.5037,-2.13327 -48.6045,-23.4482 -8.10429,-21.3185 -9.38,-46.0495 -9.38,-46.0495l140.701 -8.10075z"/>
   <path id="_616485144" class="fil7" d="M1452 1602.99c0.804405,0 1.58755,-0.433504 2.00097,-1.18712 0.59533,-1.10561 0.191356,-2.48409 -0.913076,-3.08414 -0.496109,-0.268135 -12.2763,-6.53682 -22.5647,0.0874096 -1.05364,0.679196 -1.35839,2.08366 -0.679196,3.13848 0.679196,1.05718 2.08838,1.35367 3.13848,0.681559 8.04995,-5.1867 17.8387,0.0295303 17.9343,0.0850472l1.08317 0.278766z"/>
   <path id="_616485192" class="fil7" d="M1452 1593.15c0.804405,0 1.58755,-0.429961 2.00097,-1.1883 0.59533,-1.09971 0.191356,-2.47936 -0.913076,-3.07824 -0.496109,-0.271679 -12.2763,-6.54391 -22.5647,0.0862284 -1.05364,0.680378 -1.35839,2.08366 -0.679196,3.13848 0.679196,1.04892 2.08838,1.35839 3.13848,0.68274 8.04995,-5.1926 17.8387,0.0295303 17.9343,0.083866l1.08317 0.275222z"/>
   <path id="_616486008" class="fil7" d="M1452 1583.31c0.804405,0 1.58755,-0.42878 2.00097,-1.18712 0.59533,-1.10561 0.191356,-2.48409 -0.913076,-3.07942 -0.496109,-0.275222 -12.2763,-6.54155 -22.5647,0.0826848 -1.05364,0.679196 -1.35839,2.08366 -0.679196,3.13848 0.679196,1.05482 2.08838,1.35721 3.13848,0.683921 8.04995,-5.18906 17.8387,0.0283491 17.9343,0.0862284l1.08317 0.275222z"/>
   <path id="_616485504" class="fil4" d="M1307.42 949.546l-5.92614 178.534c0,0 60.393,43.8407 156.619,10.625l0.132296 -200.472c0.00826848,-14.9435 -11.3006,-27.4702 -26.1686,-28.9739l-70.4061 -7.13806c-28.3987,-2.87507 -53.3092,18.8935 -54.2507,47.4244z"/>
   <path id="_616485816" class="fil15" d="M1387.42 1151.14c-54.1585,0 -85.9284,-23.0596 -85.9284,-23.0596l5.92614 -178.534c0.88709,-26.8312 22.9639,-47.6784 49.2081,-47.6784 1.66669,0 3.34991,0.0826848 5.04259,0.25396l70.4061 7.13806 0 23.4978c0,18.8982 3.65821,37.6121 10.7715,55.1224l15.3392 37.7362 -0.0744163 113.089c-26.4402,9.12604 -50.1672,12.4346 -70.6908,12.4346z"/>
   <path id="_616485336" class="fil12" d="M1505.51 992.284l17.906 49.8837 118.073 24.3022 0 31.9825 -135.458 -8.02987c-10.1431,-0.570525 -19.1226,-6.7459 -23.2817,-16.0137l-24.5066 -54.6216 47.2673 -27.5033z"/>
   <path id="_616485408" class="fil4" d="M1432.08 909.26l0 23.4978c0,18.8982 3.65821,37.6121 10.7715,55.1224l20.3983 50.1838c0,0 45.5829,-9.7509 53.6258,-31.9246l-29.2362 -68.1642c-7.05537,-16.4472 -22.9226,-27.3817 -40.8038,-28.1152l-14.7557 -0.600055z"/>
   <path id="_616485744" class="fil13" d="M1463.25 1038.06l-5.05913 -12.4476 -15.3392 -37.7362c-7.11325,-17.5103 -10.7715,-36.2242 -10.7715,-55.1224l0 -23.4978 14.7557 0.600055c17.8812,0.733532 33.7484,11.668 40.8038,28.1152l29.2362 68.1642c-0.888271,2.44274 -2.23013,4.73429 -3.9169,6.88055 -11.2806,14.3505 -37.9913,22.1146 -46.8173,24.3554 -1.8297,0.463035 -2.8916,0.688646 -2.8916,0.688646z"/>
   <path id="_616485912" class="fil14" d="M1321.85 772.022c0,0 -25.9985,22.8151 -3.40898,73.6698l26.432 -68.7441 -23.023 -4.92565z"/>
   <polygon id="_616485552" class="fil12" points="1407.58,906.797 1363.72,939.563 1363.72,835.245 1407.58,835.245 "/>
   <path id="_616485600" class="fil16" d="M1363.72 895.096c16.1767,-6.24624 36.7239,-16.622 36.7239,-26.5194l5.32962 -33.3314 -42.0535 0 0 59.8508z"/>
   <path id="_616486032" class="fil12" d="M1372.79 757.929c-15.9511,0 -49.8625,8.89216 -53.7758,50.622 -3.91217,41.7322 2.1876,77.2193 21.4024,77.2193 37.7243,0 73.9355,-4.78863 74.232,-66.5152 0.266954,-54.4373 -26.2985,-61.3261 -41.8586,-61.3261z"/>
   <path id="_616486416" class="fil14" d="M1407.58 855.822l-6.14584 -18.8604c-2.05413,1.74229 -5.21387,0.283491 -5.21387,-2.41676l0 -33.6244c0,0 -15.6723,-4.44135 -14.0174,-17.6308 0,0 -8.01334,7.17231 -38.791,7.17231 -30.7776,0 -38.2535,-26.0776 -35.1788,-40.5923 0,0 5.71824,5.88479 21.9906,5.88479 16.2676,0 83.9818,-20.4361 85.7406,20.4763 0,0 5.71706,-8.37597 14.9518,0l-11.8759 7.05892c0,0 14.0718,-0.445317 11.8759,20.2235 -1.73402,16.2806 -8.52598,47.174 -11.3302,59.559 -0.779599,3.42079 -2.83373,6.4128 -5.74305,8.37124l-6.26278 4.20511 0 -19.8266z"/>
   <polygon id="_616486656" class="fil16" points="1348.82,821.081 1348.82,845.692 1334.41,841.266 "/>
   <path id="_616486488" class="fil14" d="M1374.41 825.335c0,2.77112 -2.24194,5.01306 -5.01306,5.01306 -2.7664,0 -5.01306,-2.24194 -5.01306,-5.01306 0,-2.7664 2.24666,-5.01188 5.01306,-5.01188 2.77112,0 5.01306,2.24548 5.01306,5.01188z"/>
   <path id="_616486224" class="fil14" d="M1336.89 821.839c0,2.77112 -2.24666,5.01306 -5.0166,5.01306 -2.76758,0 -5.01306,-2.24194 -5.01306,-5.01306 0,-2.76758 2.24548,-5.01306 5.01306,-5.01306 2.76994,0 5.0166,2.24548 5.0166,5.01306z"/>
   <path id="_616486848" class="fil14" d="M1325.76 811.396l9.80878 -5.82101c0,0 -3.76688,-3.90863 -7.5125,-1.56274 -3.74208,2.35061 -2.29627,7.38375 -2.29627,7.38375z"/>
   <path id="_616486392" class="fil14" d="M1379.59 815.022l-9.80523 -5.82573c0,0 3.76334,-3.90863 7.50896,-1.56274 3.7468,2.35061 2.29627,7.38848 2.29627,7.38848z"/>
   <path id="_616486296" class="fil16" d="M1342.04 855.663c0,0 7.96373,0.728807 13.506,-3.61332 0,0 0.920163,7.11325 -5.03432,8.47165 -5.95803,1.36312 -8.47165,-4.85832 -8.47165,-4.85832z"/>
   <path id="_616486584" class="fil12" d="M1403.88 829.932c-5.67926,9.83831 -4.21692,21.7933 3.70428,25.8898 5.09693,2.62938 20.1314,-3.0428 25.8106,-12.8847 5.68399,-9.83831 2.48763,-18.2851 -5.24222,-22.7442 -7.72158,-4.46262 -18.5887,-0.103947 -24.2727,9.73909z"/>
   <polygon id="_616486608" class="fil3" points="1401.01,837.257 1418.36,818.439 1405.9,810.951 "/>
   <path id="_616486776" class="fil17" d="M1582.79 1417.27l-58.7062 0 0 15.6723c0,12.0921 1.63362,24.1274 4.85123,35.7824l47.1705 170.782c1.87576,6.77661 11.4885,6.77661 13.3595,0l47.1752 -170.782c3.21762,-11.655 4.85005,-23.6904 4.85005,-35.7872l0 -15.6676 -58.7003 0z"/>
   <path id="_616487568" class="fil0" d="M1598.18 1598.77c-8.49645,4.90557 -22.2765,4.90557 -30.7776,0 -1.28752,-0.748888 -2.31636,-1.57928 -3.21644,-2.44156l11.9255 43.1792c1.87576,6.77661 11.4885,6.77661 13.3595,0l11.9302 -43.1827c-0.900083,0.865828 -1.92537,1.69622 -3.22116,2.44511z"/>
   <path id="_616487136" class="fil4" d="M1524.09 641.622l0 795.653c0,8.676 5.73006,17.3473 17.1937,23.9691 22.9226,13.2343 60.0929,13.2343 83.0202,0 11.4637,-6.62187 17.1925,-15.2931 17.1925,-23.9691l0 -795.653 -117.406 0z"/>
   <path id="_616487400" class="fil18" d="M1624.3 774.389c22.9226,13.2343 22.9226,34.6945 0,47.9288 -22.9273,13.2355 -60.0977,13.2355 -83.0202,0 -22.9226,-13.2343 -22.9226,-34.6945 0,-47.9288 22.9273,-13.239 60.0929,-13.239 83.0202,0z"/>
   <polygon id="_616487424" class="fil18" points="1524.09,798.353 1641.49,798.353 1641.49,668.061 1524.09,668.061 "/>
   <path id="_616486944" class="fil4" d="M1624.3 775.451c-22.9273,13.239 -60.0977,13.239 -83.0202,0 -11.4637,-6.61714 -17.1937,-15.2884 -17.1937,-23.9644l0 16.1979c0,8.676 5.73006,17.3473 17.1937,23.9644 22.9226,13.2343 60.0929,13.2343 83.0202,0 11.4637,-6.61714 17.1925,-15.2884 17.1925,-23.9644l0 -16.1979c0,8.676 -5.72887,17.3473 -17.1925,23.9644z"/>
   <path id="_616486896" class="fil4" d="M1624.3 725.922c-22.9273,13.2355 -60.0977,13.2355 -83.0202,0 -11.4637,-6.62069 -17.1937,-15.2931 -17.1937,-23.968l0 16.1968c0,8.676 5.73006,17.352 17.1937,23.9644 22.9226,13.239 60.0929,13.239 83.0202,0 11.4637,-6.61242 17.1925,-15.2884 17.1925,-23.9644l0 -16.1968c0,8.67481 -5.72887,17.3473 -17.1925,23.968z"/>
   <path id="_616487232" class="fil19" d="M1624.3 644.098c22.9226,13.2343 22.9226,34.6945 0,47.9288 -22.9273,13.2355 -60.0977,13.2355 -83.0202,0 -22.9226,-13.2343 -22.9226,-34.6945 0,-47.9288 22.9273,-13.2343 60.0929,-13.2343 83.0202,0z"/>
   <polygon id="_616487328" class="fil19" points="1524.09,668.062 1641.49,668.062 1641.49,568.441 1524.09,568.441 "/>
   <path id="_616487448" class="fil17" d="M1624.3 544.476c22.9226,13.2343 22.9226,34.6957 0,47.93 -22.9273,13.2343 -60.0977,13.2343 -83.0202,0 -22.9226,-13.2343 -22.9226,-34.6957 0,-47.93 22.9273,-13.2343 60.0929,-13.2343 83.0202,0z"/>
   <path id="_616487544" class="fil12" d="M1641.54 1049.14c0,0 -8.66418,6.07143 -21.5146,0 -18.1269,-8.55906 -8.839,50.8547 21.5146,42.7953 30.3489,-8.05468 20.781,-53.875 0,-53.875l0 11.0798z"/>
  </g>
 </g>
</svg>
