<?xml version="1.0" encoding="UTF-8"?>
<!DOCTYPE svg PUBLIC "-//W3C//DTD SVG 1.1//EN" "http://www.w3.org/Graphics/SVG/1.1/DTD/svg11.dtd">
<!-- Creator: CorelDRAW -->
<svg xmlns="http://www.w3.org/2000/svg" xml:space="preserve" width="1375px" height="1660px" style="shape-rendering:geometricPrecision; text-rendering:geometricPrecision; image-rendering:optimizeQuality; fill-rule:evenodd; clip-rule:evenodd"
viewBox="0 0 1550.15 1872.48"
 xmlns:xlink="http://www.w3.org/1999/xlink">
 <defs>
  <style type="text/css">
   <![CDATA[
    .fil20 {fill:#006360;fill-rule:nonzero}
    .fil19 {fill:#008787;fill-rule:nonzero}
    .fil32 {fill:#008C8C;fill-rule:nonzero}
    .fil0 {fill:#009486;fill-rule:nonzero}
    .fil21 {fill:#049DA5;fill-rule:nonzero}
    .fil5 {fill:#073856;fill-rule:nonzero}
    .fil44 {fill:#07706A;fill-rule:nonzero}
    .fil31 {fill:#15BCAC;fill-rule:nonzero}
    .fil1 {fill:#181D28;fill-rule:nonzero}
    .fil22 {fill:#1B4456;fill-rule:nonzero}
    .fil11 {fill:#1B5E92;fill-rule:nonzero}
    .fil23 {fill:#2C5871;fill-rule:nonzero}
    .fil2 {fill:#343A4A;fill-rule:nonzero}
    .fil45 {fill:#3F4553;fill-rule:nonzero}
    .fil46 {fill:#4F5563;fill-rule:nonzero}
    .fil3 {fill:#505666;fill-rule:nonzero}
    .fil7 {fill:#517E93;fill-rule:nonzero}
    .fil6 {fill:#52544F;fill-rule:nonzero}
    .fil9 {fill:#676866;fill-rule:nonzero}
    .fil4 {fill:#676D7C;fill-rule:nonzero}
    .fil30 {fill:#A52300;fill-rule:nonzero}
    .fil37 {fill:#BEB280;fill-rule:nonzero}
    .fil29 {fill:#C23000;fill-rule:nonzero}
    .fil18 {fill:#C9BD8D;fill-rule:nonzero}
    .fil43 {fill:#CCEAF2;fill-rule:nonzero}
    .fil26 {fill:#CE3500;fill-rule:nonzero}
    .fil42 {fill:#D1783D;fill-rule:nonzero}
    .fil28 {fill:#D43602;fill-rule:nonzero}
    .fil36 {fill:#D5CB9F;fill-rule:nonzero}
    .fil8 {fill:#D7D7DD;fill-rule:nonzero}
    .fil35 {fill:#DCD5B8;fill-rule:nonzero}
    .fil33 {fill:#E4BE1E;fill-rule:nonzero}
    .fil38 {fill:#E4DDC2;fill-rule:nonzero}
    .fil34 {fill:#E4E0D1;fill-rule:nonzero}
    .fil27 {fill:#E83E03;fill-rule:nonzero}
    .fil16 {fill:#E8A000;fill-rule:nonzero}
    .fil17 {fill:#EAE1B9;fill-rule:nonzero}
    .fil10 {fill:#F1F1F3;fill-rule:nonzero}
    .fil25 {fill:#F4EFDC;fill-rule:nonzero}
    .fil39 {fill:#F5B285;fill-rule:nonzero}
    .fil12 {fill:#FEFFFF;fill-rule:nonzero}
    .fil15 {fill:#FFB600;fill-rule:nonzero}
    .fil40 {fill:#FFC19C;fill-rule:nonzero}
    .fil13 {fill:#FFCE00;fill-rule:nonzero}
    .fil41 {fill:#FFDFCF;fill-rule:nonzero}
    .fil24 {fill:#FFFBEB;fill-rule:nonzero}
    .fil14 {fill:white;fill-rule:nonzero}
   ]]>
  </style>
 </defs>
 <g id="Layer_x0020_1">
  <metadata id="CorelCorpID_0Corel-Layer"/>
  <path class="fil0" d="M949.546 1284.75l-9.3465 5.42782c-7.29259,-20.8868 -26.7142,-46.1105 -39.8755,-60.4279 -8.89496,-9.65153 -9.81136,-20.2954 -44.1232,-36.5295 -25.289,-11.9265 -37.8922,-14.1909 -49.4178,-22.1042l-25.8724 -17.381c-10.8596,-7.38183 -20.5485,-8.28891 -31.3615,-2.04459 -0.661994,0.375618 -1.31999,0.789864 -2.00197,1.22675 -8.11975,5.248 -19.8851,17.4143 3.45382,28.555 1.6117,1.07624 32.451,21.5634 41.4925,25.6806 4.19041,3.84809 23.6213,22.0509 19.4109,24.4991 -0.681974,0.386274 -1.95535,0.371622 -3.99461,-0.169161 -33.747,-9.07744 -87.1501,-40.1192 -89.9659,-41.7496l-134.088 -77.9221c-11.7294,-6.81308 -30.4677,-6.88367 -41.8868,-0.291704 -11.5549,6.66389 -11.3338,17.4809 0.414246,24.2327l120.235 69.8783 -4.43016 3.47247 -32.8413 -19.0833c-11.6442,-6.77045 -30.4491,-6.94494 -41.9467,-0.319675 -11.4191,6.5973 -11.2259,17.5182 0.422238,24.298l39.6077 23.0166 -4.30496 3.48179 -19.7679 -11.4937c-11.7094,-6.80908 -30.4584,-6.95027 -41.9427,-0.325003 -11.4231,6.5973 -11.2965,17.4902 0.40359,24.3033l26.4984 15.3844 -3.68958 2.98896 -4.20506 -2.4575c-11.7281,-6.80908 -30.4584,-6.94627 -41.8961,-0.352975 -11.479,6.63459 -11.2392,17.5275 0.414246,24.298l10.9289 6.35354c0.0572751,0.0319675 33.5832,27.564 88.3169,62.7722 17.3903,11.1367 61.2498,28.7481 105.068,44.9876l-22.8794 13.2932 147.815 85.3373 233.17 -135.498 -147.814 -85.3373z"/>
  <polygon class="fil0" points="354.365,1629.6 734.189,1850.32 1486.52,1417.36 1106.69,1196.66 "/>
  <polygon class="fil1" points="390.674,1608.94 390.791,1651.76 770.614,1872.48 770.497,1829.67 "/>
  <polygon class="fil2" points="770.497,1829.67 770.614,1872.48 1522.95,1439.55 1522.83,1396.71 "/>
  <polygon class="fil3" points="390.674,1608.94 770.497,1829.67 1522.83,1396.71 1143,1176 "/>
  <polygon class="fil1" points="1097.26,1240.61 1097.3,1254.88 1155.5,1288.69 1155.47,1274.42 "/>
  <polygon class="fil1" points="1155.47,1274.42 1155.5,1288.69 1220.34,1251.27 1220.29,1236.99 "/>
  <polygon class="fil1" points="992.418,1301.14 992.455,1315.4 1050.64,1349.23 1050.61,1334.96 "/>
  <polygon class="fil1" points="1050.61,1334.96 1050.64,1349.23 1115.48,1311.81 1115.44,1297.52 "/>
  <polygon class="fil1" points="887.454,1361.76 887.491,1376.01 945.683,1409.84 945.64,1395.57 "/>
  <polygon class="fil1" points="945.64,1395.57 945.683,1409.84 1010.52,1372.41 1010.48,1358.13 "/>
  <polygon class="fil1" points="782.587,1422.25 782.63,1436.56 840.822,1470.38 840.788,1456.08 "/>
  <polygon class="fil1" points="840.788,1456.08 840.822,1470.38 905.666,1432.95 905.624,1418.66 "/>
  <polygon class="fil1" points="677.627,1482.89 677.67,1497.15 735.866,1530.97 735.815,1516.69 "/>
  <polygon class="fil1" points="735.815,1516.69 735.866,1530.97 800.81,1493.46 800.764,1479.21 "/>
  <polygon class="fil1" points="572.757,1543.41 572.814,1557.7 631,1591.52 630.967,1577.22 "/>
  <polygon class="fil1" points="630.967,1577.22 631,1591.52 695.845,1554.08 695.808,1539.81 "/>
  <polygon class="fil1" points="467.91,1603.96 467.956,1618.23 526.148,1652.05 526.111,1637.79 "/>
  <polygon class="fil1" points="526.111,1637.79 526.148,1652.05 590.989,1614.61 590.951,1600.35 "/>
  <polygon class="fil1" points="1209.99,1306.11 1210.03,1320.38 1268.12,1354.13 1268.08,1339.86 "/>
  <polygon class="fil1" points="1268.08,1339.86 1268.12,1354.13 1332.95,1316.7 1332.91,1302.44 "/>
  <polygon class="fil1" points="1326.28,1373.67 1326.31,1387.95 1384.51,1421.77 1384.48,1407.5 "/>
  <polygon class="fil1" points="1384.48,1407.5 1384.51,1421.77 1449.35,1384.35 1449.31,1370.08 "/>
  <polygon class="fil1" points="1105.14,1366.64 1105.17,1380.9 1163.26,1414.69 1163.22,1400.41 "/>
  <polygon class="fil1" points="1163.22,1400.41 1163.26,1414.69 1228.09,1377.23 1228.05,1362.97 "/>
  <polygon class="fil1" points="1000.17,1427.26 1000.21,1441.52 1058.3,1475.28 1058.26,1461.01 "/>
  <polygon class="fil1" points="1058.26,1461.01 1058.3,1475.28 1123.13,1437.84 1123.09,1423.57 "/>
  <polygon class="fil1" points="895.315,1487.78 895.353,1502.05 953.44,1535.8 953.394,1521.54 "/>
  <polygon class="fil1" points="953.394,1521.54 953.44,1535.8 1018.27,1498.39 1018.24,1484.1 "/>
  <polygon class="fil1" points="790.355,1548.39 790.387,1562.67 848.467,1596.42 848.438,1582.14 "/>
  <polygon class="fil1" points="848.438,1582.14 848.467,1596.42 913.42,1558.91 913.368,1544.66 "/>
  <polygon class="fil1" points="685.485,1608.94 685.526,1623.19 743.624,1656.95 743.587,1642.67 "/>
  <polygon class="fil1" points="743.587,1642.67 743.624,1656.95 808.456,1619.5 808.408,1605.27 "/>
  <polygon class="fil1" points="580.646,1669.47 580.679,1683.75 638.776,1717.49 638.726,1703.23 "/>
  <polygon class="fil1" points="638.726,1703.23 638.776,1717.49 703.604,1680.06 703.561,1665.77 "/>
  <polygon class="fil1" points="801.232,1676.83 801.262,1691.1 859.448,1724.92 859.411,1710.65 "/>
  <polygon class="fil1" points="859.411,1710.65 859.448,1724.92 1344.49,1444.87 1344.46,1430.63 "/>
  <polygon class="fil1" points="696.926,1737.06 696.968,1751.3 755.159,1785.13 755.122,1770.87 "/>
  <polygon class="fil1" points="755.122,1770.87 755.159,1785.13 819.987,1747.71 819.953,1733.43 "/>
  <polygon class="fil4" points="1097.26,1240.61 1155.47,1274.42 1220.29,1236.99 1162.09,1203.17 "/>
  <polygon class="fil4" points="992.418,1301.14 1050.61,1334.96 1115.44,1297.52 1057.25,1263.7 "/>
  <polygon class="fil4" points="887.454,1361.76 945.64,1395.57 1010.48,1358.13 952.299,1324.29 "/>
  <polygon class="fil4" points="782.587,1422.25 840.788,1456.08 905.624,1418.66 847.409,1384.84 "/>
  <polygon class="fil4" points="677.627,1482.89 735.815,1516.69 800.764,1479.21 742.567,1445.38 "/>
  <polygon class="fil4" points="572.757,1543.41 630.967,1577.22 695.808,1539.81 637.612,1505.98 "/>
  <polygon class="fil4" points="467.91,1603.96 526.111,1637.79 590.951,1600.35 532.745,1566.52 "/>
  <polygon class="fil4" points="1209.99,1306.11 1268.08,1339.86 1332.91,1302.44 1274.82,1268.68 "/>
  <polygon class="fil4" points="1326.28,1373.67 1384.48,1407.5 1449.31,1370.08 1391.11,1336.24 "/>
  <polygon class="fil4" points="1105.14,1366.64 1163.22,1400.41 1228.05,1362.97 1169.97,1329.2 "/>
  <polygon class="fil4" points="1000.17,1427.26 1058.26,1461.01 1123.09,1423.57 1065.01,1389.82 "/>
  <polygon class="fil4" points="895.315,1487.78 953.394,1521.54 1018.24,1484.1 960.151,1450.33 "/>
  <polygon class="fil4" points="790.355,1548.39 848.438,1582.14 913.368,1544.66 855.299,1510.89 "/>
  <polygon class="fil4" points="685.485,1608.94 743.587,1642.67 808.408,1605.27 750.333,1571.49 "/>
  <polygon class="fil4" points="580.646,1669.47 638.726,1703.23 703.561,1665.77 645.483,1632.03 "/>
  <polygon class="fil4" points="801.232,1676.83 859.411,1710.65 1344.46,1430.63 1286.27,1396.8 "/>
  <polygon class="fil4" points="696.926,1737.06 755.122,1770.87 819.953,1733.43 761.767,1699.62 "/>
  <polygon class="fil1" points="422.547,1514 243.996,1410.21 243.888,1371.76 422.448,1475.52 "/>
  <polygon class="fil3" points="422.448,1475.52 243.888,1371.76 601.848,1165.11 780.403,1268.86 "/>
  <path class="fil2" d="M601.848 1165.11l-10.6811 6.16573 32.2632 18.7489 -4.30496 3.48179 -19.7679 -11.4937c-5.09349,-2.96099 -11.527,-4.58201 -18.1056,-5.01357l-32.1114 18.5372c0.732589,3.79614 3.61766,7.50837 8.67785,10.4547l26.4984 15.3844 -3.68958 2.98896 -4.20506 -2.4575c-11.7281,-6.80908 -30.4584,-6.94494 -41.8961,-0.352975 -11.479,6.63459 -11.2392,17.5275 0.414246,24.298l10.9289 6.35354c0.0572751,0.0372954 33.5832,27.564 88.3169,62.7722 7.59761,4.86439 20.2567,10.9675 35.749,17.6541l110.468 -63.7779 -178.555 -103.744z"/>
  <polygon class="fil2" points="780.403,1268.86 780.52,1307.3 422.547,1514 422.448,1475.52 "/>
  <polygon class="fil1" points="671.162,1370.44 780.52,1307.3 780.403,1268.86 671.162,1331.93 "/>
  <polygon class="fil5" points="507.644,1112.05 454.072,1080.95 516.511,1044.9 570.059,1076.01 "/>
  <polygon class="fil2" points="507.719,1355.51 454.17,1324.39 454.072,1080.95 507.644,1112.05 "/>
  <polygon class="fil6" points="570.059,1076.01 570.327,1319.35 507.719,1355.51 507.644,1112.05 "/>
  <polygon class="fil1" points="961.536,879.366 907.955,848.241 905.746,74.4537 959.324,105.57 "/>
  <path class="fil3" d="M947.233 4.99359l53.5682 31.135c-13.4437,-7.80007 -32.0421,-6.71851 -52.5253,5.09482l-53.5389 -31.1164c20.4592,-11.8373 39.0563,-12.9175 52.496,-5.11347z"/>
  <polygon class="fil1" points="118.309,1366.18 64.7462,1335.05 907.955,848.241 961.536,879.366 "/>
  <polygon class="fil7" points="946.27,98.0377 103.075,584.866 105.256,1358.67 948.469,871.843 "/>
  <path class="fil1" d="M55.6754 1528.98l-2.10852 -886.471 -53.5656 -31.135 2.11785 886.466c0.0599391,23.0206 8.23297,39.2881 21.4182,46.915l53.5776 31.1577c-13.1919,-7.66821 -21.3716,-23.913 -21.4395,-46.9323z"/>
  <path class="fil8" d="M55.6754 1528.98l-0.150514 -62.9613 -15.0061 -8.7298 0.155842 64.9806c0.0452873,17.4889 4.79246,31.0604 12.8469,39.9221l23.5934 13.7207c-13.1919,-7.66821 -21.3716,-23.913 -21.4395,-46.9323z"/>
  <polygon class="fil9" points="127.083,515.344 73.5213,484.191 894.737,10.1071 948.276,41.2234 "/>
  <path class="fil1" d="M53.5669 642.512l-53.5656 -31.135c-0.123874,-46.6699 32.7574,-103.616 73.52,-127.187l53.5616 31.1537c-40.7612,23.5281 -73.6545,80.4795 -73.516,127.168z"/>
  <path class="fil2" d="M961.536 879.366l-2.21242 -773.796 -843.199 486.847 2.18445 773.768 843.227 -486.819zm-13.2599 -838.143c40.6041,-23.4295 73.8862,-4.64728 74.0088,41.984l2.10453 886.467c0.14119,46.4581 -32.8972,103.517 -73.5146,126.979l-821.195 474.09c-40.7546,23.5308 -73.8716,4.67924 -74.0048,-41.7602l-2.10852 -886.471c-0.138526,-46.6886 32.7547,-103.64 73.516,-127.168l821.193 -474.121z"/>
  <path class="fil3" d="M74.7667 570.651c13.3158,-23.1751 31.8183,-43.4505 52.3162,-55.3065l-53.5616 -31.1537c-20.4872,11.8506 -38.9817,32.1274 -52.2949,55.3211l53.5403 31.139z"/>
  <path class="fil10" d="M55.6754 1528.98c0.133198,46.4395 33.2502,65.291 74.0048,41.7602l821.195 -474.09c40.6174,-23.4615 73.6558,-80.5208 73.5146,-126.979l-0.150514 -63.3316 -968.716 559.294 0.151846 63.3463z"/>
  <path class="fil11" d="M605.645 1124.57c3.16212,-1.81815 5.77014,-6.235 5.75682,-9.87663 -0.00932386,-3.69758 -2.63599,-5.11214 -5.77546,-3.29399l-31.769 18.3347c-3.15812,1.82881 -5.76614,6.2683 -5.74216,9.97653 0.00399594,3.60833 2.62666,5.01357 5.77946,3.19542l31.7504 -18.336z"/>
  <path class="fil12" d="M605.626 1111.4c3.13948,-1.81815 5.76614,-0.40359 5.77546,3.29399 0.0133198,3.64163 -2.5947,8.05848 -5.75682,9.87663l-31.7504 18.336c-3.1528,1.81815 -5.77946,0.412914 -5.77946,-3.19542 -0.0239756,-3.70823 2.58404,-8.14772 5.74216,-9.97653l31.769 -18.3347z"/>
  <polygon class="fil13" points="1038.11,824.238 761.753,663.634 761.842,713.023 1038.2,873.61 "/>
  <polygon class="fil13" points="1038.2,873.61 761.842,713.023 703.143,746.913 979.501,907.559 "/>
  <polygon class="fil14" points="979.337,858.164 702.988,697.57 703.143,746.913 979.501,907.559 "/>
  <polygon class="fil14" points="1038.11,824.238 761.753,663.634 702.988,697.57 979.337,858.164 "/>
  <polygon class="fil13" points="1037.24,641.676 760.901,481.103 761.061,530.452 1037.34,691.056 "/>
  <polygon class="fil13" points="1037.34,691.056 761.061,530.452 702.241,564.42 978.543,724.978 "/>
  <polygon class="fil14" points="1037.24,641.676 760.901,481.103 702.072,515.025 978.42,675.649 "/>
  <polygon class="fil14" points="978.42,675.649 702.072,515.025 702.241,564.42 978.543,724.978 "/>
  <polygon class="fil13" points="1036.86,458.915 760.516,298.334 760.686,347.724 1037.02,508.31 "/>
  <polygon class="fil13" points="1037.02,508.31 760.686,347.724 701.907,381.632 978.261,542.213 "/>
  <polygon class="fil15" points="1057.65,363.664 781.323,203.059 779.5,204.699 1055.84,365.303 "/>
  <polygon class="fil15" points="1055.84,365.303 779.5,204.699 781.37,211.465 1057.73,372.065 "/>
  <polygon class="fil14" points="978.157,492.842 701.804,332.246 701.907,381.632 978.261,542.213 "/>
  <polygon class="fil14" points="1036.86,458.915 760.516,298.334 701.804,332.246 978.157,492.842 "/>
  <path class="fil13" d="M1036.86 458.915l-58.699 33.9269 0.103894 49.3672 58.7603 -33.8989 -0.165165 -49.3951zm-57.355 448.644l58.7043 -33.9495 -0.0985665 -49.3712 -58.7696 33.9255 0.163834 49.3951zm-0.953697 -182.581l58.7976 -33.9215 -0.102562 -49.3858 -58.8216 33.9788 0.126538 49.3285zm80.7699 230.454l-101.543 58.6524 -1.72491 -612.312 101.562 -58.6337 1.70627 612.294z"/>
  <polygon class="fil14" points="979.337,858.164 979.501,907.559 1038.2,873.61 1038.11,824.238 "/>
  <polygon class="fil14" points="978.42,675.649 978.543,724.978 1037.34,691.056 1037.24,641.676 "/>
  <polygon class="fil14" points="978.157,492.842 978.261,542.213 1037.02,508.31 1036.86,458.915 "/>
  <polygon class="fil15" points="956.048,401.772 679.724,241.186 681.434,853.507 957.773,1014.08 "/>
  <path class="fil16" d="M681.386 837.258l260.419 151.466c7.64157,4.45414 13.8299,0.892426 13.8299,-7.94659l0 -513.24c0,-8.83902 -6.18838,-19.6041 -13.8246,-24.0489l-261.951 -152.424 1.52645 546.193z"/>
  <polygon class="fil17" points="1057.61,343.138 781.262,182.533 679.724,241.186 956.048,401.772 "/>
  <polygon class="fil15" points="1057.61,343.138 781.262,182.533 679.724,241.186 956.048,401.772 "/>
  <polygon class="fil17" points="768.392,189.987 1031.56,343.082 956.048,386.651 692.913,233.54 "/>
  <polygon class="fil18" points="999.748,361.431 1002.37,359.924 740.481,206.089 736.627,208.316 "/>
  <polygon class="fil18" points="1014.2,353.091 1016.81,351.587 754.934,197.754 751.077,199.977 "/>
  <polygon class="fil18" points="1028.65,344.755 1031.56,343.082 973.171,309.118 768.392,189.987 765.526,191.64 "/>
  <polygon class="fil18" points="956.048,386.651 959.013,384.935 697.128,231.106 693.27,233.334 "/>
  <polygon class="fil18" points="970.845,378.113 973.463,376.6 711.582,222.766 707.729,224.993 "/>
  <polygon class="fil18" points="985.299,369.772 987.916,368.263 726.032,214.43 722.173,216.653 "/>
  <polygon class="fil19" points="839.708,513.132 563.369,352.522 564.981,920.735 841.314,1081.33 "/>
  <polygon class="fil20" points="830.507,518.428 554.167,357.814 555.779,926.031 832.114,1086.62 "/>
  <polygon class="fil19" points="941.266,454.498 664.922,293.917 563.369,352.522 839.708,513.132 "/>
  <polygon class="fil17" points="912.903,453.879 837.401,497.452 575.915,345.309 651.361,301.741 "/>
  <polygon class="fil21" points="839.708,513.132 841.314,1081.33 942.872,1022.72 941.266,454.498 "/>
  <polygon class="fil22" points="723.208,580.36 446.869,419.783 448.456,987.972 724.81,1148.61 "/>
  <polygon class="fil22" points="824.761,521.74 548.407,361.154 446.869,419.783 723.208,580.36 "/>
  <polygon class="fil17" points="538.017,370.665 799.504,522.806 724.063,566.399 462.515,414.243 "/>
  <polygon class="fil18" points="478.407,405.07 474.554,407.298 736.049,559.473 738.676,557.954 "/>
  <polygon class="fil18" points="536.204,371.713 532.346,373.935 793.819,526.087 796.44,524.574 "/>
  <polygon class="fil18" points="463.958,413.411 462.515,414.243 724.063,566.399 724.241,566.301 "/>
  <polygon class="fil18" points="764.933,542.782 767.56,541.265 507.3,388.389 503.452,390.616 "/>
  <polygon class="fil18" points="779.373,534.432 782,532.918 521.755,380.054 517.896,382.276 "/>
  <polygon class="fil18" points="750.489,551.127 753.116,549.609 492.856,396.73 488.999,398.957 "/>
  <polygon class="fil23" points="723.208,580.36 724.81,1148.61 826.367,1089.95 824.761,521.74 "/>
  <polygon class="fil24" points="1007.8,827.612 827.218,1152.8 543.605,837.799 724.18,512.634 "/>
  <polygon class="fil25" points="654.406,554.35 661.726,549.962 667.266,556.277 729.762,518.779 724.18,512.634 731.359,508.18 1014.99,823.167 938.033,869.334 "/>
  <polygon class="fil17" points="667.266,556.277 939.606,858.738 1002.12,821.231 729.762,518.779 "/>
  <polygon class="fil18" points="724.993,521.642 997.46,824.027 1002.12,821.231 729.654,518.841 "/>
  <polygon class="fil18" points="671.932,553.482 667.266,556.277 939.606,858.738 943.573,855.171 "/>
  <polygon class="fil18" points="677.101,550.375 949.78,852.634 952.111,851.239 954.084,849.447 681.758,547.584 "/>
  <polygon class="fil18" points="987.546,829.975 986.254,821.616 718.927,525.284 714.603,527.877 987.282,830.135 "/>
  <polygon class="fil18" points="689.601,542.88 962.279,845.129 964.61,843.735 966.588,841.948 694.257,540.084 "/>
  <polygon class="fil18" points="702.1,535.376 974.779,837.635 977.099,836.244 979.088,834.449 706.76,532.58 "/>
  <polygon class="fil24" points="938.033,869.334 757.449,1194.51 473.83,879.517 654.406,554.35 "/>
  <polygon class="fil17" points="620.174,1042.05 620.174,615.995 473.83,879.517 "/>
  <polygon class="fil26" points="700.6,1044.89 689.567,1064.75 749.019,1130.78 760.052,1110.91 "/>
  <path class="fil13" d="M719.518 760.136c38.9458,22.4745 70.3951,76.9778 70.2686,121.698 -0.12787,44.7385 -31.789,62.7829 -70.7241,40.303 -38.9165,-22.4705 -70.3712,-76.9498 -70.2446,-121.688 0.12787,-44.7199 31.7837,-62.7869 70.7002,-40.3124z"/>
  <polygon class="fil17" points="938.033,869.334 1014.99,823.167 834.403,1148.35 757.449,1194.51 "/>
  <polygon class="fil27" points="515.862,566.879 239.533,405.737 240.909,1108.18 517.258,1268.78 "/>
  <polygon class="fil26" points="462.915,1237.19 517.258,1268.78 515.862,566.879 461.824,535.367 "/>
  <polygon class="fil28" points="507.207,1262.94 240.909,1108.18 239.96,623.425 462.162,752.726 462.915,1237.19 "/>
  <path class="fil29" d="M515.21 1267.59l-8.00253 -4.65127 -44.2923 -25.7458 -0.752569 -484.464 39.2175 22.8181c7.64024,4.44482 13.8299,15.2099 13.8299,24.0489l0 467.994z"/>
  <polygon class="fil14" points="515.647,706.788 515.862,787.445 604.756,736.133 604.488,655.481 "/>
  <polygon class="fil30" points="606.105,515.039 515.214,566.314 515.214,1268.78 606.105,1217.47 "/>
  <polygon class="fil30" points="606.105,515.039 327.768,354.449 239.533,405.737 515.214,566.314 "/>
  <polygon class="fil17" points="513.033,556.268 247.887,400.554 323.323,357 588.47,512.69 "/>
  <polygon class="fil18" points="294.731,373.817 290.868,376.05 556.959,530.894 559.567,529.385 "/>
  <polygon class="fil18" points="309.053,365.411 305.195,367.638 571.403,522.548 574.017,521.04 "/>
  <polygon class="fil18" points="280.403,382.233 276.542,384.461 542.51,539.239 545.127,537.731 "/>
  <polygon class="fil18" points="530.678,546.076 266.076,390.64 262.214,392.871 528.066,547.584 "/>
  <polygon class="fil18" points="506.925,464.808 323.351,357.015 319.518,359.227 585.849,514.203 588.457,512.699 "/>
  <polygon class="fil18" points="516.238,554.417 251.749,399.056 248.517,400.921 384.123,480.558 513.033,556.268 "/>
  <polygon class="fil21" points="413.886,845.787 137.542,685.728 138.937,1167.08 415.277,1327.63 "/>
  <polygon class="fil31" points="504.134,795.011 413.886,845.787 415.277,1327.63 504.134,1276.33 "/>
  <polygon class="fil21" points="504.134,795.011 225.803,633.856 136.945,685.188 413.886,845.787 "/>
  <polygon class="fil17" points="408.627,836.939 143.551,681.245 218.984,637.644 484.131,793.362 "/>
  <path class="fil32" d="M138.937 1167.08l269.511 156.597 0 -389.575c0,-8.83369 -6.19237,-19.5987 -13.8286,-24.0436l-256.862 -149.468 1.1788 406.49z"/>
  <polygon class="fil26" points="393.248,1342.5 393.248,926.815 302.7,978.147 302.7,1393.8 "/>
  <polygon class="fil30" points="393.248,926.815 114.917,766.244 26.6596,817.515 302.7,978.147 "/>
  <polygon class="fil17" points="302.7,967.654 35.083,811.923 110.58,768.354 375.665,924.062 "/>
  <polygon class="fil18" points="301.468,967.654 304.035,966.122 38.9471,810.41 35.083,812.641 "/>
  <polygon class="fil18" points="373.1,925.59 375.665,924.062 110.58,768.354 106.717,770.581 "/>
  <polygon class="fil18" points="358.773,934.005 361.338,932.478 96.2515,776.765 92.3901,778.992 "/>
  <polygon class="fil18" points="344.45,942.417 347.015,940.884 81.9274,785.171 78.0633,787.404 "/>
  <polygon class="fil18" points="330.118,950.832 332.689,949.301 67.5993,793.587 63.7352,795.814 "/>
  <polygon class="fil18" points="315.796,959.248 318.362,957.716 53.2725,801.993 49.4111,804.225 "/>
  <polygon class="fil30" points="302.7,1393.8 302.7,978.147 26.6596,817.515 26.6596,1233.25 "/>
  <path class="fil2" d="M1022.29 83.2074c-0.122542,-46.6313 -33.4047,-65.4135 -74.0088,-41.984l-821.193 474.121c-40.7612,23.5281 -73.6545,80.4795 -73.516,127.168l2.10852 745.504 62.6337 -21.8311 -2.18445 -773.768 843.199 -486.847 0.24908 86.2111 63.0213 0 -0.309019 -108.574z"/>
  <polygon class="fil1" points="55.6754,1388.02 2.11918,1356.88 0.00133198,611.377 53.5669,642.512 "/>
  <polygon class="fil3" points="127.083,515.344 73.5213,484.191 894.737,10.1071 948.276,41.2234 "/>
  <path class="fil33" d="M972.457 899.755l6.97824 -12.5646 0.0226437 7.67753c-0.624698,0.88843 -1.23475,1.52645 -1.81815,1.86477l-5.18273 3.02226z"/>
  <path class="fil34" d="M979.458 894.868l-0.0226437 -7.67753 9.43574 -16.9921c-2.89972,10.0751 -6.35354,20.3327 -9.4131,24.6696z"/>
  <path class="fil35" d="M938.033 869.334l-23.7772 -26.4078 -3.05956 -3.50977c-3.61766,-3.36458 -4.85373,-9.40244 -2.3909,-14.8862l30.8007 34.2079 36.7413 -22.0429 0.751237 -0.451541 0.00532792 0 3.4072 -2.04858 7.17005 5.35189 -49.6482 29.7871z"/>
  <path class="fil36" d="M939.606 858.738l3.96664 -3.56704 -31.6758 -35.1802c1.33864,-1.39591 3.01693,-2.67462 5.05087,-3.74952l32.832 36.3923 2.33096 -1.39458 1.97266 -1.79151 -29.6352 -32.8546 14.4959 2.66929 23.335 25.867 2.33096 -1.39458 1.97799 -1.78618 -21.3663 -23.6826c1.12286,-0.135862 2.28435,-0.202461 3.45782,-0.202461 3.28067,0 6.67721,0.516808 9.79271,1.49981l16.3061 18.0723 1.56907 -0.940378 -36.7413 22.0429zm37.4979 -22.4945l1.98332 -1.79418 -3.64163 -4.0319 5.06552 3.77749 -3.4072 2.04858z"/>
  <path class="fil37" d="M939.606 858.738l-30.8007 -34.2079c0.708613,-1.58905 1.72891,-3.12482 3.09152,-4.53939l31.6758 35.1802 -3.96664 3.56704z"/>
  <path class="fil37" d="M949.78 852.634l-32.832 -36.3923c0.488837,-0.258404 1.00165,-0.507484 1.53178,-0.743245l5.9686 1.09489 29.6352 32.8546 -1.97266 1.79151 -2.33096 1.39458z"/>
  <path class="fil37" d="M962.279 845.129l-23.335 -25.867 1.14683 0.211785c1.56907,-0.592731 3.30731,-0.992325 5.13079,-1.20811l21.3663 23.6826 -1.97799 1.78618 -2.33096 1.39458z"/>
  <path class="fil37" d="M974.779 837.635l-16.3061 -18.0723c2.68394,0.845807 5.16009,2.03393 7.16205,3.52841l9.81136 7.32589 3.64163 4.0319 -1.98332 1.79418 -0.00532792 0 -0.751237 0.451541 -1.56907 0.940378z"/>
  <polygon class="fil38" points="937.732,869.879 914.256,842.926 938.033,869.334 "/>
  <path class="fil36" d="M934.396 917.521c-5.16409,0 -9.69814,-1.62502 -10.3561,-5.84473 -1.55575,-9.90593 13.6928,-41.7975 13.6928,-41.7975l0 0 0.301027 -0.54478 49.6482 -29.7871 7.58429 5.66225c0,0 -2.75853,12.3488 -6.39483,24.9893l-9.43574 16.9921 -6.97824 12.5646 -24.928 14.5199c-3.32595,1.93137 -8.48604,3.24603 -13.1333,3.24603z"/>
  <path class="fil39" d="M926.135 823.67l136.491 101.168 -0.122542 -44.5174 -136.491 -79.3181c-6.74248,-3.88139 -10.135,-8.93758 -10.159,-13.9658l0.122542 22.673c0.0239756,5.0229 3.42052,10.0844 10.159,13.9605z"/>
  <path class="fil39" d="M1162.94 875.574c1.85678,1.22143 36.8492,46.3169 47.1121,50.9922 4.31295,3.94799 22.6903,21.1731 22.6996,26.5171l-0.12121 -44.5134c-0.00932386,-5.34257 -18.4013,-22.5637 -22.7009,-26.521 -10.2669,-4.66992 -45.27,-27.9303 -47.1068,-29.1477 -11.5922,-5.5437 -15.5389,-11.3005 -15.5589,-16.5205l0.122542 22.6676c0,5.23868 3.97996,10.9955 15.5535,16.5259z"/>
  <path class="fil39" d="M1018.01 915.952l-44.9596 -26.1308c-6.68121,-3.88538 -10.0458,-8.97488 -10.0551,-14.0257l0.12121 44.5268c0.0186477,5.04154 3.3739,10.131 10.0564,14.0164l44.973 26.1308 -0.135862 -44.5174z"/>
  <path class="fil39" d="M933.451 920.045l0.131866 44.5268c0.0133198,5.02822 3.36858,10.1124 10.0977,14.0124l30.0548 17.4849 -0.122542 -44.5321 -30.0774 -17.4609c-6.71051,-3.90004 -10.0751,-8.98953 -10.0844,-14.0311z"/>
  <path class="fil39" d="M1164.3 1114.31c-54.3488,-19.8252 -112.375,-42.6194 -134.074,-56.5146 -44.6266,-28.7108 -71.6778,-53.6708 -100.253,-71.2636l-12.4087 -7.20867c-6.70119,-3.89071 -10.0698,-8.9842 -10.0897,-14.0404l0.12787 88.2183c0.00932386,5.0562 3.38722,10.1497 10.0924,14.0311 0,0 9.70347,3.95598 32.9865,18.2361 23.2737,14.2802 34.2559,5.248 34.2559,-4.91101l0 -10.2429c0,0 31.2855,28.0288 69.3562,47.605 38.084,19.5761 82.9597,30.6981 110.128,40.6121l209.333 -120.898 -0.117214 -44.5174 -209.337 120.894z"/>
  <path class="fil40" d="M925.543 773.49c-13.12,7.56564 -12.8656,19.8438 0.468857,27.512l136.491 79.3181 -5.03755 3.94266 -37.2715 -21.658c-13.2226,-7.69218 -34.5702,-7.88932 -47.6236,-0.366294 -12.9602,7.48972 -12.7444,19.8811 0.483509,27.5826l44.9596 26.1308 -4.88304 3.94666 -22.4465 -13.0441c-13.2932,-7.72948 -34.5742,-7.89331 -47.605,-0.366294 -12.9735,7.48972 -12.827,19.8478 0.456869,27.588l30.0774 17.4609 -4.19174 3.39255 -4.76982 -2.7865c-13.3158,-7.72948 -34.5795,-7.88532 -47.5623,-0.40359 -13.0294,7.53634 -12.7577,19.8998 0.475517,27.5866l12.4087 7.20867c0.0572751,0.0426234 38.1186,31.2949 100.253,71.2636 21.6993,13.8952 79.7256,36.6894 134.074,56.5146l209.337 -120.894 6.93562 4.04522c4.0319,-24.7069 -28.3818,-68.1667 -48.2297,-89.7581 -10.0937,-10.9622 -11.1367,-23.0432 -50.0864,-41.4685 -28.7148,-13.5422 -43.0229,-16.117 -56.1043,-25.0972l-29.3688 -19.7306c-12.3248,-8.37815 -23.3296,-9.40644 -35.5985,-2.31631 -0.756564,0.427565 -1.50381,0.892426 -2.27502,1.39059 -9.21863,5.95795 -22.5731,19.7692 3.91469,32.4177 1.8368,1.21743 36.8399,24.4778 47.1068,29.1477 4.75517,4.37023 26.8167,25.0359 22.0336,27.8131 -0.771216,0.436889 -2.22307,0.42357 -4.53539,-0.193137 -38.3051,-10.3042 -98.9261,-45.5417 -102.126,-47.3932l-152.213 -88.4568c-13.3158,-7.73481 -34.5888,-7.8094 -47.5477,-0.328999z"/>
  <path class="fil41" d="M943.088 802.459c1.2454,0.065267 2.55207,0.102562 3.88672,0.102562l0.00932386 0c14.6891,0 37.4926,-4.3276 41.318,-15.7227l-17.9644 -10.4361c-11.0195,-6.39483 -31.2709,-6.55068 -42.0692,-0.310351 -4.41285,2.54675 -6.96359,5.74749 -6.95427,8.78707 0,3.16212 2.70658,6.53602 7.42845,9.25726l14.3454 8.32221z"/>
  <path class="fil42" d="M928.282 1019.71l0 34.7953c0,0 1.36262,-8.87631 15.6907,-4.10649l37.5352 22.6157c0,0 4.34625,3.09152 3.42985,7.84669 -0.916402,4.7565 -0.135862,1.35862 -0.135862,1.35862l0.135862 -11.6015 -40.965 -24.9893c0,0 -13.3025,-3.75485 -15.6907,-25.919z"/>
  <path class="fil39" d="M1071.25 880.861c33.803,-5.06552 37.5152,19.7732 37.5152,19.7732 -10.4787,-18.9607 -37.5152,-19.7732 -37.5152,-19.7732z"/>
  <path class="fil39" d="M1099.94 856.623c33.8096,-5.07884 37.5165,19.7599 37.5165,19.7599 -10.484,-18.9554 -37.5165,-19.7599 -37.5165,-19.7599z"/>
  <path class="fil39" d="M1021.22 916.595c33.8003,-5.08417 37.5072,19.7599 37.5072,19.7599 -10.4827,-18.9554 -37.5072,-19.7599 -37.5072,-19.7599z"/>
  <path class="fil39" d="M976.564 950.926c33.795,-5.07884 37.5032,19.7786 37.5032,19.7786 -10.488,-18.9741 -37.5032,-19.7786 -37.5032,-19.7786z"/>
  <path class="fil14" d="M1367.89 935.894c-21.1265,-8.09577 -50.8244,-3.64696 -83.9427,15.2392 -65.8504,37.5672 -120.391,118.008 -121.871,179.607 -0.719269,30.5996 11.776,50.8004 32.6109,58.7923l149.571 79.9907c-20.8442,-7.99321 -33.3528,-28.2033 -32.6002,-58.7883 1.44653,-61.6134 55.9871,-142.045 121.848,-179.608 33.1263,-18.8888 62.8242,-23.3389 83.9693,-15.2525l-149.585 -79.9801z"/>
  <path class="fil43" d="M1433.51 1031.13c-65.8611,37.5632 -120.402,117.995 -121.848,179.608 -1.48516,61.5881 50.6725,81.0656 116.495,43.4878 65.8651,-37.5632 120.495,-117.937 121.965,-179.542 1.47184,-61.5974 -50.7804,-81.1176 -116.612,-43.5544z"/>
  <polygon class="fil18" points="878.305,473.844 880.931,472.327 620.681,319.455 616.828,321.684 "/>
  <polygon class="fil18" points="892.758,465.503 895.381,463.99 635.125,311.116 631.273,313.338 "/>
  <polygon class="fil18" points="649.575,302.775 645.717,304.997 907.207,457.162 909.83,455.649 "/>
  <polygon class="fil18" points="863.855,482.185 866.482,480.666 606.241,327.796 602.384,330.023 "/>
  <polygon class="fil18" points="837.401,497.452 837.583,497.343 577.348,344.487 575.915,345.309 "/>
  <polygon class="fil18" points="849.411,490.526 852.038,489.007 591.792,336.142 587.944,338.364 "/>
  <polygon class="fil18" points="411.889,835.059 147.41,679.704 144.139,681.593 270.268,755.672 408.627,836.939 "/>
  <polygon class="fil18" points="484.131,793.362 219.012,637.663 215.183,639.876 481.523,794.86 469.681,801.693 204.719,646.055 200.856,648.287 467.068,803.201 455.232,810.038 190.391,654.466 186.528,656.693 452.624,811.542 440.783,818.379 176.064,662.877 172.201,665.109 438.175,819.883 426.333,826.72 161.737,671.288 157.874,673.516 423.725,828.222 "/>
  <polygon class="fil44" points="781.126,1384.25 781.126,1384.25 1015.44,1249.41 1015.44,1249.41 "/>
  <polygon class="fil45" points="881.232,1404.49 847.409,1384.84 814.775,1403.67 781.126,1384.25 1015.44,1249.41 1048.72,1268.62 992.418,1301.14 992.455,1315.4 1013.49,1327.63 985.756,1343.75 952.299,1324.29 887.454,1361.76 887.491,1376.01 908.858,1388.43 "/>
  <polygon class="fil1" points="1013.49,1327.63 992.455,1315.4 992.418,1301.14 1025.74,1320.51 "/>
  <polygon class="fil1" points="908.858,1388.43 887.491,1376.01 887.454,1361.76 921.107,1381.31 "/>
  <polygon class="fil46" points="1025.74,1320.51 992.418,1301.14 1048.72,1268.62 1081.98,1287.82 "/>
  <polygon class="fil46" points="921.107,1381.31 887.454,1361.76 952.299,1324.29 985.756,1343.75 "/>
  <polygon class="fil46" points="848.815,1423.33 814.775,1403.67 847.409,1384.84 881.232,1404.49 "/>
 </g>
</svg>
