<?xml version="1.0" encoding="UTF-8"?>
<!DOCTYPE svg PUBLIC "-//W3C//DTD SVG 1.1//EN" "http://www.w3.org/Graphics/SVG/1.1/DTD/svg11.dtd">
<!-- Creator: CorelDRAW -->
<svg xmlns="http://www.w3.org/2000/svg" xml:space="preserve" width="1675px" height="1237px" style="shape-rendering:geometricPrecision; text-rendering:geometricPrecision; image-rendering:optimizeQuality; fill-rule:evenodd; clip-rule:evenodd"
viewBox="0 0 1865.11 1377.43"
 xmlns:xlink="http://www.w3.org/1999/xlink">
 <defs>
  <style type="text/css">
   <![CDATA[
    .fil6 {fill:#2E3155;fill-rule:nonzero}
    .fil2 {fill:#353976;fill-rule:nonzero}
    .fil3 {fill:#374291;fill-rule:nonzero}
    .fil0 {fill:#706EB0;fill-rule:nonzero}
    .fil1 {fill:#D6CAE4;fill-rule:nonzero}
    .fil5 {fill:#EBA620;fill-rule:nonzero}
    .fil10 {fill:#F3F4FA;fill-rule:nonzero}
    .fil9 {fill:#F9E7BC;fill-rule:nonzero}
    .fil4 {fill:#FDC744;fill-rule:nonzero}
    .fil8 {fill:#FEFEFE;fill-rule:nonzero}
    .fil7 {fill:#FFF5DD;fill-rule:nonzero}
   ]]>
  </style>
 </defs>
 <g id="Layer_x0020_1">
  <metadata id="CorelCorpID_0Corel-Layer"/>
  <path class="fil0" d="M1350.03 1085.6l-982.44 0c-9.21973,0 -16.7639,-7.54413 -16.7639,-16.7639l0 -630.37c0,-9.21973 7.54413,-16.7639 16.7639,-16.7639l982.44 0c9.21973,0 16.7639,7.54413 16.7639,16.7639l0 630.37c0,9.21973 -7.54413,16.7639 -16.7639,16.7639z"/>
  <polygon class="fil1" points="375.972,1021.23 1341.64,1021.23 1341.64,469.987 375.972,469.987 "/>
  <path class="fil1" d="M864.879 443.869c0,3.35514 -2.71857,6.06845 -6.0724,6.06845 -3.35119,0 -6.06977,-2.71331 -6.06977,-6.06845 0,-3.34988 2.71857,-6.06845 6.06977,-6.06845 3.35382,0 6.0724,2.71857 6.0724,6.06845z"/>
  <path class="fil1" d="M1503.53 1302.22l-124.793 -198.607c-7.04303,-11.2097 -19.3522,-18.012 -32.5847,-18.012l-974.683 0c-13.2377,0 -25.5469,6.80235 -32.586,18.012l-124.793 198.607c-3.53006,5.6239 -4.78742,12.3092 -3.68395,18.7591l1296.8 0c1.10873,-6.44987 -0.14862,-13.1352 -3.68,-18.7591z"/>
  <path class="fil0" d="M210.404 1320.98c0.227534,1.33232 0.519514,2.65939 0.950908,3.95751l1.96758 5.89747c3.64712,10.9414 13.8783,18.3132 25.4036,18.3132l1240.16 0c11.5253,0 21.7565,-7.37184 25.4036,-18.3132l1.96758 -5.89747c0.431394,-1.29813 0.723374,-2.62519 0.950908,-3.95751l-1296.8 0z"/>
  <polygon class="fil0" points="418.427,1183.61 424.5,1170.25 394.433,1170.25 387.998,1183.61 "/>
  <polygon class="fil0" points="471.399,1145.56 474.383,1138.59 477.115,1132.19 448.02,1132.19 441.941,1145.56 "/>
  <polygon class="fil0" points="430.718,1170.25 424.644,1183.61 455.132,1183.61 460.848,1170.25 "/>
  <polygon class="fil0" points="427.075,1164.59 433.154,1151.21 403.598,1151.21 397.157,1164.59 "/>
  <polygon class="fil0" points="1039.32,1132.19 1042.69,1145.56 1068.55,1145.56 1064.82,1132.19 "/>
  <polygon class="fil0" points="575.369,1170.25 571.281,1183.61 602.025,1183.61 605.931,1170.25 "/>
  <polygon class="fil0" points="539.409,1170.25 534.598,1183.61 565.365,1183.61 569.448,1170.25 "/>
  <polygon class="fil0" points="503.289,1170.25 497.939,1183.61 528.585,1183.61 533.396,1170.25 "/>
  <polygon class="fil0" points="467.005,1170.25 461.289,1183.61 491.838,1183.61 497.192,1170.25 "/>
  <polygon class="fil0" points="1070.69,1132.19 1074.42,1145.56 1098.58,1145.56 1094.67,1132.19 "/>
  <polygon class="fil0" points="679.343,1151.21 675.978,1164.59 700.292,1164.59 703.293,1151.21 "/>
  <polygon class="fil0" points="943.117,1132.19 945.398,1145.56 973.451,1145.56 970.811,1132.19 "/>
  <polygon class="fil0" points="674.934,1145.56 678.293,1132.19 652.798,1132.19 649.068,1145.56 "/>
  <polygon class="fil0" points="643.194,1145.56 646.919,1132.19 622.945,1132.19 619.038,1145.56 "/>
  <polygon class="fil0" points="704.565,1145.56 707.566,1132.19 684.126,1132.19 680.767,1145.56 "/>
  <polygon class="fil0" points="1100.56,1132.19 1104.47,1145.56 1134.7,1145.56 1130.61,1132.19 "/>
  <polygon class="fil0" points="553.106,1132.19 548.295,1145.56 576.997,1145.56 579.108,1138.66 581.085,1132.19 "/>
  <polygon class="fil0" points="542.278,1145.56 547.089,1132.19 518.53,1132.19 513.176,1145.56 "/>
  <polygon class="fil0" points="483.273,1132.19 477.552,1145.56 507.08,1145.56 509.863,1138.6 512.434,1132.19 "/>
  <polygon class="fil0" points="1010.05,1132.19 1013.05,1145.56 1036.85,1145.56 1033.49,1132.19 "/>
  <polygon class="fil0" points="976.579,1132.19 979.223,1145.56 1007.25,1145.56 1004.25,1132.19 "/>
  <polygon class="fil0" points="613.146,1145.56 617.052,1132.19 587.001,1132.19 582.913,1145.56 "/>
  <polygon class="fil0" points="648.497,1126.53 651.968,1114.08 628.24,1114.08 624.597,1126.53 "/>
  <polygon class="fil0" points="618.704,1126.53 622.342,1114.08 592.541,1114.08 588.732,1126.53 "/>
  <polygon class="fil0" points="910.081,1132.19 911.639,1145.56 939.655,1145.56 937.381,1132.19 "/>
  <polygon class="fil0" points="742.151,1126.53 744.611,1114.08 717.436,1114.08 714.642,1126.53 "/>
  <polygon class="fil0" points="708.838,1126.53 711.636,1114.08 688.682,1114.08 685.555,1126.53 "/>
  <polygon class="fil0" points="679.718,1126.53 682.851,1114.08 657.842,1114.08 654.371,1126.53 "/>
  <polygon class="fil0" points="1240.5,1132.19 1246.22,1145.56 1275.68,1145.56 1269.6,1132.19 "/>
  <polygon class="fil0" points="479.538,1126.53 484.859,1114.08 456.245,1114.08 450.59,1126.53 "/>
  <polygon class="fil0" points="514.698,1126.53 519.681,1114.08 491.012,1114.08 485.69,1126.53 "/>
  <polygon class="fil0" points="582.816,1126.53 586.619,1114.08 559.617,1114.08 555.14,1126.53 "/>
  <polygon class="fil0" points="1275.81,1132.19 1281.89,1145.56 1311.3,1145.56 1304.85,1132.19 "/>
  <polygon class="fil0" points="549.126,1126.53 553.603,1114.08 525.778,1114.08 520.795,1126.53 "/>
  <polygon class="fil0" points="1136.53,1132.19 1140.62,1145.56 1169.33,1145.56 1164.51,1132.19 "/>
  <polygon class="fil0" points="739.288,1170.25 736.645,1183.61 765.731,1183.61 768.009,1170.25 "/>
  <polygon class="fil0" points="611.823,1170.25 607.922,1183.61 632.592,1183.61 636.313,1170.25 "/>
  <polygon class="fil0" points="704.824,1170.25 701.817,1183.61 730.877,1183.61 733.517,1170.25 "/>
  <polygon class="fil0" points="642.186,1170.25 638.466,1183.61 665.353,1183.61 668.717,1170.25 "/>
  <polygon class="fil0" points="674.554,1170.25 671.19,1183.61 696.017,1183.61 699.02,1170.25 "/>
  <polygon class="fil0" points="780.235,1132.19 777.957,1145.56 805.977,1145.56 807.537,1132.19 "/>
  <polygon class="fil0" points="775.461,1126.53 777.581,1114.08 750.378,1114.08 747.919,1126.53 "/>
  <polygon class="fil0" points="743.042,1151.21 740.402,1164.59 768.974,1164.59 771.252,1151.21 "/>
  <polygon class="fil0" points="1205.19,1132.19 1210.54,1145.56 1240.06,1145.56 1234.34,1132.19 "/>
  <polygon class="fil0" points="803.763,1164.59 805.318,1151.21 776.992,1151.21 774.714,1164.59 "/>
  <polygon class="fil0" points="1170.52,1132.19 1175.34,1145.56 1204.44,1145.56 1199.09,1132.19 "/>
  <polygon class="fil0" points="435.724,1145.56 441.801,1132.19 412.761,1132.19 406.322,1145.56 "/>
  <polygon class="fil0" points="1079.16,1183.61 1075.43,1170.25 1048.9,1170.25 1052.26,1183.61 "/>
  <polygon class="fil0" points="647.489,1151.21 643.769,1164.59 670.142,1164.59 673.506,1151.21 "/>
  <polygon class="fil0" points="1128.88,1126.53 1125.08,1114.08 1095.27,1114.08 1098.91,1126.53 "/>
  <polygon class="fil0" points="1196.82,1126.53 1191.84,1114.08 1164.01,1114.08 1168.49,1126.53 "/>
  <polygon class="fil0" points="1162.48,1126.53 1158,1114.08 1130.99,1114.08 1134.8,1126.53 "/>
  <polygon class="fil0" points="1002.98,1126.53 1000.18,1114.08 973.01,1114.08 975.461,1126.53 "/>
  <polygon class="fil0" points="969.697,1126.53 967.243,1114.08 940.031,1114.08 942.151,1126.53 "/>
  <polygon class="fil0" points="1231.92,1126.53 1226.6,1114.08 1197.93,1114.08 1202.91,1126.53 "/>
  <polygon class="fil0" points="1063.25,1126.53 1059.78,1114.08 1034.77,1114.08 1037.9,1126.53 "/>
  <polygon class="fil0" points="1032.06,1126.53 1028.93,1114.08 1005.98,1114.08 1008.78,1126.53 "/>
  <polygon class="fil0" points="1046.43,1183.61 1043.06,1170.25 1018.6,1170.25 1021.59,1183.61 "/>
  <polygon class="fil0" points="1256.33,1183.61 1250.62,1170.25 1220.42,1170.25 1225.77,1183.61 "/>
  <polygon class="fil0" points="1183.02,1183.61 1178.21,1170.25 1148.17,1170.25 1152.26,1183.61 "/>
  <polygon class="fil0" points="1329.62,1183.61 1323.17,1170.25 1293.11,1170.25 1299.18,1183.61 "/>
  <polygon class="fil0" points="1292.98,1183.61 1286.9,1170.25 1256.77,1170.25 1262.48,1183.61 "/>
  <polygon class="fil0" points="1219.68,1183.61 1214.32,1170.25 1184.22,1170.25 1189.03,1183.61 "/>
  <polygon class="fil0" points="1015.79,1183.61 1012.8,1170.25 984.1,1170.25 986.74,1183.61 "/>
  <polygon class="fil0" points="1267.03,1126.53 1261.37,1114.08 1232.76,1114.08 1238.08,1126.53 "/>
  <polygon class="fil0" points="1317.57,1145.56 1344.7,1145.56 1337.14,1132.19 1311.13,1132.19 "/>
  <polygon class="fil0" points="1109.7,1183.61 1105.79,1170.25 1081.3,1170.25 1085.03,1183.61 "/>
  <polygon class="fil0" points="1302.13,1126.53 1296.13,1114.08 1267.58,1114.08 1273.24,1126.53 "/>
  <polygon class="fil0" points="1146.34,1183.61 1142.24,1170.25 1111.68,1170.25 1115.59,1183.61 "/>
  <polygon class="fil0" points="1333.95,1126.53 1326.91,1114.08 1302.41,1114.08 1308.41,1126.53 "/>
  <polygon class="fil0" points="1093.02,1126.53 1089.38,1114.08 1065.65,1114.08 1069.12,1126.53 "/>
  <polygon class="fil0" points="910.369,1183.61 908.814,1170.25 879.481,1170.25 880.024,1183.61 "/>
  <polygon class="fil0" points="475.14,1151.21 472.155,1158.19 469.422,1164.59 499.461,1164.59 504.811,1151.21 "/>
  <polygon class="fil0" points="942.902,1164.59 940.62,1151.21 912.294,1151.21 913.858,1164.59 "/>
  <polygon class="fil0" points="463.266,1164.59 468.982,1151.21 439.365,1151.21 436.188,1158.21 433.288,1164.59 "/>
  <polygon class="fil0" points="713.37,1132.19 710.369,1145.56 738.394,1145.56 741.033,1132.19 "/>
  <polygon class="fil0" points="746.805,1132.19 744.161,1145.56 772.217,1145.56 774.501,1132.19 "/>
  <polygon class="fil0" points="581.182,1151.21 577.095,1164.59 607.583,1164.59 611.489,1151.21 "/>
  <polygon class="fil0" points="510.907,1151.21 505.558,1164.59 535.43,1164.59 540.241,1151.21 "/>
  <polygon class="fil0" points="617.387,1151.21 613.48,1164.59 637.89,1164.59 641.616,1151.21 "/>
  <polygon class="fil0" points="878.715,1151.21 879.258,1164.59 908.155,1164.59 906.597,1151.21 "/>
  <polygon class="fil0" points="546.258,1151.21 541.447,1164.59 571.179,1164.59 575.272,1151.21 "/>
  <polygon class="fil0" points="903.728,1126.53 902.276,1114.08 877.217,1114.08 877.722,1126.53 "/>
  <polygon class="fil0" points="980.973,1183.61 978.333,1170.25 949.607,1170.25 951.885,1183.61 "/>
  <polygon class="fil0" points="846.056,1114.08 845.554,1126.53 872.058,1126.53 871.551,1114.08 "/>
  <polygon class="fil0" points="845.327,1132.19 844.789,1145.56 872.823,1145.56 872.289,1132.19 "/>
  <polygon class="fil0" points="905.947,1145.56 904.383,1132.19 877.946,1132.19 878.488,1145.56 "/>
  <polygon class="fil0" points="936.417,1126.53 934.295,1114.08 907.974,1114.08 909.427,1126.53 "/>
  <polygon class="fil0" points="844.561,1151.21 844.024,1164.59 873.594,1164.59 873.054,1151.21 "/>
  <polygon class="fil0" points="843.796,1170.25 843.253,1183.61 874.359,1183.61 873.82,1170.25 "/>
  <polygon class="fil0" points="839.894,1126.53 840.395,1114.08 815.336,1114.08 813.888,1126.53 "/>
  <polygon class="fil0" points="781.2,1126.53 808.195,1126.53 809.638,1114.08 783.321,1114.08 "/>
  <polygon class="fil0" points="977.214,1164.59 974.574,1151.21 946.364,1151.21 948.642,1164.59 "/>
  <polygon class="fil0" points="709.097,1151.21 706.096,1164.59 734.635,1164.59 737.28,1151.21 "/>
  <polygon class="fil0" points="348.203,1189.27 341.592,1200.97 373.356,1200.97 378.993,1189.27 "/>
  <polygon class="fil0" points="1104.13,1164.59 1100.23,1151.21 1076,1151.21 1079.73,1164.59 "/>
  <polygon class="fil0" points="1086.6,1189.27 1089.86,1200.97 1114.77,1200.97 1111.35,1189.27 "/>
  <polygon class="fil0" points="1041.64,1164.59 1038.27,1151.21 1014.32,1151.21 1017.32,1164.59 "/>
  <polygon class="fil0" points="837.593,1183.61 838.131,1170.25 808.803,1170.25 807.249,1183.61 "/>
  <polygon class="fil0" points="1191.07,1189.27 1195.28,1200.97 1226.62,1200.97 1221.95,1189.27 "/>
  <polygon class="fil0" points="1284.32,1164.59 1278.25,1151.21 1248.63,1151.21 1254.35,1164.59 "/>
  <polygon class="fil0" points="1228.04,1189.27 1232.72,1200.97 1263.75,1200.97 1258.75,1189.27 "/>
  <polygon class="fil0" points="773.748,1170.25 771.47,1183.61 801.555,1183.61 803.109,1170.25 "/>
  <polygon class="fil0" points="358.953,1170.25 351.399,1183.61 381.717,1183.61 388.156,1170.25 "/>
  <polygon class="fil0" points="916.72,1189.27 918.089,1200.97 949.102,1200.97 947.111,1189.27 "/>
  <polygon class="fil0" points="458.872,1189.27 453.87,1200.97 484.892,1200.97 489.573,1189.27 "/>
  <polygon class="fil0" points="837.366,1189.27 806.59,1189.27 805.23,1200.97 836.892,1200.97 "/>
  <polygon class="fil0" points="1248.19,1164.59 1242.48,1151.21 1212.81,1151.21 1218.16,1164.59 "/>
  <polygon class="fil0" points="385.276,1189.27 379.637,1200.97 410.538,1200.97 415.856,1189.27 "/>
  <polygon class="fil0" points="980.337,1151.21 982.981,1164.59 1011.52,1164.59 1008.52,1151.21 "/>
  <polygon class="fil0" points="1117.25,1189.27 1120.66,1200.97 1151.64,1200.97 1148.06,1189.27 "/>
  <polygon class="fil0" points="987.858,1189.27 990.163,1200.97 1019.69,1200.97 1017.07,1189.27 "/>
  <polygon class="fil0" points="1140.52,1164.59 1136.43,1151.21 1106.12,1151.21 1110.03,1164.59 "/>
  <polygon class="fil0" points="1176.17,1164.59 1171.36,1151.21 1142.35,1151.21 1146.44,1164.59 "/>
  <polygon class="fil0" points="952.851,1189.27 954.846,1200.97 984.396,1200.97 982.091,1189.27 "/>
  <polygon class="fil0" points="1153.98,1189.27 1157.56,1200.97 1189.26,1200.97 1185.05,1189.27 "/>
  <polygon class="fil0" points="380.468,1132.19 372.91,1145.56 400.043,1145.56 406.484,1132.19 "/>
  <polygon class="fil0" points="1301.76,1189.27 1307.08,1200.97 1337.97,1200.97 1332.34,1189.27 "/>
  <polygon class="fil0" points="390.7,1114.08 383.664,1126.53 409.207,1126.53 415.206,1114.08 "/>
  <polygon class="fil0" points="1212.05,1164.59 1206.71,1151.21 1177.38,1151.21 1182.19,1164.59 "/>
  <polygon class="fil0" points="762.775,1200.97 764.765,1189.27 495.67,1189.27 490.988,1200.97 "/>
  <polygon class="fil0" points="1022.87,1189.27 1025.49,1200.97 1050.79,1200.97 1047.85,1189.27 "/>
  <polygon class="fil0" points="811.674,1145.56 839.128,1145.56 839.666,1132.19 813.234,1132.19 "/>
  <polygon class="fil0" points="1358.66,1170.25 1329.46,1170.25 1344.26,1200.97 1376.03,1200.97 "/>
  <polygon class="fil0" points="1326.74,1164.59 1355.46,1164.59 1347.9,1151.21 1320.3,1151.21 "/>
  <polygon class="fil0" points="1320.45,1164.59 1314.01,1151.21 1284.46,1151.21 1290.54,1164.59 "/>
  <polygon class="fil0" points="799.532,1200.97 800.892,1189.27 770.505,1189.27 768.51,1200.97 "/>
  <polygon class="fil0" points="843.031,1189.27 842.553,1200.97 912.386,1200.97 911.022,1189.27 "/>
  <polygon class="fil0" points="1264.9,1189.27 1269.9,1200.97 1300.87,1200.97 1295.54,1189.27 "/>
  <polygon class="fil0" points="1073.85,1164.59 1070.12,1151.21 1044.11,1151.21 1047.48,1164.59 "/>
  <polygon class="fil0" points="1053.68,1189.27 1056.63,1200.97 1083.99,1200.97 1080.73,1189.27 "/>
  <polygon class="fil0" points="369.709,1151.21 362.155,1164.59 390.88,1164.59 397.32,1151.21 "/>
  <polygon class="fil0" points="444.377,1126.53 450.033,1114.08 421.484,1114.08 415.489,1126.53 "/>
  <polygon class="fil0" points="422.069,1189.27 416.752,1200.97 447.713,1200.97 452.715,1189.27 "/>
  <polygon class="fil0" points="838.359,1164.59 838.901,1151.21 811.015,1151.21 809.462,1164.59 "/>
  <polygon class="fil0" points="943.868,1170.25 914.506,1170.25 916.061,1183.61 946.146,1183.61 "/>
  <path class="fil0" d="M704.068 1222.15c-0.227534,0 -0.416926,0.144675 -0.486633,0.363002l-22.5364 73.2528c-0.064446,0.199914 0.0052609,0.35248 0.0789135,0.445861 0.0697069,0.0973267 0.194653,0.20386 0.409035,0.20386l354.547 0c0.214382,0 0.343274,-0.106533 0.412981,-0.20386 0.0697069,-0.093381 0.144675,-0.245947 0.0789135,-0.445861l-22.5403 -73.2581c-0.064446,-0.209121 -0.26436,-0.357741 -0.486633,-0.357741l-309.476 0zm332.012 78.4598l-354.547 0c-1.50856,0 -2.88692,-0.695754 -3.78653,-1.90708 -0.890408,-1.21132 -1.15082,-2.73304 -0.704961,-4.17584l22.5351 -73.2528c0.612895,-1.98599 2.42265,-3.31831 4.49149,-3.31831l309.476 0c2.07411,0 3.8786,1.33627 4.49149,3.31831l22.5351 73.2528c0.449807,1.4428 0.185447,2.96452 -0.704961,4.17584 -0.895668,1.21132 -2.27402,1.90708 -3.78653,1.90708z"/>
  <polygon class="fil2" points="1030.99,554.46 645.848,615.199 1016.16,800.48 1399.7,743.439 "/>
  <polygon class="fil3" points="645.848,615.199 645.848,624.014 1016.44,817.681 1399.7,751.874 1399.7,743.439 1016.16,800.48 "/>
  <path class="fil3" d="M789.097 823.652l-5.89747 39.1556c0,0 158.144,126.978 381.139,64.5447l3.41959 -30.5908c-197.114,32.9753 -321.187,-30.9144 -378.661,-73.1094z"/>
  <path class="fil4" d="M1258.64 1029.83c-20.6425,-16.3746 -35.2572,-40.5116 -42.2174,-65.9191 -0.519514,-1.87814 -3.03422,-1.20606 -3.3262,0.412981 -0.473481,-0.626047 -1.41124,-0.714167 -2.16749,-0.3196 -0.366948,-1.30339 -2.49104,-1.90182 -3.30779,-0.324861 -14.1518,27.4395 -3.21967,58.4249 6.24995,85.5672 0.741787,2.13461 3.10393,0.989049 2.35688,-1.15477 -7.41524,-21.2369 -15.3447,-45.0202 -10.8348,-67.4027 -2.51471,28.2931 6.91414,57.2689 24.183,79.7263 1.2442,1.61904 3.18285,-0.324861 1.93075,-1.96363 -15.6788,-20.3781 -23.7793,-46.2499 -22.9441,-71.9402 0.482688,10.1193 2.05044,20.2111 5.28984,29.7504 4.95971,14.6253 13.2509,28.5812 21.5473,41.5269 1.22447,1.90708 3.14996,-0.0552395 1.92944,-1.95837 -7.97553,-12.4433 -14.8568,-25.8113 -19.8349,-39.7816 -2.12935,-5.98559 -3.54059,-12.2579 -4.42705,-18.6196 4.77032,20.5728 14.7082,39.921 28.9902,55.6314 1.5033,1.65192 3.4985,0.181501 1.97152,-1.4941 -15.6499,-17.2084 -25.0642,-39.2437 -28.9481,-61.9826 5.7449,21.2961 16.3377,41.4335 30.3409,58.7301 1.40992,1.74925 2.88955,-0.152566 1.45595,-1.91628 -13.6639,-16.8835 -22.6982,-36.6264 -28.3392,-57.3991 7.59543,21.4263 17.4636,42.0977 34.8864,57.3346 1.70322,1.4941 3.57215,-0.236741 1.87025,-1.72689 -11.9712,-10.4666 -19.8586,-24.6039 -26.2848,-38.7886 6.96938,12.3973 15.3618,23.9884 25.1011,34.4602 1.53618,1.65587 2.83563,-0.978528 1.31259,-2.6173 -8.56475,-9.20921 -15.1343,-19.4127 -21.5,-30.2002 6.55114,8.78307 14.1742,16.7783 22.8047,23.6267 1.77161,1.40992 3.68789,0.152566 1.91102,-1.25736z"/>
  <path class="fil4" d="M1222.36 733.329c-8.04523,-9.6143 -18.9077,-15.9379 -30.0332,-21.329 -22.1274,-10.727 -46.705,-15.3908 -70.6881,-19.9336 -33.9026,-6.40646 -68.5759,-12.346 -96.7638,-33.7079 -1.09427,-0.829907 -2.15302,-0.416926 -2.77907,0.431394 -0.0552395,0.0512938 -0.0973267,0.111794 -0.14336,0.167034 -0.0184132,0.0328806 -0.0420872,0.0512938 -0.0605004,0.0841744 -0.677341,0.835168 -0.862788,2.03597 0.14336,2.9974 20.6569,19.7468 48.2727,29.5229 75.4624,36.3989 27.4724,6.95491 55.5104,11.72 81.8044,22.6377 0.812809,0.339328 1.62956,0.677341 2.445,1.01667 0.157827,0.064446 1.02588,0.462959 1.03508,0.459014 1.34548,0.649721 2.6778,1.32706 4.01801,1.98994 4.91894,2.44106 9.71557,4.97418 14.2163,8.13861 5.40163,3.80495 10.4034,8.45821 13.8783,14.115 3.79048,6.18419 5.10834,13.1207 4.96892,20.3123 -0.14336,7.48363 -1.53092,14.9212 -2.74619,22.2904 -1.25736,7.63225 -2.38976,15.2829 -3.56426,22.9244 -2.42659,15.8077 -4.68615,31.6206 -6.39331,47.5165 -3.75365,34.9981 -4.77953,70.6881 1.51777,105.464 0.462959,2.57916 4.79663,2.01361 4.60197,-0.627362 -2.445,-33.003 0.245947,-66.094 4.87686,-98.7905 2.30559,-16.272 5.09387,-32.4782 7.94265,-48.662 2.66859,-15.1961 6.19471,-30.5067 7.44286,-45.9066 1.13241,-13.9611 -2.10173,-27.1344 -11.182,-37.9863z"/>
  <path class="fil5" d="M1206.94 967.789c0.399829,-0.195969 0.803603,-0.372209 1.20606,-0.543188 0.251208,-0.0973267 0.236741,-0.093381 -0.0315654,0.00920658 0.11574,-0.0460329 0.23148,-0.0881201 0.35248,-0.124946 0.180186,-0.0605004 0.361687,-0.121001 0.543188,-0.172295 0.871994,-0.273567 1.77687,-0.46822 2.68174,-0.598428 0.217012,-0.0328806 0.4406,-0.0697069 0.658928,-0.0828592 -0.612895,0.0315654 0.0973267,0 0.226219,-0.0105218 0.436655,-0.0223588 0.882516,-0.0315654 1.32706,-0.0223588 0.436655,0.00920658 0.882516,0.0368263 1.32312,0.0789135 0.222273,0.0223588 0.4406,0.0460329 0.653667,0.0736526 0.130207,0.0144675 0.255154,0.0368263 0.376154,0.0565547 -0.306448,-0.0565547 -0.324861,-0.0605004 -0.0552395,-0.00920658 0.6392,0.119686 1.21001,0.152566 1.80843,-0.167034 0.501101,-0.269621 0.983789,-0.807548 1.13767,-1.35994 0.29198,-1.09953 -0.242001,-2.70016 -1.53092,-2.94216 -4.40337,-0.820701 -8.84884,-0.301187 -12.8905,1.67954 -1.09953,0.543188 -1.59142,2.11094 -0.960115,3.16969 0.668134,1.1232 1.9952,1.54013 3.17364,0.965375l0 0z"/>
  <path class="fil5" d="M1206.46 963.218c0.399829,-0.199914 0.807548,-0.370894 1.21658,-0.548449 0.245947,-0.0973267 0.23148,-0.0920658 -0.0420872,0.0144675 0.11574,-0.0460329 0.240686,-0.0881201 0.357741,-0.130207 0.180186,-0.0605004 0.361687,-0.119686 0.541873,-0.17624 0.877255,-0.26436 1.77292,-0.464275 2.68174,-0.593167 0.214382,-0.0328806 0.436655,-0.0697069 0.658928,-0.0789135 -0.61158,0.0315654 0.102588,-0.0052609 0.223588,-0.00920658 0.444546,-0.0236741 0.885147,-0.0328806 1.32706,-0.0236741 0.444546,0.00920658 0.885147,0.0328806 1.3218,0.0736526 0.222273,0.0197284 0.445861,0.0473481 0.662874,0.0749678 0.126262,0.0184132 0.251208,0.0368263 0.376154,0.0605004 -0.310393,-0.0605004 -0.328806,-0.0605004 -0.0605004,-0.0144675 0.645776,0.121001 1.21132,0.157827 1.81501,-0.167034 0.49584,-0.26436 0.983789,-0.802287 1.12715,-1.35468 0.29198,-1.10479 -0.236741,-2.70542 -1.52698,-2.9461 -4.40337,-0.822016 -8.84358,-0.301187 -12.8839,1.67954 -1.10479,0.537927 -1.59142,2.10699 -0.965375,3.17364 0.662874,1.1232 1.98994,1.54013 3.16838,0.965375l0 0z"/>
  <polygon class="fil6" points="1179.33,804.619 1181.25,789.382 1016.44,817.681 808.956,709.252 804.51,734.874 1012.29,839.478 "/>
  <path class="fil2" d="M1012.29 839.478l-207.781 -104.604 -15.4131 88.7777c57.474,42.1951 181.547,106.085 378.661,73.1094l11.5714 -92.1421 -167.039 34.8587z"/>
  <path class="fil7" d="M760.409 959.929c9.19606,24.771 -10.5599,54.958 -44.1337,67.4158 -33.5698,12.4631 -52.7313,-3.25255 -66.1545,-26.006 -19.6403,-33.291 -0.710222,-51.2425 32.8543,-63.7043 33.5738,-12.4591 68.2378,-2.47788 77.4339,22.2944z"/>
  <path class="fil8" d="M425.186 687.103c0,0 83.309,85.7895 151.574,239.776 0,0 32.3769,83.5865 53.6178,104.489 0,0 -17.19,-19.3667 9.06585,-50.3008 19.2786,-22.7166 47.4007,-36.6409 77.1787,-37.6944 16.6337,-0.580014 34.0144,2.90007 43.9075,16.8757 0,0 -111.106,-130.881 -183.696,-243.809 -29.0033,-45.1175 -42.7317,-82.3897 -48.7593,-110.888 0,0 -5.47002,-6.4354 -16.3693,-11.8173 -40.0789,-19.7981 -87.2889,6.84443 -94.2806,50.9913 -0.654982,4.1206 -1.0627,8.50951 -1.1745,13.1772 0,0 -0.574753,19.5666 8.93564,29.1993z"/>
  <path class="fil9" d="M630.378 1031.37c0,0 36.4646,43.9943 119.049,-8.79754 0,0 51.107,-34.0985 25.5969,-93.4928 0,0 -53.0049,-39.512 -94.8001,-89.5997 -41.7952,-50.0864 -93.4928,-118.278 -136.388,-208.467l-10.9361 -6.62084c0,0 7.88346,42.7698 58.93,114.84 51.0518,72.0796 145.227,192.738 145.227,192.738l14.4017 17.3531c8.26751,9.96152 11.1123,23.6451 6.54193,35.7636 -6.5051,17.2505 -25.589,37.6852 -78.8767,40.7838l-33.2765 -51.6634c0,0 -32.3125,26.7569 -15.4697,57.1623z"/>
  <path class="fil8" d="M711.037 872.973c0,0 -95.7063,-99.798 -162.803,-257.774 0,0 -12.0961,-19.2325 -19.7928,-28.109 0,0 58.3224,180.281 182.595,285.883z"/>
  <path class="fil4" d="M535.017 844.012c20.1361,-36.3199 63.6438,-60.336 105.064,-58.2579 14.7397,0.737841 14.699,-17.5938 0,-18.3316 -49.1224,-2.46868 -97.8173,22.0576 -121.643,65.0221 0,0 9.41833,24.4803 16.5784,11.5674l0 0z"/>
  <path class="fil3" d="M386.746 910.77l-187.834 0c-24.9025,0 -45.2753,-20.3689 -45.2753,-45.2753l0 -97.8212c0,-24.8985 20.3728,-45.2714 45.2753,-45.2714l187.834 0c24.9012,0 45.2753,20.3728 45.2753,45.2714l0 97.8212c0,24.9064 -20.3742,45.2753 -45.2753,45.2753z"/>
  <polygon class="fil1" points="262.956,816.585 262.956,782.088 292.831,799.34 322.706,816.585 292.831,833.837 262.956,851.082 "/>
  <polygon class="fil4" points="1232.46,1377.43 1672.55,1377.43 1672.55,1290.66 1232.46,1290.66 "/>
  <polygon class="fil5" points="1257.23,1377.43 1274.96,1377.43 1274.96,1290.66 1257.23,1290.66 "/>
  <polygon class="fil5" points="1283.83,1377.43 1301.56,1377.43 1301.56,1290.66 1283.83,1290.66 "/>
  <polygon class="fil5" points="1603.45,1377.43 1621.18,1377.43 1621.18,1290.66 1603.45,1290.66 "/>
  <polygon class="fil5" points="1630.05,1377.43 1647.78,1377.43 1647.78,1290.66 1630.05,1290.66 "/>
  <path class="fil8" d="M1714.89 1242.31l0 -13.3495c0,-18.9721 -15.4315,-34.4037 -34.4037,-34.4037l-392.232 0 0 82.1621 392.232 0c18.9721,0 34.4037,-15.4368 34.4037,-34.4089z"/>
  <path class="fil3" d="M1680.48 1180.1l-394.798 0 0 14.4583 394.798 0c18.9721,0 34.4037,15.4315 34.4037,34.4037l0 13.3495c0,18.9721 -15.4315,34.4089 -34.4037,34.4089l-394.798 0 0 14.453 394.798 0c26.9477,0 48.8619,-21.9143 48.8619,-48.8619l0 -13.3495c0,-26.9437 -21.9143,-48.8619 -48.8619,-48.8619z"/>
  <polygon class="fil10" points="1288.25,1219.52 1688.16,1219.52 1688.16,1212.95 1288.25,1212.95 "/>
  <polygon class="fil10" points="1288.25,1239.33 1688.16,1239.33 1688.16,1232.75 1288.25,1232.75 "/>
  <polygon class="fil10" points="1288.25,1259.13 1688.16,1259.13 1688.16,1252.56 1288.25,1252.56 "/>
  <path class="fil8" d="M1254.63 1136.62l0 -12.0225c0,-17.0835 13.9006,-30.9801 30.9854,-30.9801l353.179 0 0 73.9827 -353.179 0c-17.0848,0 -30.9854,-13.8967 -30.9854,-30.9801z"/>
  <path class="fil4" d="M1285.61 1080.6l355.488 0 0 13.0142 -355.488 0c-17.0848,0 -30.9854,13.8967 -30.9854,30.9801l0 12.0225c0,17.0835 13.9006,30.9801 30.9854,30.9801l355.488 0 0 13.0142 -355.488 0c-24.2672,0 -44.0048,-19.7323 -44.0048,-43.9943l0 -12.0225c0,-24.2567 19.7376,-43.9943 44.0048,-43.9943z"/>
  <polygon class="fil10" points="1278.69,1116.09 1638.79,1116.09 1638.79,1110.18 1278.69,1110.18 "/>
  <polygon class="fil10" points="1278.69,1133.93 1638.79,1133.93 1638.79,1128.01 1278.69,1128.01 "/>
  <polygon class="fil10" points="1278.69,1151.76 1638.79,1151.76 1638.79,1145.84 1278.69,1145.84 "/>
  <path class="fil4" d="M545 158.032l0 0c16.6205,0 30.0937,13.0615 30.0937,29.1796l0 4.44152c6.0553,17.0322 9.7445,39.2016 9.7445,63.5043 0,24.308 -3.68921,46.4722 -9.7445,63.5096l0 4.44152c0,16.1181 -13.4732,29.1796 -30.0937,29.1796l0 0c-22.0064,0 -39.8421,-43.4853 -39.8421,-97.1307 0,-53.6402 17.8358,-97.1254 39.8421,-97.1254z"/>
  <path class="fil5" d="M518.703 256.397c0,32.8175 2.53838,59.4179 5.66994,59.4179 3.13681,0 5.67388,-26.6004 5.67388,-59.4179 0,-32.8122 -2.53707,-59.4179 -5.67388,-59.4179 -3.13155,0 -5.66994,26.6057 -5.66994,59.4179z"/>
  <path class="fil0" d="M617.243 211.149l0 90.5007c-2.04649,22.3917 -22.6469,43.1447 -50.2548,50.6388l0 -191.782c27.6079,7.49678 48.2083,28.251 50.2548,50.6428z"/>
  <path class="fil3" d="M566.988 362.685l0 0c4.49149,0 8.1715,-3.56295 8.1715,-7.91897l0 -196.734c0,-4.35603 -3.68,-7.92423 -8.1715,-7.92423l0 0c-4.49544,0 -8.17413,3.56821 -8.17413,7.92423l0 196.734c0,4.35603 3.67869,7.91897 8.17413,7.91897z"/>
  <path class="fil4" d="M388.639 158.032l0 0c-16.6192,0 -30.0937,13.0615 -30.0937,29.1796l0 4.44152c-6.0553,17.0322 -9.74319,39.2016 -9.74319,63.5043 0,24.308 3.68789,46.4722 9.74319,63.5096l0 4.44152c0,16.1181 13.4745,29.1796 30.0937,29.1796l0 0c22.0064,0 39.8421,-43.4853 39.8421,-97.1307 0,-53.6402 -17.8358,-97.1254 -39.8421,-97.1254z"/>
  <path class="fil5" d="M414.942 256.397c0,32.8175 -2.54233,59.4179 -5.67388,59.4179 -3.13681,0 -5.6752,-26.6004 -5.6752,-59.4179 0,-32.8122 2.53838,-59.4179 5.6752,-59.4179 3.13155,0 5.67388,26.6057 5.67388,59.4179z"/>
  <path class="fil0" d="M316.397 211.149l0 90.5007c2.05044,22.3917 22.6469,43.1447 50.2587,50.6388l0 -191.782c-27.6118,7.49678 -48.2083,28.251 -50.2587,50.6428z"/>
  <path class="fil3" d="M366.656 362.685l0 0c-4.49676,0 -8.17544,-3.56295 -8.17544,-7.91897l0 -196.734c0,-4.35603 3.67869,-7.92423 8.17544,-7.92423l0 0c4.49018,0 8.17018,3.56821 8.17018,7.92423l0 196.734c0,4.35603 -3.68,7.91897 -8.17018,7.91897z"/>
  <path class="fil0" d="M567.759 38.3059c-16.3272,-13.4784 -37.7351,-22.0156 -58.0488,-26.9989 -20.8516,-5.11228 -42.6304,-6.42619 -63.9502,-3.95225 -6.4354,0.747048 -12.8432,1.7532 -19.1812,3.08946 -4.33893,0.910136 -9.10399,1.6243 -13.1259,3.53138 -4.20346,1.99914 -8.32406,4.1982 -12.4815,6.29072 -11.261,5.67914 -22.5167,11.3491 -33.7776,17.0243 -4.48229,2.25956 -3.94831,8.81596 0,11.2097 10.4074,6.31045 22.3312,7.118 34.1117,5.23854 8.28724,-1.31786 15.8537,-4.39811 23.724,-7.12195 14.1282,-4.89527 29.3927,-7.28898 44.3099,-7.35869 13.3022,-0.0657613 26.7951,1.92944 39.0898,7.18245 18.1843,7.83611 39.9355,13.047 58.0172,2.05964 3.28412,-1.9952 4.63485,-7.45207 1.31259,-10.1943z"/>
  <path class="fil3" d="M469.631 0.139414l0.0276197 -0.139414c-0.950908,0 -1.88866,0.0512938 -2.83957,0.0697069 -0.945647,-0.0184132 -1.8834,-0.0697069 -2.83431,-0.0697069l0.0223588 0.139414c-93.7427,2.99214 -168.833,79.8697 -168.833,174.341l0 105.872c0,11.7568 9.53407,21.2922 21.2922,21.2922l0 -104.378 -0.460329 -2.71463c-7.17718,-42.3292 2.00046,-86.384 27.8249,-120.677 12.0593,-16.0208 28.4062,-31.1051 50.5283,-42.0044 0.26436,-0.124946 0.524775,-0.255154 0.789135,-0.384046 45.0754,-21.9748 98.2657,-21.9748 143.346,0 0.260415,0.128892 0.524775,0.259099 0.78519,0.384046 22.2562,10.965 38.6584,26.1651 50.7401,42.2884 25.6771,34.2603 34.7667,78.2033 27.6079,120.417l-0.455068 2.69095 0 104.378c11.7568,0 21.2922,-9.53538 21.2922,-21.2922l0 -105.872c0,-94.4713 -75.0915,-171.349 -168.834,-174.341z"/>
  <polygon class="fil1" points="1479.99,779.964 1756.84,779.964 1756.84,379.607 1479.99,379.607 "/>
  <polygon class="fil0" points="1509.87,447.186 1726.95,447.186 1726.95,438.329 1509.87,438.329 "/>
  <polygon class="fil0" points="1509.87,487.868 1726.95,487.868 1726.95,479.005 1509.87,479.005 "/>
  <polygon class="fil0" points="1509.87,528.546 1726.95,528.546 1726.95,519.688 1509.87,519.688 "/>
  <polygon class="fil0" points="1509.87,569.223 1726.95,569.223 1726.95,560.366 1509.87,560.366 "/>
  <polygon class="fil0" points="1509.87,609.906 1726.95,609.906 1726.95,601.042 1509.87,601.042 "/>
  <polygon class="fil0" points="1509.87,650.583 1726.95,650.583 1726.95,641.725 1509.87,641.725 "/>
  <polygon class="fil8" points="1509.87,742.98 1726.95,742.98 1726.95,740.54 1509.87,740.54 "/>
  <path class="fil0" d="M1539.53 702.094c11.0887,1.86499 22.3496,2.42133 33.5593,1.44806 10.3561,-0.895668 21.3527,-2.64492 31.013,-6.62611 6.88126,-2.83563 14.3702,-10.602 9.54459,-18.4526 -4.25081,-6.91809 -14.9173,-7.62305 -21.9787,-5.93956 -8.24515,1.95837 -15.5762,7.35869 -20.5872,14.0966 -5.01627,6.74185 -8.50556,16.4614 -2.57127,23.7556 5.48449,6.73658 15.5249,8.08732 23.6122,6.96412 4.54673,-0.631308 8.97378,-2.13461 12.9458,-4.43099 1.85973,-1.07585 3.57741,-2.34768 5.22408,-3.71683 2.15302,-1.78608 4.40732,-4.15217 7.3166,-4.55594 3.49455,-0.482688 4.3021,2.15828 6.52352,4.0601 1.54539,1.32706 3.52743,1.77292 5.51737,1.56775 2.45421,-0.245947 4.68615,-1.30733 6.96017,-2.18459 2.86193,-1.10873 5.6923,-1.52698 8.7594,-1.45201 13.2049,0.314339 26.5163,2.06885 39.6843,3.14076 2.34373,0.190708 2.32926,-2.00966 0,-2.19906 -9.80895,-0.794396 -19.6074,-3.05395 -29.4071,-3.85098 -4.47308,-0.363002 -9.07111,-1.04955 -13.5626,-0.677341 -4.22187,0.343274 -7.61779,2.53707 -11.6542,3.39986 -4.54279,0.970636 -5.1741,-3.59583 -8.80675,-4.99654 -3.23414,-1.23894 -6.78393,-0.194653 -9.54854,1.65192 -3.36829,2.2543 -6.10659,5.18725 -9.71557,7.12721 -4.03774,2.18064 -8.58842,3.48403 -13.1733,3.76286 -7.42313,0.449807 -18.471,-1.81896 -20.0388,-10.5981 -1.42965,-8.01235 5.21881,-16.2904 11.0098,-21.0134 5.94876,-4.86239 13.9756,-8.07811 21.7288,-6.65767 3.68789,0.677341 8.50425,2.41212 9.40518,6.55114 1.05218,4.82951 -3.21573,8.72652 -7.08512,10.6244 -4.52964,2.21879 -9.75766,3.34988 -14.6437,4.4402 -5.42925,1.21132 -10.9322,2.0649 -16.4719,2.54759 -10.8703,0.941701 -21.8248,1.46648 -32.59,-0.338013 -2.30164,-0.390622 -3.29464,2.16223 -0.969321,2.55154l0 0z"/>
  <path class="fil1" d="M1849.37 622.628l-48.6725 -26.4058 14.3097 -26.3676c3.09473,-5.70676 10.2311,-7.82296 15.9379,-4.72429l28.0064 15.1909c5.70676,3.09999 7.82296,10.2311 4.72824,15.9379l-14.3097 26.369z"/>
  <polygon class="fil3" points="1705.41,887.938 1656.74,861.532 1797.32,602.453 1845.99,628.863 "/>
  <polygon class="fil2" points="1689.77,879.45 1672.39,870.018 1812.96,610.945 1830.34,620.372 "/>
  <polygon class="fil4" points="1851.78,632.004 1791.53,599.313 1797.85,587.661 1858.1,620.359 "/>
  <polygon class="fil1" points="1705.41,887.938 1656.74,861.532 1651.81,905.684 1671.08,916.143 "/>
  <polygon class="fil3" points="1671.08,916.143 1651.81,905.684 1648.56,934.646 "/>
  <path class="fil3" d="M17.9147 1217.8l0 -18.4289c0,-19.6218 15.1593,-35.7491 34.3774,-37.3511l0 87.9202c0,1.74925 0.0618156,3.48929 0.131523,5.22013 -19.2799,-1.53618 -34.5089,-17.6872 -34.5089,-37.3603zm34.3774 -95.3578l0 21.6591c-29.1007,1.64272 -52.292,25.7653 -52.292,55.2697l0 18.4289c0,30.2331 24.3382,54.8475 54.4451,55.3815 10.9282,59.3061 62.8678,104.249 125.337,104.249l0.00394568 0c70.4093,0 127.489,-57.0755 127.489,-127.49l0 -127.498 -254.983 0z"/>
  <path class="fil1" d="M243.774 977.31c-16.2259,-8.36615 -37.5313,-4.42179 -50.5691,8.35168 -2.33847,-18.6065 -20.0217,-32.6689 -38.5664,-35.444 -18.542,-2.77513 -37.3577,3.72998 -53.6257,13.047 -15.9563,9.14082 -30.8552,21.8209 -37.5431,38.9517 -6.68529,17.1295 -2.94347,39.2056 12.2066,49.6274 6.15131,4.23634 13.9927,5.42399 21.3593,4.19425 0.971952,5.82776 3.27623,11.3859 7.06802,15.9931 12.6354,15.3631 38.7176,16.8796 53.0496,3.09078 10.8756,9.62219 27.5698,12.054 40.7378,5.92509 2.86193,-1.33232 5.51211,-3.07237 7.92029,-5.09518 -0.970636,12.7643 -5.81856,25.255 -13.9848,35.1323 15.8169,-5.50159 29.3466,-17.3018 36.942,-32.2178 4.98339,-9.79054 7.32186,-20.8476 7.01541,-31.8153 12.3145,-2.37661 23.6122,-11.382 27.621,-23.4413 5.762,-17.3149 -3.41038,-37.935 -19.6311,-46.2999z"/>
  <path class="fil3" d="M815.953 211.989l-0.0236741 0c-0.658928,-0.0605004 -1.34548,-0.0881201 -2.04123,-0.0881201 -13.5665,0 -24.6052,11.0374 -24.6052,24.6052 0,13.5665 11.0387,24.6039 24.6052,24.6039 0.695754,0 1.3731,-0.0276197 2.00966,-0.0828592 12.6801,-1.04429 22.5956,-11.8134 22.5956,-24.5211 0,-12.709 -9.90102,-23.4781 -22.5403,-24.5171z"/>
  <path class="fil3" d="M846.826 266.975c-7.64672,8.26356 -18.0212,13.3219 -29.2125,14.2452 -1.20212,0.101272 -2.45947,0.152566 -3.72603,0.152566 -24.7394,0 -44.8676,-20.1269 -44.8676,-44.8663 0,-24.7407 20.1282,-44.8676 44.8676,-44.8676 1.27182,0 2.54233,0.0552395 3.77733,0.161773 11.1492,0.914082 21.5092,5.97244 29.1612,14.236 7.6967,8.31354 11.933,19.1339 11.933,30.4698 0,11.3346 -4.23634,22.155 -11.933,30.4685zm55.3486 -30.4685c0,-4.25081 -1.65192,-8.24515 -4.66379,-11.257 -3.00661,-3.00661 -7.00621,-4.66247 -11.2557,-4.66247l-9.1132 0 -0.941701 -3.08157c-1.21527,-4.01801 -2.83957,-7.92949 -4.81636,-11.6226l-1.51645 -2.84352 6.44855 -6.44987c6.20918,-6.20786 6.20918,-16.3048 0.0052609,-22.5127 -3.00661,-3.00661 -7.00621,-4.66247 -11.261,-4.66247 -4.25475,0 -8.24909,1.65192 -11.2557,4.65853l-6.44987 6.45381 -2.84483 -1.51777c-3.69315,-1.97678 -7.60463,-3.59583 -11.6226,-4.8203l-3.08026 -0.932495 0 -9.11714c0,-7.54019 -5.35954,-14.1058 -12.7498,-15.6038 -1.04034,-0.213067 -2.11225,-0.315654 -3.16969,-0.315654 -4.24949,0 -8.24909,1.65192 -11.2557,4.66247 -3.00661,3.00661 -4.66379,7.00621 -4.66379,11.257l0 9.11714 -3.08026 0.932495c-4.01801,1.22053 -7.92555,2.84352 -11.6226,4.8203l-2.84483 1.51777 -6.44855 -6.45381c-6.20392,-6.20392 -16.3048,-6.20392 -22.518,0 -3.00134,3.00661 -4.65853,7.01015 -4.65853,11.261 0,4.25475 1.65718,8.24909 4.65853,11.2557l6.45381 6.44987 -1.51645 2.84352c-1.97678,3.69315 -3.59583,7.60463 -4.8203,11.6226l-0.937756 3.08157 -9.1132 0c-8.77781,0 -15.9234,7.14036 -15.9234,15.9195 0,4.24949 1.66113,8.24909 4.66773,11.2557 3.00661,3.00661 7.00621,4.66247 11.2557,4.66247l9.1132 0 0.937756 3.08157c1.22447,4.01275 2.84352,7.92949 4.8203,11.6226l1.51645 2.83957 -6.44855 6.45381c-6.20786,6.20392 -6.20786,16.3088 0,22.5127 3.00134,3.00661 7.00094,4.66247 11.2557,4.66247 4.25475,0 8.25041,-1.65587 11.257,-4.66247l6.45381 -6.44987 2.83957 1.51777c3.6971,1.97678 7.60858,3.59583 11.6226,4.8203l3.08026 0.937756 0 9.11188c0,8.77913 7.14167,15.9247 15.9195,15.9247 1.02982,0 2.07411,-0.102588 3.09473,-0.306448l0.487949 -0.102588c2.89876,-0.662874 5.54894,-2.13461 7.67302,-4.2587 3.00661,-3.01187 4.66379,-7.00621 4.66379,-11.257l0 -9.11188 3.08026 -0.937756c4.01801,-1.22447 7.92555,-2.84352 11.6226,-4.8203l2.84483 -1.51777 6.44987 6.45381c3.00134,2.9974 6.99568,4.64932 11.2557,4.64932 4.2587,0 8.25435,-1.65192 11.261,-4.65327 3.00134,-3.00661 4.65853,-7.00621 4.65853,-11.261 0,-4.25081 -1.65718,-8.25041 -4.65853,-11.257l-6.45381 -6.4446 1.51645 -2.84352c1.97678,-3.69841 3.60109,-7.60989 4.81636,-11.6226l0.941701 -3.08157 9.1132 0c8.77781,0 15.9195,-7.14036 15.9195,-15.9182z"/>
  <path class="fil3" d="M1497.23 929.685l-0.00920658 0.0144675c-0.190708,0.389307 -0.366948,0.802287 -0.530036,1.22447 -3.18285,8.26356 0.952223,17.5767 9.21578,20.7595 8.26751,3.18285 17.5793,-0.956169 20.7621,-9.21973 0.163088,-0.422187 0.302502,-0.840429 0.422187,-1.24289 2.33847,-7.97158 -1.90182,-16.5363 -9.63666,-19.5153 -7.74405,-2.98425 -16.6244,0.52346 -20.2242,7.97947z"/>
  <path class="fil3" d="M1537.96 923.775c3.24729,6.59849 3.89307,14.1058 1.82816,21.1396 -0.218327,0.756255 -0.482688,1.53092 -0.779929,2.30559 -5.79883,15.0699 -22.781,22.61 -37.8509,16.8099 -15.0751,-5.80409 -22.6153,-22.7863 -16.8099,-37.8614 0.29198,-0.774668 0.626047,-1.53487 0.982473,-2.25956 3.16969,-6.57876 8.6818,-11.7016 15.5118,-14.4241 6.86679,-2.7383 14.453,-2.78433 21.3566,-0.126262 6.90888,2.66333 12.5038,7.77693 15.7617,14.4162zm-5.57656 -40.868c-2.58442,-0.996941 -5.41478,-0.923288 -7.95317,0.205175 -2.53312,1.12189 -4.48229,3.17364 -5.47923,5.762l-2.13461 5.5542 -2.09778 -0.153881c-2.73304,-0.198599 -5.49764,-0.128892 -8.21227,0.209121l-2.08726 0.260415 -2.41738 -5.4424c-2.32532,-5.23854 -8.47794,-7.60463 -13.7152,-5.28063 -2.53838,1.12715 -4.47834,3.16969 -5.48054,5.76726 -0.996941,2.58442 -0.927234,5.41478 0.199914,7.94791l2.41738 5.43846 -1.59142 1.37836c-2.06885,1.79002 -3.97593,3.79048 -5.66073,5.95271l-1.29418 1.65587 -5.5542 -2.13856c-4.58882,-1.76766 -9.84578,-0.0420872 -12.4946,4.11008 -0.370894,0.585275 -0.686548,1.20738 -0.932495,1.85184 -0.998256,2.59362 -0.928549,5.41478 0.198599,7.95317 1.12846,2.53707 3.17364,4.48623 5.76332,5.48317l5.5542 2.13987 -0.153881 2.09252c-0.194653,2.73304 -0.130207,5.4937 0.209121,8.21227l0.255154 2.08726 -5.43846 2.41344c-5.23328,2.32926 -7.60463,8.48189 -5.27931,13.7191 1.1232,2.53444 3.16838,4.48229 5.762,5.48054 2.59362,0.996941 5.41478,0.927234 7.95317,-0.199914l5.4424 -2.41738 1.3731 1.59142c1.78608,2.07016 3.79048,3.97198 5.95271,5.66073l1.65192 1.29024 -2.13461 5.5542c-2.05964,5.34902 0.618156,11.3714 5.96323,13.4363 2.59362,0.996941 5.41478,0.923288 7.95185,-0.20386 2.53838,-1.12846 4.48755,-3.17364 5.48449,-5.76332l2.13856 -5.5542 2.09252 0.153881c2.73304,0.199914 5.49896,0.124946 8.21358,-0.209121l2.08726 -0.259099 2.41344 5.4424c2.324,5.23854 8.47663,7.60858 13.7152,5.28458 2.53707,-1.13241 4.48097,-3.1789 5.48317,-5.77252 0.998256,-2.58836 0.924603,-5.41478 -0.198599,-7.94791l-2.41738 -5.4424 1.58616 -1.3731c2.07411,-1.79134 3.98119,-3.79574 5.66599,-5.95271l1.28892 -1.65718 5.55946 2.13987c5.34508,2.05438 11.3714,-0.618156 13.4271,-5.96718 0.245947,-0.626047 0.427448,-1.28498 0.543188,-1.95311l0.0512938 -0.320915c0.277513,-1.92549 0.00394568,-3.88255 -0.794396,-5.67914 -1.12715,-2.53707 -3.17364,-4.48229 -5.762,-5.47923l-5.5542 -2.13856 0.153881 -2.09252c0.194653,-2.7383 0.124946,-5.49896 -0.209121,-8.21358l-0.260415 -2.082 5.4424 -2.42265c2.52918,-1.1232 4.47834,-3.17364 5.47528,-5.762 0.998256,-2.59889 0.928549,-5.42004 -0.194653,-7.95317 -1.12715,-2.53838 -3.1789,-4.48229 -5.76332,-5.47923 -2.59362,-0.992995 -5.41347,-0.928549 -7.95185,0.198599l-5.4424 2.41738 -1.3731 -1.59142c-1.79134,-2.06885 -3.79179,-3.97198 -5.95403,-5.66468l-1.65587 -1.29024 2.13461 -5.54894c2.0649,-5.35428 -0.612895,-11.3728 -5.96192,-13.4377z"/>
 </g>
</svg>
