<?xml version="1.0" encoding="UTF-8"?>
<!DOCTYPE svg PUBLIC "-//W3C//DTD SVG 1.1//EN" "http://www.w3.org/Graphics/SVG/1.1/DTD/svg11.dtd">
<!-- Creator: CorelDRAW -->
<svg xmlns="http://www.w3.org/2000/svg" xml:space="preserve" width="4570px" height="3700px" style="shape-rendering:geometricPrecision; text-rendering:geometricPrecision; image-rendering:optimizeQuality; fill-rule:evenodd; clip-rule:evenodd"
viewBox="0 0 10903 8825.43"
 xmlns:xlink="http://www.w3.org/1999/xlink">
 <defs>
  <style type="text/css">
   <![CDATA[
    .fil0 {fill:#A13DDB;fill-rule:nonzero}
    .fil1 {fill:#C46EF5;fill-rule:nonzero}
   ]]>
  </style>
 </defs>
 <g id="Layer_x0020_1">
  <metadata id="CorelCorpID_0Corel-Layer"/>
  <polygon class="fil0" points="9310.75,6337.83 10705.5,5103.38 7718.33,2459.51 6323.55,3693.98 "/>
  <polygon class="fil1" points="7718.38,2458.75 5825.03,2458.75 5825.03,6338.59 7718.38,6338.59 "/>
  <path class="fil1" d="M7297.41 6921.51l417.191 417.71c-641.106,722.698 -1515.29,1233.74 -2505.22,1413.79 -258.064,47.9359 -524.801,72.4237 -796.652,72.4237 -2437.4,0 -4412.72,-1975.33 -4412.72,-4412.7 0,-2437.42 1975.33,-4412.72 4412.72,-4412.72 271.851,0 538.588,24.485 796.652,72.4209 989.931,180.034 1864.12,691.093 2505.22,1413.79l-417.191 417.71 -45.91 45.91 -1464.27 0c-181.068,-100.986 -373.828,-183.119 -576.814,-242.77 -252.973,-74.4721 -520.747,-114.769 -797.689,-114.769 -1480.58,0 -2694.45,1140.41 -2811.24,2590.91l0 2.5443c-6.10575,74.9905 -9.1713,150.477 -9.1713,226.978 0,76.5007 3.06555,151.987 9.1713,226.955l0 2.54711c116.798,1450.5 1330.66,2590.89 2811.24,2590.89 276.942,0 544.716,-40.2776 797.689,-114.75 202.986,-59.674 395.746,-141.782 576.814,-242.767l1464.27 0 45.91 45.9072z"/>
  <path class="fil0" d="M7714.6 7339.22c-641.106,722.698 -1515.29,1233.74 -2505.22,1413.79 -1982.45,-362.135 -3501.8,-2049.28 -3607.9,-4110.78 116.798,1450.5 1330.66,2590.89 2811.24,2590.89 276.942,0 544.716,-40.2776 797.689,-114.75 252.973,74.968 520.701,114.75 798.162,114.75 464.631,0 902.729,-112.701 1288.83,-311.61l417.191 417.71z"/>
  <polygon class="fil1" points="10903,492.914 9310.71,492.914 9310.71,6338.59 10903,6338.59 "/>
 </g>
</svg>
