<?xml version="1.0" encoding="UTF-8"?>
<!DOCTYPE svg PUBLIC "-//W3C//DTD SVG 1.1//EN" "http://www.w3.org/Graphics/SVG/1.1/DTD/svg11.dtd">
<!-- Creator: CorelDRAW -->
<svg xmlns="http://www.w3.org/2000/svg" xml:space="preserve" width="4570px" height="3700px" style="shape-rendering:geometricPrecision; text-rendering:geometricPrecision; image-rendering:optimizeQuality; fill-rule:evenodd; clip-rule:evenodd"
viewBox="0 0 693.404 561.274"
 xmlns:xlink="http://www.w3.org/1999/xlink">
 <defs>
  <style type="text/css">
   <![CDATA[
    .fil0 {fill:#D43808;fill-rule:nonzero}
    .fil1 {fill:#F4511F;fill-rule:nonzero}
   ]]>
  </style>
 </defs>
 <g id="Layer_x0020_1">
  <metadata id="CorelCorpID_0Corel-Layer"/>
  <polygon class="fil0" points="592.139,403.069 680.843,324.562 490.865,156.418 402.161,234.927 "/>
  <polygon class="fil1" points="490.868,156.37 370.456,156.37 370.456,403.117 490.868,403.117 "/>
  <path class="fil1" d="M464.096 440.189l26.5322 26.5652c-40.7724,45.9615 -96.3685,78.4621 -159.325,89.913 -16.4122,3.04877 -33.3761,4.60595 -50.6649,4.60595 -155.012,0 -280.638,-125.626 -280.638,-280.636 0,-155.013 125.626,-280.637 280.638,-280.637 17.2888,0 34.2527,1.55736 50.6649,4.60595 62.9568,11.4495 118.553,43.9515 159.325,89.9132l-26.5322 26.5652 -2.91975 2.91957 -93.1236 0c-11.5154,-6.42242 -23.7747,-11.6457 -36.684,-15.4394 -16.0884,-4.73622 -33.1181,-7.29921 -50.7307,-7.29921 -94.1611,0 -171.359,72.5269 -178.788,164.775l0 0.16199c-0.388309,4.76919 -0.583091,9.56993 -0.583091,14.435 0,4.86524 0.194782,9.66597 0.583091,14.4339l0 0.16181c7.42822,92.2484 84.6266,164.774 178.788,164.774 17.6126,0 34.6423,-2.56173 50.7307,-7.29795 12.9093,-3.79493 25.1686,-9.01694 36.684,-15.4394l93.1236 0 2.91975 2.91975z"/>
  <path class="fil0" d="M490.628 466.755c-40.7724,45.9615 -96.3685,78.4621 -159.325,89.913 -126.079,-23.0308 -222.705,-130.329 -229.453,-261.434 7.42822,92.2484 84.6266,164.774 178.788,164.774 17.6126,0 34.6423,-2.56173 50.7307,-7.29795 16.0884,4.76794 33.1152,7.29795 50.761,7.29795 29.5493,0 57.4111,-7.1675 81.9664,-19.8176l26.5322 26.5652z"/>
  <polygon class="fil1" points="693.404,31.3482 592.136,31.3482 592.136,403.117 693.404,403.117 "/>
 </g>
</svg>
