<?xml version="1.0" encoding="UTF-8"?>
<!DOCTYPE svg PUBLIC "-//W3C//DTD SVG 1.1//EN" "http://www.w3.org/Graphics/SVG/1.1/DTD/svg11.dtd">
<!-- Creator: CorelDRAW -->
<svg xmlns="http://www.w3.org/2000/svg" xml:space="preserve" width="4570px" height="3700px" style="shape-rendering:geometricPrecision; text-rendering:geometricPrecision; image-rendering:optimizeQuality; fill-rule:evenodd; clip-rule:evenodd"
viewBox="0 0 2048.35 1658.03"
 xmlns:xlink="http://www.w3.org/1999/xlink">
 <defs>
  <style type="text/css">
   <![CDATA[
    .fil0 {fill:#055659;fill-rule:nonzero}
    .fil1 {fill:#08787B;fill-rule:nonzero}
   ]]>
  </style>
 </defs>
 <g id="Layer_x0020_1">
  <metadata id="CorelCorpID_0Corel-Layer"/>
  <polygon class="fil0" points="1749.21,1190.69 2011.25,958.772 1450.04,462.067 1188,693.986 "/>
  <polygon class="fil1" points="1450.05,461.925 1094.35,461.925 1094.35,1190.83 1450.05,1190.83 "/>
  <path class="fil1" d="M1370.96 1300.34l78.3776 78.475c-120.444,135.773 -284.678,231.781 -470.656,265.608 -48.4825,9.0057 -98.5942,13.6057 -149.666,13.6057 -457.913,0 -829.018,-371.104 -829.018,-829.013 0,-457.917 371.105,-829.018 829.018,-829.018 51.072,0 101.184,4.60051 149.666,13.6062 185.978,33.8229 350.211,129.835 470.656,265.608l-78.3776 78.475 -8.6251 8.62458 -275.092 0c-34.0177,-18.9722 -70.2316,-34.402 -108.366,-45.6087 -47.5259,-13.991 -97.8325,-21.5622 -149.861,-21.5622 -278.157,0 -506.205,214.248 -528.148,486.754l0 0.478525c-1.14708,14.0884 -1.72248,28.2701 -1.72248,42.6422 0,14.3716 0.575395,28.5533 1.72248,42.638l0 0.477996c21.9434,272.507 249.991,486.75 528.148,486.75 52.0285,0 102.335,-7.56695 149.861,-21.558 38.1349,-11.2109 74.3488,-26.637 108.366,-45.6092l275.092 0 8.6251 8.6251z"/>
  <path class="fil0" d="M1449.34 1378.82c-120.444,135.773 -284.678,231.781 -470.656,265.608 -372.442,-68.0348 -657.882,-384.999 -677.814,-772.291 21.9434,272.507 249.991,486.75 528.148,486.75 52.0285,0 102.335,-7.56695 149.861,-21.558 47.5259,14.0842 97.8241,21.558 149.951,21.558 87.2901,0 169.595,-21.1732 242.133,-58.5421l78.3776 78.475z"/>
  <polygon class="fil1" points="2048.35,92.6042 1749.2,92.6042 1749.2,1190.83 2048.35,1190.83 "/>
 </g>
</svg>
