<?xml version="1.0" encoding="UTF-8"?>
<!DOCTYPE svg PUBLIC "-//W3C//DTD SVG 1.1//EN" "http://www.w3.org/Graphics/SVG/1.1/DTD/svg11.dtd">
<!-- Creator: CorelDRAW -->
<svg xmlns="http://www.w3.org/2000/svg" xml:space="preserve" width="4570px" height="3700px" style="shape-rendering:geometricPrecision; text-rendering:geometricPrecision; image-rendering:optimizeQuality; fill-rule:evenodd; clip-rule:evenodd"
viewBox="0 0 911.127 737.509"
 xmlns:xlink="http://www.w3.org/1999/xlink">
 <defs>
  <style type="text/css">
   <![CDATA[
    .fil0 {fill:#898989;fill-rule:nonzero}
    .fil1 {fill:#9D9E9E;fill-rule:nonzero}
   ]]>
  </style>
 </defs>
 <g id="OBJECTS">
  <metadata id="CorelCorpID_0Corel-Layer"/>
  <polygon class="fil0" points="778.065,529.629 894.622,426.471 644.993,205.532 528.436,308.692 "/>
  <polygon class="fil1" points="644.996,205.469 486.776,205.469 486.776,529.692 644.996,529.692 "/>
  <path class="fil1" d="M609.818 578.405l34.8631 34.9065c-53.5749,60.3932 -126.627,103.099 -209.352,118.145 -21.5655,4.00606 -43.8557,6.05218 -66.573,6.05218 -203.684,0 -368.755,-165.071 -368.755,-368.754 0,-203.686 165.071,-368.755 368.755,-368.755 22.7173,0 45.0076,2.04612 66.573,6.05218 82.7249,15.0445 155.777,57.7519 209.352,118.145l-34.8631 34.9065 -3.83653 3.83653 -122.364 0c-15.1314,-8.43901 -31.2397,-15.3023 -48.2025,-20.2872 -21.14,-6.22336 -43.5169,-9.5911 -66.6597,-9.5911 -123.727,0 -225.165,95.2995 -234.926,216.513l0 0.212617c-0.510235,6.26668 -0.766176,12.5748 -0.766176,18.9677 0,6.39289 0.255941,12.701 0.766176,18.9658l0 0.212853c9.76062,121.213 111.199,216.511 234.926,216.511 23.1428,0 45.5197,-3.36585 66.6597,-9.58921 16.9628,-4.9865 33.0711,-11.8482 48.2025,-20.2872l122.364 0 3.83653 3.8363z"/>
  <path class="fil0" d="M644.681 613.311c-53.5749,60.3932 -126.627,103.099 -209.352,118.145 -165.666,-30.2623 -292.632,-171.251 -301.499,-343.523 9.76062,121.213 111.199,216.511 234.926,216.511 23.1428,0 45.5197,-3.36585 66.6597,-9.58921 21.14,6.2648 43.5131,9.58921 66.6995,9.58921 38.8275,0 75.4378,-9.41803 107.703,-26.0401l34.8631 34.9065z"/>
  <polygon class="fil1" points="911.127,41.191 778.062,41.191 778.062,529.692 911.127,529.692 "/>
 </g>
</svg>
