<?xml version="1.0" encoding="UTF-8"?>
<!DOCTYPE svg PUBLIC "-//W3C//DTD SVG 1.1//EN" "http://www.w3.org/Graphics/SVG/1.1/DTD/svg11.dtd">
<!-- Creator: CorelDRAW -->
<svg xmlns="http://www.w3.org/2000/svg" xml:space="preserve" width="4570px" height="3700px" style="shape-rendering:geometricPrecision; text-rendering:geometricPrecision; image-rendering:optimizeQuality; fill-rule:evenodd; clip-rule:evenodd"
viewBox="0 0 1301.59 1053.57"
 xmlns:xlink="http://www.w3.org/1999/xlink">
 <defs>
  <style type="text/css">
   <![CDATA[
    .fil1 {fill:#0ACFFE;fill-rule:nonzero}
    .fil0 {fill:#495AFF;fill-rule:nonzero}
   ]]>
  </style>
 </defs>
 <g id="Layer_x0020_1">
  <metadata id="CorelCorpID_0Corel-Layer"/>
  <polygon class="fil0" points="1111.51,756.603 1278.01,609.237 921.406,293.613 754.898,440.983 "/>
  <polygon class="fil1" points="921.411,293.523 695.385,293.523 695.385,756.694 921.411,756.694 "/>
  <path class="fil1" d="M871.157 826.282l49.8038 49.8657c-76.5345,86.2746 -180.894,147.282 -299.071,168.777 -30.8074,5.72253 -62.6502,8.64552 -95.1031,8.64552 -290.974,0 -526.787,-235.813 -526.787,-526.783 0,-290.976 235.813,-526.787 526.787,-526.787 32.4529,0 64.2957,2.92333 95.1031,8.64586 118.177,21.4922 222.536,82.5016 299.071,168.777l-49.8038 49.8657 -5.48069 5.48035 -174.803 0c-21.616,-12.0556 -44.6275,-21.8602 -68.8598,-28.9813 -30.1996,-8.89039 -62.1662,-13.7014 -95.2269,-13.7014 -176.75,0 -321.66,136.141 -335.604,309.3l0 0.304072c-0.728897,8.95228 -1.09452,17.9638 -1.09452,27.0963 0,9.13224 0.365626,18.1437 1.09452,27.0937l0 0.303735c13.9436,173.16 158.853,309.298 335.604,309.298 33.0607,0 65.0273,-4.8083 95.2269,-13.6987 24.2322,-7.12382 47.2438,-16.9261 68.8598,-28.9817l174.803 0 5.48069 5.48069z"/>
  <path class="fil0" d="M920.96 876.148c-76.5345,86.2746 -180.894,147.282 -299.071,168.777 -236.663,-43.2316 -418.041,-244.641 -430.707,-490.741 13.9436,173.16 158.853,309.298 335.604,309.298 33.0607,0 65.0273,-4.8083 95.2269,-13.6987 30.1996,8.94959 62.1608,13.6987 95.2837,13.6987 55.4672,0 107.767,-13.4542 153.86,-37.1997l49.8038 49.8657z"/>
  <polygon class="fil1" points="1301.59,58.8439 1111.5,58.8439 1111.5,756.694 1301.59,756.694 "/>
 </g>
</svg>
