<?xml version="1.0" encoding="UTF-8"?>
<!DOCTYPE svg PUBLIC "-//W3C//DTD SVG 1.1//EN" "http://www.w3.org/Graphics/SVG/1.1/DTD/svg11.dtd">
<!-- Creator: CorelDRAW -->
<svg xmlns="http://www.w3.org/2000/svg" xml:space="preserve" width="4570px" height="3700px" style="shape-rendering:geometricPrecision; text-rendering:geometricPrecision; image-rendering:optimizeQuality; fill-rule:evenodd; clip-rule:evenodd"
viewBox="0 0 3619.8 2930.03"
 xmlns:xlink="http://www.w3.org/1999/xlink">
 <defs>
  <style type="text/css">
   <![CDATA[
    .fil0 {fill:#5FA16E;fill-rule:nonzero}
    .fil1 {fill:#72BD83;fill-rule:nonzero}
   ]]>
  </style>
 </defs>
 <g id="Layer_x0020_1">
  <metadata id="CorelCorpID_0Corel-Layer"/>
  <polygon class="fil0" points="3091.16,2104.15 3554.23,1694.32 2562.48,816.555 2099.41,1226.4 "/>
  <polygon class="fil1" points="2562.49,816.304 1933.9,816.304 1933.9,2104.41 2562.49,2104.41 "/>
  <path class="fil1" d="M2422.73 2297.94l138.507 138.679c-212.846,239.934 -503.076,409.598 -831.731,469.377 -85.6771,15.9147 -174.234,24.0437 -264.488,24.0437 -809.213,0 -1465.02,-655.807 -1465.02,-1465.01 0,-809.221 655.808,-1465.02 1465.02,-1465.02 90.2533,0 178.811,8.12992 264.488,24.0446 328.655,59.771 618.886,229.441 831.731,469.377l-138.507 138.679 -15.2421 15.2412 -486.136 0c-60.1143,-33.5272 -124.112,-60.7944 -191.503,-80.5986 -83.9868,-24.7247 -172.887,-38.1043 -264.831,-38.1043 -491.552,0 -894.554,378.614 -933.331,860.181l0 0.845639c-2.0271,24.8968 -3.04393,49.9582 -3.04393,75.3564 0,25.3972 1.01683,50.4587 3.04393,75.3489l0 0.844704c38.7778,481.567 441.779,860.174 933.331,860.174 91.9436,0 180.844,-13.3721 264.831,-38.0968 67.3911,-19.8117 131.388,-47.0724 191.503,-80.5995l486.136 0 15.2421 15.2421z"/>
  <path class="fil0" d="M2561.24 2436.61c-212.846,239.934 -503.076,409.598 -831.731,469.377 -658.172,-120.23 -1162.59,-680.361 -1197.82,-1364.78 38.7778,481.567 441.779,860.174 933.331,860.174 91.9436,0 180.844,-13.3721 264.831,-38.0968 83.9868,24.8893 172.872,38.0968 264.989,38.0968 154.257,0 299.705,-37.4167 427.892,-103.454l138.507 138.679z"/>
  <polygon class="fil1" points="3619.8,163.648 3091.15,163.648 3091.15,2104.41 3619.8,2104.41 "/>
 </g>
</svg>
