<?xml version="1.0" encoding="UTF-8"?>
<!DOCTYPE svg PUBLIC "-//W3C//DTD SVG 1.1//EN" "http://www.w3.org/Graphics/SVG/1.1/DTD/svg11.dtd">
<!-- Creator: CorelDRAW -->
<svg xmlns="http://www.w3.org/2000/svg" xml:space="preserve" width="4570px" height="3700px" style="shape-rendering:geometricPrecision; text-rendering:geometricPrecision; image-rendering:optimizeQuality; fill-rule:evenodd; clip-rule:evenodd"
viewBox="0 0 1021.58 826.913"
 xmlns:xlink="http://www.w3.org/1999/xlink">
 <defs>
  <style type="text/css">
   <![CDATA[
    .fil0 {fill:#C98C46;fill-rule:nonzero}
    .fil1 {fill:#F2A852;fill-rule:nonzero}
   ]]>
  </style>
 </defs>
 <g id="Layer_x0020_1">
  <metadata id="CorelCorpID_0Corel-Layer"/>
  <polygon class="fil0" points="872.386,593.833 1003.07,478.17 723.182,230.448 592.495,346.113 "/>
  <polygon class="fil1" points="723.186,230.377 545.785,230.377 545.785,593.904 723.186,593.904 "/>
  <path class="fil1" d="M683.742 648.522l39.0894 39.138c-60.0692,67.7141 -141.978,115.597 -234.731,132.467 -24.1797,4.49143 -49.1721,6.78559 -74.6436,6.78559 -228.376,0 -413.458,-185.082 -413.458,-413.455 0,-228.378 185.082,-413.458 413.458,-413.458 25.4715,0 50.4638,2.29442 74.6436,6.78585 92.7529,16.8685 174.662,64.7528 234.731,132.467l-39.0894 39.138 -4.30135 4.30161 -137.197 0c-16.9654,-9.46228 -35.0264,-17.1576 -54.0458,-22.7468 -23.7027,-6.97778 -48.7919,-10.7538 -74.7405,-10.7538 -138.725,0 -252.46,106.852 -263.404,242.76l0 0.238656c-0.572088,7.02636 -0.859056,14.0992 -0.859056,21.267 0,7.16786 0.286968,14.2404 0.859056,21.2649l0 0.238392c10.9438,135.908 124.679,242.758 263.404,242.758 25.9485,0 51.0378,-3.77388 74.7405,-10.7517 19.0193,-5.59125 37.0804,-13.2847 54.0458,-22.7468l137.197 0 4.30135 4.30161z"/>
  <path class="fil0" d="M722.832 687.66c-60.0692,67.7141 -141.978,115.597 -234.731,132.467 -185.749,-33.9311 -328.107,-192.011 -338.048,-385.166 10.9438,135.908 124.679,242.758 263.404,242.758 25.9485,0 51.0378,-3.77388 74.7405,-10.7517 23.7027,7.02424 48.7882,10.7517 74.7851,10.7517 43.5346,0 84.5826,-10.5597 120.759,-29.1968l39.0894 39.138z"/>
  <polygon class="fil1" points="1021.58,46.1847 872.382,46.1847 872.382,593.904 1021.58,593.904 "/>
 </g>
</svg>
