<?xml version="1.0" encoding="UTF-8"?>
<!DOCTYPE svg PUBLIC "-//W3C//DTD SVG 1.1//EN" "http://www.w3.org/Graphics/SVG/1.1/DTD/svg11.dtd">
<!-- Creator: CorelDRAW -->
<svg xmlns="http://www.w3.org/2000/svg" xml:space="preserve" width="4570px" height="3700px" style="shape-rendering:geometricPrecision; text-rendering:geometricPrecision; image-rendering:optimizeQuality; fill-rule:evenodd; clip-rule:evenodd"
viewBox="0 0 2159.74 1748.2"
 xmlns:xlink="http://www.w3.org/1999/xlink">
 <defs>
  <style type="text/css">
   <![CDATA[
    .fil0 {fill:#4C679C;fill-rule:nonzero}
    .fil1 {fill:#5C7CBD;fill-rule:nonzero}
   ]]>
  </style>
 </defs>
 <g id="Layer_x0020_1">
  <metadata id="CorelCorpID_0Corel-Layer"/>
  <polygon class="fil0" points="1844.33,1255.44 2120.62,1010.91 1528.89,487.195 1252.61,731.726 "/>
  <polygon class="fil1" points="1528.9,487.045 1153.86,487.045 1153.86,1255.59 1528.9,1255.59 "/>
  <path class="fil1" d="M1445.52 1371.06l82.6404 82.7425c-126.994,143.156 -300.159,244.385 -496.25,280.052 -51.119,9.49544 -103.956,14.3456 -157.806,14.3456 -482.814,0 -874.1,-391.285 -874.1,-874.095 0,-482.819 391.285,-874.1 874.1,-874.1 53.8499,0 106.687,4.85069 157.806,14.3461 196.092,35.6622 369.256,136.895 496.25,280.052l-82.6404 82.7425 -9.09358 9.09414 -290.052 0c-35.867,-20.0044 -74.0502,-36.2733 -114.259,-48.0894 -50.1104,-14.7519 -103.152,-22.7348 -158.011,-22.7348 -293.282,0 -533.732,225.899 -556.869,513.225l0 0.50399c-1.20946,14.8546 -1.81615,29.8074 -1.81615,44.9611 0,15.1537 0.606685,30.1066 1.81615,44.9567l0 0.50399c23.1366,287.326 263.587,513.22 556.869,513.22 54.8584,0 107.9,-7.97844 158.011,-22.7303 40.2092,-11.8206 78.3925,-28.0856 114.259,-48.0894l290.052 0 9.09358 9.09414z"/>
  <path class="fil0" d="M1528.16 1453.8c-126.994,143.156 -300.159,244.385 -496.25,280.052 -392.696,-71.7346 -693.658,-405.935 -714.675,-814.289 23.1366,287.326 263.587,513.22 556.869,513.22 54.8584,0 107.9,-7.97844 158.011,-22.7303 50.1104,14.8501 103.144,22.7303 158.105,22.7303 92.0376,0 178.818,-22.3246 255.3,-61.7256l82.6404 82.7425z"/>
  <polygon class="fil1" points="2159.74,97.6401 1844.32,97.6401 1844.32,1255.59 2159.74,1255.59 "/>
 </g>
</svg>
