<?xml version="1.0" encoding="UTF-8"?>
<!DOCTYPE svg PUBLIC "-//W3C//DTD SVG 1.1//EN" "http://www.w3.org/Graphics/SVG/1.1/DTD/svg11.dtd">
<!-- Creator: CorelDRAW -->
<svg xmlns="http://www.w3.org/2000/svg" xml:space="preserve" width="1938px" height="1504px" style="shape-rendering:geometricPrecision; text-rendering:geometricPrecision; image-rendering:optimizeQuality; fill-rule:evenodd; clip-rule:evenodd"
viewBox="0 0 1938 1503.86"
 xmlns:xlink="http://www.w3.org/1999/xlink">
 <defs>
  <style type="text/css">
   <![CDATA[
    .fil25 {fill:#2F2A4E;fill-rule:nonzero}
    .fil24 {fill:#464852;fill-rule:nonzero}
    .fil26 {fill:#6AAFC6;fill-rule:nonzero}
    .fil14 {fill:#6B7C8E;fill-rule:nonzero}
    .fil6 {fill:#6E6C6B;fill-rule:nonzero}
    .fil16 {fill:#777F89;fill-rule:nonzero}
    .fil27 {fill:#78322A;fill-rule:nonzero}
    .fil0 {fill:#7D8693;fill-rule:nonzero}
    .fil9 {fill:#888685;fill-rule:nonzero}
    .fil19 {fill:#8FC5DD;fill-rule:nonzero}
    .fil30 {fill:#9D633F;fill-rule:nonzero}
    .fil31 {fill:#AD744C;fill-rule:nonzero}
    .fil10 {fill:#B1BCCA;fill-rule:nonzero}
    .fil4 {fill:#BDBAB8;fill-rule:nonzero}
    .fil22 {fill:#CA374C;fill-rule:nonzero}
    .fil32 {fill:#CEB5A4;fill-rule:nonzero}
    .fil12 {fill:#CFD4DF;fill-rule:nonzero}
    .fil17 {fill:#D2D2D2;fill-rule:nonzero}
    .fil33 {fill:#D4BDAC;fill-rule:nonzero}
    .fil7 {fill:#D4D3D2;fill-rule:nonzero}
    .fil3 {fill:#DCDAD8;fill-rule:nonzero}
    .fil21 {fill:#E3435B;fill-rule:nonzero}
    .fil28 {fill:#E38164;fill-rule:nonzero}
    .fil29 {fill:#EA6443;fill-rule:nonzero}
    .fil5 {fill:#EBECEC;fill-rule:nonzero}
    .fil11 {fill:#EDD1C1;fill-rule:nonzero}
    .fil20 {fill:#F19777;fill-rule:nonzero}
    .fil2 {fill:#F29481;fill-rule:nonzero}
    .fil1 {fill:#F4A485;fill-rule:nonzero}
    .fil13 {fill:#F9D6BA;fill-rule:nonzero}
    .fil34 {fill:#F9E6E6;fill-rule:nonzero}
    .fil15 {fill:#FAFDFE;fill-rule:nonzero}
    .fil18 {fill:#FEF8EF;fill-rule:nonzero}
    .fil8 {fill:#FEFEFE;fill-rule:nonzero}
    .fil35 {fill:#B99476;fill-rule:nonzero}
    .fil23 {fill:#CA9779;fill-rule:nonzero}
   ]]>
  </style>
 </defs>
 <g id="Layer_x0020_1">
  <metadata id="CorelCorpID_0Corel-Layer"/>
  <path class="fil0" d="M750.262 1503.86c-9.99271,0 -18.3849,-7.77565 -19.0145,-17.8806 -0.653188,-10.4888 7.30909,-19.5259 17.7896,-20.2098 0.545701,-0.041341 23.2844,-1.80837 53.3228,-14.0796 40.0901,-16.3805 73.672,-42.7986 99.8066,-78.5219 6.21651,-8.49617 18.1511,-10.3459 26.6472,-4.12465 8.50089,6.21651 10.3459,18.1463 4.12938,26.6425 -73.3874,100.306 -177.102,107.866 -181.481,108.14 -0.405142,0.0212611 -0.804378,0.034254 -1.20007,0.034254z"/>
  <path class="fil0" d="M10.4274 1160.15c0,-9.98799 7.77565,-18.3838 17.8794,-19.0086 10.4923,-0.659094 19.5307,7.29964 20.2146,17.7837 0.041341,0.545701 1.80365,23.2844 14.076,53.324 16.3793,40.0901 42.7974,73.6708 78.5207,99.8066 8.50089,6.21651 10.3459,18.1511 4.12938,26.6508 -6.21651,8.49617 -18.1511,10.3423 -26.6472,4.12583 -100.306,-73.3885 -107.865,-177.098 -108.136,-181.482 -0.0248046,-0.403961 -0.0366163,-0.799653 -0.0366163,-1.20007z"/>
  <path class="fil0" d="M578.219 408.225c7.4213,6.68307 8.45483,18.0802 2.158,26.0094 -6.53778,8.23395 -18.4971,9.62182 -26.7429,3.11711 -0.43349,-0.337815 -18.509,-14.2426 -49.0446,-25.2263 -40.7528,-14.6595 -83.3836,-17.505 -126.708,-8.45128 -10.3081,2.15091 -20.413,-4.45774 -22.5639,-14.767 -2.15328,-10.3093 4.45538,-20.4095 14.7635,-22.5639 121.662,-25.4141 203.779,38.3774 207.216,41.1024l0.921314 0.779573z"/>
  <polygon class="fil1" points="107.783,1144.23 217.618,1086.62 258.984,1195.46 150.156,1233.86 "/>
  <path class="fil2" d="M143.134 1139.48c0,0 34.5611,-7.12483 49.2572,0 14.7009,7.12128 27.2603,50.8152 27.2603,50.8152l72.446 5.16763 -65.5456 -123.141 -67.9244 32.1763 -15.4934 34.9816z"/>
  <path class="fil3" d="M167.124 731.789c-55.6781,24.4514 -80.9929,89.41 -56.545,145.088l186.448 424.571c24.4514,55.6733 89.41,80.9917 145.083,56.5403l542.549 -238.252 0 -746.955 -817.535 359.008z"/>
  <path class="fil4" d="M898.545 1104.08c-20.4591,0 -37.0474,-16.5884 -37.0474,-37.0474 0,-2.68008 0.287025,-5.29283 0.824458,-7.81345 3.50454,15.3222 17.2132,26.7476 33.5937,26.7476 19.0346,0 34.4642,-15.4261 34.4642,-34.456 0,-1.27921 -0.0708703,-2.54188 -0.207886,-3.78447 3.44193,5.6212 5.42512,12.2346 5.42512,19.3062 0,20.4591 -16.5919,37.0474 -37.0522,37.0474z"/>
  <path class="fil4" d="M752.407 615.987c-20.4591,0 -37.0474,-16.5848 -37.0474,-37.0486 0,-1.58749 0.1004,-3.15018 0.291749,-4.68334 2.34581,16.7514 16.7348,29.6439 34.1311,29.6439 19.0263,0 34.456,-15.4261 34.456,-34.4607 0,-4.74595 -0.95793,-9.27101 -2.69543,-13.3886 4.95856,6.30037 7.91267,14.2508 7.91267,22.8887 0,20.4638 -16.5848,37.0486 -37.0486,37.0486z"/>
  <path class="fil4" d="M226.806 894.303c-14.6465,0 -27.3099,-8.50089 -33.322,-20.8382l9.4541 -5.8716c6.31691,7.22995 15.6056,11.7964 25.9598,11.7964 17.4636,0 31.894,-12.9882 34.1559,-29.8305 0.520897,2.48282 0.800834,5.05896 0.800834,7.69651 0,20.4591 -16.5884,37.0474 -37.0486,37.0474zm-36.6978 -31.9271c-0.233872,-1.67018 -0.354351,-3.38288 -0.354351,-5.12038 0,-7.04214 1.96665,-13.6225 5.37551,-19.2307 -0.450026,2.2336 -0.692166,4.5416 -0.692166,6.90513 0,4.65382 0.926038,9.0962 2.59621,13.1464l-6.92521 4.29946z"/>
  <path class="fil4" d="M303.832 1314.46c-2.50881,-4.1341 -4.80382,-8.46309 -6.80473,-13.013l0 0 -21.5091 -48.9737 23.1888 5.34953 148.313 -128.698 35.3477 -36.1486c0,0 5.1629,4.76248 2.78402,10.3258 -2.3836,5.56214 -8.13827,39.3649 -11.2176,47.0898 -3.08286,7.72959 -26.1228,22.0312 -26.1228,22.0312 0,0 -77.8546,109.235 -94.9378,122.74 -9.50961,7.5217 -31.4522,14.5461 -49.0411,19.2968z"/>
  <path class="fil4" d="M345.588 1073.22c-10.9719,0 -39.9862,-3.61202 -39.9862,-3.61202l-120.861 -23.8561 -21.0473 -47.9319 3.67108 -12.1543 72.0125 15.6883 115.878 33.2476 20.6563 8.72531 -1.58749 12.3137 -12.3515 5.56214c0,0 -5.92121,11.1384 -13.867,11.9216 -0.662637,0.0673268 -1.51308,0.0956749 -2.51708,0.0956749z"/>
  <path class="fil4" d="M550.558 1309.86l-15.8879 -129.766 -15.3588 -69.121 -42.7525 -73.2173 223.517 -97.2636c0,0 1.60876,2.59621 1.69616,4.84162 0.0921314,2.24659 2.21706,36.6151 2.21706,36.6151l8.07094 74.9465 42.6734 69.0832 65.0873 66.1362 -269.262 117.745z"/>
  <path class="fil5" d="M700.784 986.283l-191.357 82.6678c-3.85062,1.66663 -5.6212,6.13382 -3.95929,9.98326l54.537 126.246c1.66191,3.84944 6.13382,5.6212 9.97972,3.95811l191.357 -82.6631c3.85062,-1.66309 5.62592,-6.13382 3.95811,-9.98444l-54.5323 -126.245c-1.66663,-3.84944 -6.13264,-5.6212 -9.98326,-3.96283z"/>
  <path class="fil6" d="M683.174 1000.17l-151.567 65.4747c-3.11711,1.35008 -4.54987,4.97628 -3.20452,8.09221l32.7728 75.8714c1.34654,3.11711 4.97155,4.5546 8.09221,3.20452l151.563 -65.4747c3.12066,-1.34535 4.5546,-4.96683 3.20806,-8.08748l-32.7728 -75.8678c-1.35008,-3.12066 -4.97037,-4.55814 -8.09221,-3.21279z"/>
  <path class="fil7" d="M660.478 1120.56l-25.6598 11.0841c-3.23405,1.39614 -4.72941,5.15936 -3.32972,8.39222l9.16707 21.2304c1.39969,3.23405 5.15818,4.72587 8.39577,3.325l25.661 -11.0829c3.24113,-1.40087 4.72941,-5.15463 3.32854,-8.39222l-9.16707 -21.2268c-1.39969,-3.23759 -5.15463,-4.72941 -8.39577,-3.32972z"/>
  <path class="fil8" d="M693.813 939.239l-106.931 46.1897 -106.931 46.1944c-3.56714,1.54143 -4.52861,6.15863 -1.86625,8.99226l25.9929 27.6973c1.18353,1.25913 3.0297,1.64183 4.60893,0.954387l96.4226 -41.6481 96.4178 -41.6528c1.58277,-0.682717 2.56669,-2.29147 2.46274,-4.01244l-2.34581 -37.9109c-0.238597,-3.87897 -4.2593,-6.34643 -7.82999,-4.80382z"/>
  <path class="fil9" d="M703.989 981.954l-2.33754 -37.7313c-1.46701,-1.35835 -3.82109,-1.83318 -6.05941,-0.86698l-106.931 46.1944 -106.93 46.1944c-2.2336,0.966198 -3.50454,3.00018 -3.5258,5.00462l25.8724 27.5638c1.18353,1.25913 3.0297,1.64183 4.60893,0.954387l96.4226 -41.6481 96.4178 -41.6528c1.58277,-0.682717 2.56669,-2.29147 2.46274,-4.01244z"/>
  <path class="fil10" d="M694.496 984.358l-0.720515 -31.1215c-1.26622,-1.07605 -3.35453,-1.37961 -5.39205,-0.496092l-97.4384 42.0899 -97.4396 42.0934c-2.03752,0.879973 -3.25058,2.61275 -3.33799,4.26757l22.1647 21.8552c1.01581,1.00045 2.64937,1.24968 4.09512,0.62484l87.8603 -37.9558 87.8544 -37.9487c1.44575,-0.62484 2.38833,-1.99146 2.35407,-3.40886z"/>
  <path class="fil11" d="M599.72 1212.67l-8.67925 -41.6694c0,0 8.17489,-26.4594 7.55832,-31.5018 -0.62484,-5.04124 -9.57103,-36.6435 -9.57103,-36.6435 0,0 -6.02161,-0.641376 -7.30436,2.57141 -1.28748,3.21633 0,18.6838 0,18.6838 0,0 -4.50026,-4.86288 -5.78774,-7.75912 -0.970923,-2.18753 -3.05097,-23.901 -4.00535,-34.3225 -0.287025,-3.13719 -2.91631,-5.52906 -6.0665,-5.52906 -3.06278,0 -5.646,2.27494 -6.03815,5.31291l-1.57096 12.2381 -10.2833 2.05406 -4.82154 11.2507 -10.8219 23.1427 6.813 26.1181 15.2596 20.1638 3.21279 35.8899 42.1064 0z"/>
  <path class="fil11" d="M745.503 1150.39l-28.6895 -31.4428c0,0 -26.235,-8.87178 -29.9557,-12.3302 -3.72069,-3.45375 -24.0935,-29.2139 -24.0935,-29.2139 0,0 3.0049,-5.25858 6.36297,-4.41758 3.35925,0.842175 15.1391,10.9424 15.1391,10.9424 0,0 -1.30047,-6.49644 -2.89269,-9.22967 -1.20361,-2.07059 -17.5841,-16.4762 -25.472,-23.3506 -2.37888,-2.07177 -2.77457,-5.60466 -0.933125,-8.15481 1.79538,-2.484 5.15463,-3.25058 7.85007,-1.78357l10.8302 5.89641 7.69179 -7.13428 11.9428 2.68362 25.0975 4.78729 17.1801 20.8181 7.40476 24.1809 27.1965 23.6258 -24.6593 34.1229z"/>
  <polygon class="fil8" points="481.755,1114.23 305.628,1176.96 260.67,1050.73 436.798,988.004 "/>
  <polygon class="fil12" points="473.933,1106.48 432.302,989.6 260.67,1050.73 302.294,1167.61 "/>
  <polygon class="fil8" points="472.517,1104.87 296.39,1167.6 251.432,1041.37 427.559,978.641 "/>
  <path class="fil13" d="M282.651 1001.35l22.0182 9.26275c0,0 25.1637,-5.29165 33.4768,-2.11666 8.30954,3.17499 33.1732,19.018 35.7942,20.8926 2.62102,1.8757 6.66299,10.6093 6.66299,12.4637 0,1.85444 -5.3259,9.79664 -11.0877,10.3258 -5.75939,0.529165 -32.2696,1.32055 -32.2696,1.32055 0,0 6.73858,5.82908 7.86306,7.41658 1.12093,1.58395 1.34654,6.08776 0.450026,6.88387 -0.900053,0.792566 -21.3426,-7.9422 -27.1847,-9.80018 -5.84207,-1.84971 -14.6005,-9.52969 -16.1761,-11.1172 -1.57096,-1.58395 -6.96301,-7.67525 -6.96301,-7.67525l-24.2636 -9.8179 11.6794 -28.0386z"/>
  <path class="fil13" d="M421.468 1180.1l15.3257 -18.3176c0,0 24.7928,-6.82599 30.727,-13.4594 5.92948,-6.62992 4.04197,-17.1223 5.51253,-19.9925 1.47056,-2.8667 -0.692166,-21.4016 0.578774,-22.7553 4.57113,-4.87115 11.0132,-9.62655 14.793,-13.789 6.67598,-7.35043 1.9005,-10.6672 -1.46701,-9.30409 -5.36252,2.17099 -40.8355,26.2515 -40.8355,26.2515 0,0 3.32145,-8.26348 3.59194,-10.1923 0.270488,-1.92531 -1.59222,-6.02988 -2.75449,-6.32635 -1.16227,-0.290568 -15.334,16.8388 -19.676,21.1607 -4.34553,4.32899 -8.6131,15.1627 -9.28401,17.2959 -0.670905,2.13438 -2.67535,10.0175 -2.67535,10.0175l-17.0632 19.8425 23.2266 19.5685z"/>
  <path class="fil14" d="M550.988 728.485l-139.442 46.4189c-8.32135,2.77103 -12.8216,11.7633 -10.0506,20.0894l27.8308 83.5915c2.77103,8.32135 11.7597,12.8216 20.0846,10.0506l139.442 -46.4189c8.32135,-2.77103 12.8216,-11.7633 10.0506,-20.0846l-27.8308 -83.5962c-2.77103,-8.32135 -11.7633,-12.8216 -20.0846,-10.0506z"/>
  <path class="fil15" d="M419.038 776.692c-6.18816,2.0576 -9.53796,8.76665 -7.47918,14.9501l27.8308 83.5927c2.05878,6.18343 8.75839,9.54268 14.9465,7.47918l133.233 -44.3518c6.18343,-2.05878 9.53796,-8.76311 7.47918,-14.9513l-27.8308 -83.5927c-2.0576,-6.18343 -8.76193,-9.53796 -14.9465,-7.47918l-133.233 44.353zm171.094 69.3785l-139.442 46.4236c-10.4297,3.47146 -21.7465,-2.19225 -25.218,-12.6255l-27.8308 -83.5962c-3.47501,-10.4345 2.18753,-21.7477 12.622,-25.218l139.441 -46.4236c10.4345,-3.47619 21.7513,2.18753 25.2227,12.6208l27.8308 83.5962c3.47501,10.4345 -2.19225,21.7477 -12.6255,25.2227z"/>
  <path class="fil3" d="M424.16 833.874c0.862255,2.59621 -0.542158,5.39677 -3.13365,6.26375 -2.59621,0.862255 -5.39677,-0.542158 -6.26257,-3.13365 -0.863436,-2.59621 0.540977,-5.40032 3.13365,-6.26375 2.59503,-0.862255 5.40032,0.542158 6.26257,3.13365z"/>
  <path class="fil4" d="M413.663 844.396l-117.752 -169.16 282.033 -123.853 27.1681 67.9126 -3.17971 32.7562 -206.429 75.3044 22.7931 41.0233 -8.03315 2.67535c-10.4345,3.47028 -16.097,14.7835 -12.622,25.218l16.0214 48.1233z"/>
  <path class="fil16" d="M435.064 862.247l-23.5053 -70.6045c-2.05878,-6.18343 1.29102,-12.8925 7.47918,-14.9501l3.27066 -1.08786 13.4559 24.2176 34.2516 9.6549 16.7218 39.7275 -51.6739 13.0425z"/>
  <path class="fil17" d="M427.431 864.172l-13.7677 -19.7764 -16.0214 -48.1233c-3.47501,-10.4345 2.18753,-21.7477 12.622,-25.218l8.03315 -2.67535 4.01244 7.22523 -3.27066 1.08786c-6.18816,2.0576 -9.53796,8.76665 -7.47918,14.9501l23.5053 70.6045 -7.63391 1.92531zm-7.967 -33.6858c-0.516172,0 -1.04534,0.0838632 -1.56623,0.253952 -2.59267,0.863436 -3.99708,3.66754 -3.13365,6.26375 0.69571,2.07532 2.62456,3.3876 4.69988,3.3876 0.516172,0 1.04534,-0.0838632 1.56269,-0.253952 2.59149,-0.86698 3.9959,-3.66754 3.13365,-6.26375 -0.687442,-2.07532 -2.62102,-3.3876 -4.69634,-3.3876z"/>
  <path class="fil4" d="M419.464 840.392c-2.07532,0 -4.00417,-1.31228 -4.69988,-3.3876 -0.863436,-2.59621 0.540977,-5.40032 3.13365,-6.26375 0.520897,-0.170089 1.05006,-0.253952 1.56623,-0.253952 2.07532,0 4.0089,1.31228 4.69634,3.3876 0.862255,2.59621 -0.542158,5.39677 -3.13365,6.26375 -0.517353,0.170089 -1.04652,0.253952 -1.56269,0.253952z"/>
  <path class="fil18" d="M479.401 828.066l-27.2484 -12.5098c-1.37016,-0.628383 -2.99545,-0.216154 -3.90377,0.987459l-0.275213 0.36262c-1.24614,1.6501 -0.621296,4.0337 1.27094,4.87115l27.5178 12.1472c1.54261,0.679174 3.34626,0.0543339 4.13882,-1.43394 0.865799,-1.62884 0.178357,-3.65454 -1.50009,-4.42467z"/>
  <path class="fil11" d="M420.801 652.052c0,0 -8.01307,3.36634 -15.53,4.33372 -7.51225,0.962655 -17.0467,-3.17971 -23.4014,-2.16745 -6.35352,1.01226 -22.2426,12.1342 -22.2426,12.1342l-6.09248 14.8296 -3.7077 24.364 27.2768 11.1219c0,0 7.01616,3.14192 18.4003,-2.94584 11.3924,-6.09248 31.9271,-23.8018 31.9271,-23.8018l13.7547 -7.14609 -20.3847 -30.7223z"/>
  <path class="fil11" d="M439.886 789.697l18.5846 6.47046c0,0 9.75057,10.4297 11.546,13.3094 1.80011,2.87497 0,11.5093 0,11.5093 0,0 6.47518,6.47164 6.11729,12.5842 -0.36262,6.11729 -10.0837,14.3878 -22.31,14.7469 -12.2169,0.357895 -25.1684,1.80011 -28.0434,0 -2.87497,-1.80011 -16.547,-29.3108 -16.547,-29.3108l-19.4173 -26.7925 37.7644 -18.3436 12.3054 15.8265z"/>
  <path class="fil19" d="M46.1625 1176.19c0,0 -6.05823,-63.6285 8.39222,-83.4876 14.4469,-19.8602 92.5342,-157.122 99.1393,-162.598 6.60393,-5.47119 145.012,70.8254 145.012,70.8254 0,0 -15.5383,36.4273 -17.1553,37.1396 -1.62057,0.708703 -104.243,-36.6021 -104.243,-36.6021l-17.8853 57.3447 26.561 -10.2289 23.8219 54.2406c0,0 -28.2347,17.7636 -76.2045,41.406 -47.9697,23.6388 -87.4386,31.9601 -87.4386,31.9601z"/>
  <path class="fil19" d="M99.5491 1280.17c-0.637833,1.64183 68.8706,52.7747 95.7174,43.5616 26.8398,-9.21786 131.295,-35.1399 145.526,-45.2483 14.2248,-10.1049 92.5637,-103.115 92.5637,-103.115l-24.8684 -30.264 -82.5757 74.7422 -56.9655 17.6514 -26.9272 -61.3087c0,0 -115.536,34.8776 -142.471,103.981z"/>
  <path class="fil20" d="M545.621 1199.27l61.6205 -8.18316 23.2384 84.1833 157.539 -69.1824 -54.6445 -54.087 37.4597 -45.6239 121.078 99.4109c0,0 35.4859,104.701 34.5516,116.269 -0.924857,11.5637 -42.9568,99.5231 -106.706,129.233 -63.7537,29.7135 -150.134,-8.72531 -161.609,-11.4054 -11.4763,-2.68362 -79.5755,-89.1383 -80.8429,-92.0133 -1.26267,-2.88324 -31.6849,-148.601 -31.6849,-148.601z"/>
  <path class="fil21" d="M608.796 611.37c-7.82644,-41.7686 -11.4054,-135.458 -19.2141,-148.759 -10.2171,-17.3963 -33.8016,-41.7898 -71.0664,-56.3159 0,0 -159.205,-13.75 -195.682,8.70523 -36.4769,22.4553 -49.7616,219.629 -49.6824,228.605 0.0791385,8.97572 122.636,164.955 122.636,164.955l38.8901 -30.4849 -78.6589 -129.237 174.802 -76.7584 3.13365 21.7879 -122.045 56.3159 24.201 43.2864 156.289 -54.1284c11.6712,-3.94157 18.6637,-15.8631 16.397,-27.9725z"/>
  <polygon class="fil22" points="414.48,793.909 399.746,797.039 274.122,646.147 395.787,808.56 "/>
  <path class="fil22" d="M608.966 619.295c-0.308286,0.43349 -7.67053,10.6046 -18.9472,14.8804 -11.5211,4.37033 -146.603,45.6818 -146.603,45.6818l-15.9848 -1.91704 8.67925 15.53 156.289 -54.1284c9.08793,-3.07105 15.3127,-10.9837 16.5671,-20.0468z"/>
  <path class="fil22" d="M356.018 648.839l25.0562 -185.073c0,0 72.0326,-7.41303 92.1585,0 20.1272,7.41658 50.2081,20.863 50.2081,20.863l7.37878 87.4516 -174.802 76.7584z"/>
  <path class="fil22" d="M334.466 428.28c0,0 38.0739,46.6279 38.8983,92.4302 0.825639,45.807 15.6552,26.7394 15.6552,26.7394l-7.94574 -83.6836c0,0 -19.598,-27.0098 -46.6078,-35.4859z"/>
  <path class="fil22" d="M525.065 503.934c0,0 -8.40049,-49.1733 15.4308,-73.0035 0,0 -30.1896,13.2374 -39.1901,47.665 -9.00407,34.4264 23.7593,25.3385 23.7593,25.3385z"/>
  <path class="fil23" d="M491.53 469.194c1.2544,-0.458295 -0.967379,33.5441 -0.967379,33.5441l-11.1503 17.3632c0,0 -25.9385,18.5302 -30.8014,20.7886 -4.86288,2.25486 -33.1519,2.68008 -33.1519,2.68008 0,0 -8.46782,4.05378 -12.4673,2.20407 -4.00063,-1.85444 -8.22213,-15.9517 -8.22213,-15.9517 0,0 -15.6836,-8.46664 -15.1344,-40.9063 0.550426,-32.4432 41.8076,-46.6315 41.8076,-46.6315l70.0872 26.9094z"/>
  <path class="fil11" d="M390.591 408.916c0,0 -9.62182,-3.93684 -15.1048,3.40886 -5.48772,7.34689 3.79629,21.0095 3.79629,21.0095l11.3085 -24.4184z"/>
  <path class="fil11" d="M518.544 470.782c0,0 7.139,2.00445 7.20987,8.02134 0.0791385,6.01689 -13.7807,20.7059 -23.4061,19.6098 -9.62537,-1.08786 16.1962,-27.6311 16.1962,-27.6311z"/>
  <path class="fil24" d="M375.077 478.732c0,0 -5.41685,-58.6983 13.7465,-86.5917 19.1598,-27.8898 40.1398,-32.7444 40.1398,-32.7444 0,0 19.8886,-12.9882 44.9365,-4.15772 25.0515,8.82453 46.8653,32.1137 54.9245,56.6573 8.05441,24.5388 -3.55533,60.0945 -17.1187,77.3963 -13.5669,17.3053 -32.2932,30.8097 -32.2932,30.8097 0,0 7.74612,-22.7517 -1.30401,-24.1727 0,0 -36.3517,27.5603 -60.6201,26.0354 -24.2636,-1.52489 -28.9222,-6.45865 -28.9222,-6.45865 0,0 29.6474,-7.08349 42.0107,-17.3089 0,0 -34.6107,10.3293 -50.3947,9.95373l11.6664 -14.7091 -8.04614 3.90023c0,0 -8.12055,-7.2205 -8.72531,-18.6094z"/>
  <path class="fil25" d="M181.607 1217.71c0,0 3.23759,13.0921 -2.59149,22.3005 -5.82081,9.20959 -16.9463,11.0629 -24.3593,21.3934 -7.41776,10.3258 -21.9308,30.6219 -42.3485,31.0684 -20.4142,0.441758 -35.773,-21.006 -47.691,-25.5098 -11.9168,-4.50026 -42.3733,3.97464 -51.903,-15.093 -9.53323,-19.0677 12.9716,-51.1105 -1.85326,-67.5288 -14.8308,-16.4218 -12.6716,-36.119 -4.23804,-45.5483 13.7051,-15.3387 31.7771,-16.8175 52.6991,-4.90068 20.9174,11.918 32.8389,3.04624 42.3733,-0.133472 9.52969,-3.17853 25.6846,-4.35852 31.7759,-1.64537 6.09248,2.70488 10.2183,13.4004 10.2183,13.4004l37.918 72.1967z"/>
  <path class="fil26" d="M185.984 1048.59l-26.561 10.2289 -16.2884 41.3115c0,0 25.8192,-3.57541 31.7818,0 2.77457,1.66663 7.88314,8.72886 12.5464,15.797 14.4717,-8.14654 22.343,-13.0968 22.343,-13.0968l-23.8219 -54.2406z"/>
  <path class="fil26" d="M242.02 1176.19c0,0 -7.10829,2.14265 -18.2089,6.42557 4.81682,11.0888 11.892,29.8317 10.2915,41.0445 -2.3836,16.684 -24.2967,29.397 -24.2967,29.397l59.1413 -15.5584 -26.9272 -61.3087z"/>
  <path class="fil13" d="M705.639 1345.94c0,0 -10.5467,-28.6434 0.212611,-45.4775 12.5381,-19.6181 46.8394,-32.4432 68.5989,-24.0723 31.881,12.2806 29.6486,22.597 29.6486,22.597l-98.4601 46.9527z"/>
  <path class="fil27" d="M819.6 1301.64c0,0 -23.0435,-24.8684 -57.3081,-19.3889 -34.2681,5.47119 -41.8855,12.6799 -41.8855,12.6799l8.90958 -0.250408 -15.9139 12.1672c0,0 -18.8385,30.8109 -18.3341,52.7039 0.499636,21.8883 10.8632,35.897 10.8632,35.897 0,0 4.04197,21.4312 14.1717,30.6148 10.125,9.18361 34.5138,18.9424 52.9188,17.0431 18.4097,-1.89578 34.4441,-11.6511 34.4441,-11.6511 0,0 15.6009,-1.05006 27.2969,-14.9962 11.6971,-13.9555 10.8183,-28.9942 10.8183,-28.9942 0,0 11.1373,-13.7843 11.7338,-21.9261 0.59531,-8.13827 -5.62946,-28.706 -5.62946,-28.706 0,0 -7.83353,-33.9599 -32.0853,-35.193z"/>
  <path class="fil28" d="M630.48 1275.27l9.59229 39.3614 26.2137 31.3093c0,0 7.15081,-43.8734 41.3115,-72.1542 34.1642,-28.2761 93.7472,-21.1253 102.489,-20.726 8.73358,0.395692 42.1029,39.4192 42.1029,39.4192l-18.2727 -48.6737 -45.898 -37.7183 -157.539 69.1824z"/>
  <path class="fil28" d="M915.88 1347.87c-0.00472469,0.00354351 -64.5286,83.0009 -124.07,99.4346 -52.1782,14.4008 -115.545,-2.13792 -130.424,-6.44565 19.5673,6.49526 98.8345,38.1766 158.371,10.4297 45.3735,-21.1477 79.7468,-71.8046 96.1226,-103.419z"/>
  <path class="fil18" d="M464.55 821.032l-30.3018 -13.9095c-1.52607,-0.700435 -3.33445,-0.245684 -4.34199,1.09613l-0.304742 0.403961c-1.38315,1.8379 -0.69571,4.48727 1.41268,5.41685l30.6065 13.5055c1.71152,0.753587 3.71597,0.0626021 4.59594,-1.59222 0.962655,-1.81664 0.199618,-4.06677 -1.66663,-4.92076z"/>
  <polygon class="fil8" points="674.495,916.608 861.46,916.608 861.46,782.61 674.495,782.61 "/>
  <polygon class="fil12" points="674.495,906.674 856.693,906.674 856.693,782.61 674.495,782.61 "/>
  <polygon class="fil8" points="668.936,904.691 855.897,904.691 855.897,770.691 668.936,770.691 "/>
  <polygon class="fil8" points="894.362,765.208 709.585,793.714 689.158,661.281 873.936,632.775 "/>
  <polygon class="fil12" points="888.137,756.12 869.223,633.5 689.158,661.281 708.072,783.896 "/>
  <polygon class="fil8" points="887.049,754.278 702.271,782.784 681.842,650.351 866.618,621.845 "/>
  <path class="fil29" d="M183.904 872.822c1.63356,2.62929 5.08376,3.43367 7.71305,1.80483l19.3594 -12.0255 -5.90822 -9.51316 -19.3594 12.022c-2.62929,1.63238 -3.43839,5.08731 -1.80483,7.71187z"/>
  <path class="fil29" d="M263.359 844.93c0,19.0299 -15.4308,34.4595 -34.4607,34.4595 -19.0299,0 -34.4607,-15.4296 -34.4607,-34.4595 0,-19.031 15.4308,-34.4607 34.4607,-34.4607 19.0299,0 34.4607,15.4296 34.4607,34.4607z"/>
  <path class="fil15" d="M197.126 839.233c0.399236,-3.23759 1.38788,-6.40077 2.77457,-9.38795 1.42922,-2.9671 3.31673,-5.73813 5.61293,-8.14181 4.60066,-4.80028 10.738,-8.12174 17.3101,-9.37614 0.824458,-0.128748 1.65364,-0.224423 2.48282,-0.337815 0.825639,-0.132291 1.66663,-0.0992184 2.49582,-0.153552 0.416954,-0.0129929 0.833907,-0.0460657 1.25086,-0.0377975l1.2544 0.0460657c0.832726,0.0082682 1.65836,0.120479 2.49109,0.207886 3.30492,0.421678 6.55432,1.35008 9.55095,2.78402 2.99545,1.42449 5.78774,3.28366 8.17134,5.56214 2.36707,2.2962 4.43294,4.89241 5.96728,7.76738 -3.70061,-5.35779 -8.83398,-9.59584 -14.7056,-12.0633 -5.85507,-2.53716 -12.4177,-3.13365 -18.6389,-2.0328 -6.22123,1.15873 -12.055,4.20851 -16.6545,8.60483 -4.55932,4.44947 -7.84652,10.2207 -9.36315,16.5588z"/>
  <path class="fil30" d="M256.75 844.93c0,15.38 -12.472,27.8473 -27.852,27.8473 -15.3753,0 -27.8473,-12.4673 -27.8473,-27.8473 0,-15.3812 12.472,-27.8485 27.8473,-27.8485 15.38,0 27.852,12.4673 27.852,27.8485z"/>
  <path class="fil31" d="M202.201 852.838c3.40414,11.5259 14.0666,19.9394 26.6968,19.9394 14.1055,0 25.7554,-10.4888 27.5898,-24.0888 -3.40886,-11.5259 -14.0725,-19.9429 -26.7016,-19.9429 -14.1055,0 -25.7519,10.4876 -27.5851,24.0924z"/>
  <path class="fil32" d="M250.971 838.524c-0.471287,-0.549245 -0.962655,-1.08313 -1.47528,-1.59576 -0.517353,-1.32527 -1.16227,-2.60448 -1.93358,-3.81637l0.137016 -0.613028 0.613028 0.138197c1.167,1.83672 2.05878,3.82109 2.65882,5.88696z"/>
  <path class="fil33" d="M228.898 867.906c-1.22133,0 -2.44621,-0.1004 -3.64628,-0.291749l-0.366163 -0.50436 0.507904 -0.367344c1.15046,0.184263 2.32927,0.275213 3.50454,0.275213 12.1802,0 22.0926,-9.90885 22.0926,-22.0879 0,-2.75922 -0.512628,-5.46764 -1.49536,-8.00126 0.512628,0.512628 1.004,1.04652 1.47528,1.59576 0.59531,2.06705 0.903596,4.22151 0.903596,6.40549 0,12.6669 -10.3081,22.9761 -22.9761,22.9761z"/>
  <path class="fil32" d="M206.122 841.917c0.829182,-6.20469 4.18371,-11.8968 9.32181,-15.6139l0.621296 0.1004 -0.1004 0.616572c-4.40459,3.18798 -7.4461,7.87959 -8.61783,13.0921 -0.428765,0.583499 -0.837451,1.18826 -1.22487,1.80483z"/>
  <path class="fil33" d="M212.156 860.455l-0.329547 -0.150009c-3.80455,-4.22151 -5.90468,-9.68442 -5.90468,-15.3753 0,-1.01345 0.0708703,-2.01744 0.199618,-3.01317 0.387424,-0.616572 0.79611,-1.22133 1.22487,-1.80483 -0.35317,1.56741 -0.537433,3.18444 -0.537433,4.818 0,5.47473 2.01744,10.7203 5.68025,14.7835l-0.0330728 0.62484 -0.300018 0.116936z"/>
  <path class="fil33" d="M214.347 847.5l-0.441758 -0.379156c-0.103943,-0.720515 -0.158277,-1.45875 -0.158277,-2.19107 0,-8.35561 6.79646,-15.1509 15.1509,-15.1509 0.758312,0 1.51308,0.0578774 2.25013,0.166545l0.375613 0.503179 -0.50436 0.375613c-0.69571,-0.103943 -1.40914,-0.158277 -2.12138,-0.158277 -7.86306,0 -14.2626,6.40077 -14.2626,14.2638 0,0.690985 0.0496092,1.3867 0.150009,2.06587l-0.379156 0.500817 -0.0590586 0.00354351z"/>
  <path class="fil33" d="M228.898 860.081c-4.22978,0 -8.29655,-1.78829 -11.1633,-4.90541l0.0295293 -0.628383 0.62484 0.0283481c2.69661,2.93403 6.52597,4.6172 10.5089,4.6172 3.94157,0 7.74258,-1.65364 10.4345,-4.53806l0.62484 -0.0200799 0.0200799 0.62484c-2.85017,3.06278 -6.89095,4.82154 -11.0794,4.82154z"/>
  <path class="fil33" d="M243.566 846.5l-0.0330728 -0.00354351 -0.41341 -0.474831 0.0460657 -1.0914c0,-5.39677 -2.99191,-10.2715 -7.80872,-12.7224l-0.19135 -0.59531 0.591767 -0.192531c5.11683,2.60094 8.29182,7.78038 8.29182,13.5102 0,0.390968 -0.0118117,0.774848 -0.0460657,1.15755l-0.437033 0.412229z"/>
  <path class="fil33" d="M228.898 856.684l-0.445302 -0.441758 0.445302 -0.445302c3.84589,0 7.32563,-1.96665 9.31354,-5.25858l0.608303 -0.150009 0.150009 0.608303c-2.15091,3.56241 -5.91294,5.68734 -10.0718,5.68734z"/>
  <path class="fil33" d="M219.123 839.675l-0.225604 -0.0578774 -0.158277 -0.608303c2.10485,-3.60021 5.99681,-5.83381 10.1593,-5.83381 3.14192,0 6.09248,1.22487 8.31308,3.44193l0 0.62484 -0.62484 0c-2.05406,-2.05051 -4.78374,-3.17971 -7.68825,-3.17971 -3.85062,0 -7.4461,2.06705 -9.39149,5.39677l-0.383881 0.216154z"/>
  <path class="fil29" d="M788.19 530.774c-2.19225,-2.18753 -5.73459,-2.18753 -7.92566,0l-16.1135 16.1171 7.91739 7.92212 16.1218 -16.1183c2.1828,-2.18753 2.1828,-5.73341 0,-7.92094z"/>
  <path class="fil29" d="M784.239 569.438c0,19.0346 -15.4296,34.4607 -34.456,34.4607 -19.0346,0 -34.4642,-15.4261 -34.4642,-34.4607 0,-19.0299 15.4296,-34.4607 34.4642,-34.4607 19.0263,0 34.456,15.4308 34.456,34.4607z"/>
  <path class="fil15" d="M718.006 563.746c0.400417,-3.23759 1.38788,-6.40431 2.7793,-9.38795 1.42922,-2.97065 3.31319,-5.73813 5.60938,-8.14654 4.59948,-4.80028 10.7416,-8.12055 17.3089,-9.37496 0.824458,-0.129929 1.65364,-0.225604 2.484,-0.337815 0.824458,-0.133472 1.66663,-0.0956749 2.49582,-0.154733 0.420497,-0.0118117 0.832726,-0.0448845 1.2544,-0.0366163l1.24968 0.0448845c0.832726,0.00944937 1.66191,0.121661 2.48755,0.212611 3.30846,0.416954 6.55905,1.34654 9.55095,2.78402 3.00018,1.42095 5.79128,3.27893 8.17961,5.55859 2.36589,2.2962 4.42939,4.89241 5.96255,7.76738 -3.70061,-5.35897 -8.83398,-9.59702 -14.7056,-12.068 -5.85389,-2.53361 -12.4165,-3.12892 -18.6342,-2.02925 -6.22477,1.15873 -12.055,4.20497 -16.6592,8.60483 -4.55814,4.45065 -7.84652,10.2219 -9.36315,16.5636z"/>
  <path class="fil30" d="M777.627 569.438c0,15.38 -12.4684,27.8473 -27.8438,27.8473 -15.3848,0 -27.852,-12.4673 -27.852,-27.8473 0,-15.38 12.4673,-27.8473 27.852,-27.8473 15.3753,0 27.8438,12.4673 27.8438,27.8473z"/>
  <path class="fil31" d="M723.081 577.347c3.40414,11.5259 14.0678,19.9382 26.7016,19.9382 14.1055,0 25.7519,-10.4876 27.5851,-24.0888 -3.40414,-11.5259 -14.0678,-19.9382 -26.7016,-19.9382 -14.1055,0 -25.7519,10.4876 -27.5851,24.0888z"/>
  <path class="fil32" d="M771.847 563.029c-0.471287,-0.549245 -0.962655,-1.08313 -1.47174,-1.59576 -0.516172,-1.32527 -1.16227,-2.59976 -1.93358,-3.81282l0.141741 -0.611847 0.608303 0.137016c1.167,1.8379 2.05524,3.81755 2.65527,5.88342z"/>
  <path class="fil33" d="M749.783 592.414c-1.22487,0 -2.44975,-0.0956749 -3.64628,-0.287025l-0.370888 -0.509085 0.509085 -0.366163c1.14928,0.183082 2.33281,0.275213 3.50808,0.275213 12.1802,0 22.0891,-9.90885 22.0891,-22.0891 0,-2.75804 -0.512628,-5.46646 -1.49654,-8.0048 0.509085,0.512628 1.00045,1.04652 1.47174,1.59576 0.600035,2.07177 0.908321,4.22505 0.908321,6.40904 0,12.6669 -10.3057,22.9761 -22.9726,22.9761z"/>
  <path class="fil32" d="M727.006 566.421c0.829182,-6.20469 4.18371,-11.892 9.32181,-15.6092l0.620115 0.1004 -0.103943 0.616572c-4.40459,3.19153 -7.4461,7.88314 -8.61665,13.0921 -0.429946,0.583499 -0.837451,1.18353 -1.22133,1.80011z"/>
  <path class="fil33" d="M733.036 584.96l-0.324822 -0.141741c-3.80928,-4.22505 -5.90468,-9.68797 -5.90468,-15.38 0,-1.01226 0.0708703,-2.02098 0.199618,-3.01671 0.383881,-0.616572 0.791385,-1.21661 1.22133,-1.80011 -0.354351,1.56623 -0.537433,3.18326 -0.537433,4.81682 0,5.47591 2.01626,10.7262 5.67553,14.7847l-0.0295293 0.628383 -0.300018 0.108668z"/>
  <path class="fil33" d="M735.227 572.013l-0.440577 -0.379156c-0.1004,-0.725239 -0.154733,-1.46229 -0.154733,-2.1958 0,-8.35443 6.79646,-15.1462 15.1509,-15.1462 0.754769,0 1.50836,0.0531527 2.25013,0.166545l0.370888 0.499636 -0.50436 0.374431c-0.692166,-0.103943 -1.40796,-0.158277 -2.11666,-0.158277 -7.8666,0 -14.2674,6.40077 -14.2674,14.2638 0,0.692166 0.0543339,1.38788 0.150009,2.06705l-0.375613 0.50436 -0.0626021 0.00354351z"/>
  <path class="fil33" d="M749.783 584.589c-4.23332,0 -8.30009,-1.78711 -11.1633,-4.90895l0.0248046 -0.62484 0.62484 0.0295293c2.69661,2.93285 6.52952,4.6172 10.5136,4.6172 3.93803,0 7.74258,-1.65482 10.4297,-4.53806l0.62484 -0.0212611 0.0248046 0.62484c-2.85843,3.06278 -6.89568,4.82154 -11.0794,4.82154z"/>
  <path class="fil33" d="M764.442 571.004l-0.0295293 0 -0.408685 -0.474831 0.0425222 -1.0914c0,-5.39559 -2.99191,-10.2715 -7.80518,-12.7177l-0.196074 -0.600035 0.591767 -0.19135c5.11683,2.59976 8.29182,7.77565 8.29182,13.5091 0,0.392149 -0.0118117,0.774848 -0.041341,1.15873l-0.445302 0.407504z"/>
  <path class="fil33" d="M749.783 581.197l-0.445302 -0.445302 0.445302 -0.441758c3.84235,0 7.32563,-1.97138 9.30881,-5.2633l0.613028 -0.150009 0.150009 0.608303c-2.15446,3.56359 -5.91767,5.69207 -10.0718,5.69207z"/>
  <path class="fil33" d="M740.003 564.188l-0.220879 -0.0626021 -0.16182 -0.608303c2.10367,-3.59549 5.99563,-5.83381 10.1628,-5.83381 3.13719,0 6.09248,1.22487 8.30836,3.44193l0 0.629564 -0.62484 0c-2.05406,-2.05406 -4.78374,-3.18326 -7.68352,-3.18326 -3.85416,0 -7.45083,2.06587 -9.39622,5.39559l-0.383881 0.220879z"/>
  <path class="fil29" d="M924.309 1099.02c2.60921,-1.65482 3.37933,-5.11683 1.72569,-7.72604l-12.218 -19.246 -9.4541 6.00389 12.2133 19.2425c1.66191,2.61275 5.12156,3.38406 7.73313,1.72569z"/>
  <path class="fil29" d="M930.38 1051.51c0,19.0299 -15.4296,34.456 -34.4642,34.456 -19.0299,0 -34.456,-15.4261 -34.456,-34.456 0,-19.0346 15.4261,-34.4607 34.456,-34.4607 19.0346,0 34.4642,15.4261 34.4642,34.4607z"/>
  <path class="fil15" d="M864.144 1045.81c0.400417,-3.23405 1.38788,-6.40077 2.77457,-9.37968 1.42922,-2.97183 3.31673,-5.74286 5.60938,-8.14654 4.59948,-4.80501 10.7416,-8.12528 17.3136,-9.37968 0.824458,-0.129929 1.65836,-0.220879 2.48282,-0.33309 0.825639,-0.138197 1.66309,-0.1004 2.49582,-0.159458 0.416954,-0.0118117 0.837451,-0.041341 1.25086,-0.0330728l1.2544 0.0425222c0.832726,0.0082682 1.65836,0.124023 2.49109,0.21143 3.30846,0.416954 6.55432,1.34654 9.55095,2.78402 2.99545,1.42095 5.78774,3.28366 8.17489,5.56332 2.36352,2.29147 4.42585,4.89123 5.96373,7.7662 -3.69707,-5.35779 -8.83398,-9.59584 -14.7056,-12.0668 -5.85034,-2.53361 -12.4177,-3.13365 -18.6389,-2.02925 -6.22123,1.15873 -12.0503,4.20379 -16.6545,8.60011 -4.55932,4.45065 -7.84652,10.2219 -9.36315,16.56z"/>
  <path class="fil30" d="M923.763 1051.51c0,15.3753 -12.4625,27.8426 -27.8473,27.8426 -15.3753,0 -27.8426,-12.4673 -27.8426,-27.8426 0,-15.3848 12.4673,-27.8485 27.8426,-27.8485 15.3848,0 27.8473,12.4637 27.8473,27.8485z"/>
  <path class="fil31" d="M869.215 1059.41c3.40886,11.5294 14.0713,19.9382 26.7016,19.9382 14.1055,0 25.7554,-10.4841 27.5898,-24.0888 -3.40886,-11.5259 -14.0725,-19.9382 -26.7016,-19.9382 -14.1055,0 -25.7519,10.4841 -27.5898,24.0888z"/>
  <path class="fil32" d="M917.984 1045.1c-0.470106,-0.550426 -0.962655,-1.08313 -1.47528,-1.59576 -0.511447,-1.32527 -1.15755,-2.60448 -1.92413,-3.81755l0.132291 -0.611847 0.613028 0.141741c1.167,1.83318 2.05406,3.81637 2.65409,5.88342z"/>
  <path class="fil33" d="M895.916 1074.48c-1.22015,0 -2.44621,-0.0956749 -3.64628,-0.287025l-0.366163 -0.50436 0.50436 -0.370888c1.15755,0.183082 2.33281,0.278756 3.50808,0.278756 12.1802,0 22.0891,-9.90885 22.0891,-22.0879 0,-2.76276 -0.512628,-5.47119 -1.49654,-8.0048 0.512628,0.512628 1.00518,1.04534 1.47528,1.59576 0.600035,2.06705 0.908321,4.22505 0.908321,6.40904 0,12.6669 -10.3081,22.9714 -22.9761,22.9714z"/>
  <path class="fil32" d="M873.144 1048.49c0.824458,-6.20469 4.17898,-11.8932 9.32062,-15.6104l0.617753 0.0968561 -0.0968561 0.620115c-4.40813,3.18798 -7.44965,7.87605 -8.62137,13.0838 -0.428765,0.588223 -0.837451,1.1918 -1.22015,1.80955z"/>
  <path class="fil33" d="M879.178 1067.03l-0.33309 -0.146465c-3.80455,-4.22505 -5.89995,-9.68324 -5.89995,-15.3753 0,-1.01699 0.0661456,-2.02098 0.199618,-3.01671 0.3827,-0.617753 0.791385,-1.22133 1.22015,-1.80955 -0.35317,1.57096 -0.537433,3.18798 -0.537433,4.82627 0,5.47119 2.01744,10.7215 5.68025,14.7835l-0.0330728 0.62484 -0.296474 0.113392z"/>
  <path class="fil33" d="M881.365 1054.08l-0.441758 -0.379156c-0.103943,-0.725239 -0.158277,-1.46229 -0.158277,-2.19107 0,-8.35561 6.79646,-15.1509 15.1509,-15.1509 0.758312,0 1.51308,0.0578774 2.25013,0.166545l0.375613 0.50436 -0.50436 0.370888c-0.69571,-0.1004 -1.40914,-0.154733 -2.12138,-0.154733 -7.8666,0 -14.2626,6.39604 -14.2626,14.2638 0,0.690985 0.0496092,1.38315 0.145284,2.06233l-0.370888 0.50436 -0.0626021 0.00354351z"/>
  <path class="fil33" d="M895.916 1066.66c-4.22978,0 -8.29655,-1.79184 -11.1633,-4.90895l0.0295293 -0.629564 0.629564 0.0295293c2.69189,2.93285 6.52125,4.62074 10.5042,4.62074 3.94157,0 7.74612,-1.65364 10.4345,-4.53806l0.62484 -0.0200799 0.0212611 0.620115c-2.85489,3.0675 -6.89214,4.82627 -11.0806,4.82627z"/>
  <path class="fil33" d="M910.584 1053.07l-0.0330728 0 -0.41341 -0.479556 0.0425222 -1.08668c0,-5.39677 -2.99191,-10.2715 -7.80518,-12.7224l-0.19135 -0.59531 0.59531 -0.19135c5.11329,2.59976 8.28828,7.77447 8.28828,13.5091 0,0.387424 -0.0118117,0.774848 -0.0460657,1.154l-0.437033 0.412229z"/>
  <path class="fil33" d="M895.916 1063.26l-0.441758 -0.440577 0.441758 -0.446483c3.84589,0 7.32563,-1.96311 9.31708,-5.26212l0.60476 -0.15119 0.150009 0.609484c-2.14619,3.56241 -5.91294,5.69088 -10.0718,5.69088z"/>
  <path class="fil33" d="M886.141 1046.25l-0.220879 -0.0626021 -0.158277 -0.603579c2.10012,-3.59667 5.99208,-5.83853 10.1545,-5.83853 3.14192,0 6.09248,1.22487 8.31308,3.44666l0 0.62484 -0.62484 0c-2.05406,-2.05051 -4.78374,-3.18326 -7.68825,-3.18326 -3.85062,0 -7.4461,2.06587 -9.39149,5.39559l-0.383881 0.220879z"/>
  <path class="fil13" d="M199.142 1176.19c-0.778392,-1.86271 -5.40032,-2.60803 -9.90058,-2.89151 -17.1258,-31.7558 -60.4866,-32.8649 -60.4866,-32.8649 0,0 -3.46319,13.6012 15.0174,36.1521 18.4842,22.5521 18.3637,67.2169 18.3637,67.2169 0,0 9.72577,-5.2007 19.5637,-16.0261 8.21741,-9.03832 16.3096,-22.33 12.8677,-39.8563 2.72851,-4.51326 5.41685,-9.74585 4.57468,-11.7302z"/>
  <path class="fil34" d="M616.916 1205.64l-4.33372 -15.6092c-1.09495,-3.95102 -4.9243,-6.49644 -8.99226,-5.98027l-54.1071 6.90867c-4.86643,0.621296 -8.12055,5.33417 -6.97482,10.1049l4.03724 16.8388c1.00045,4.1589 5.01289,6.86733 9.23794,6.23304l54.4071 -8.13355c4.90068,-0.728783 8.05086,-5.5834 6.72559,-10.3624z"/>
  <path class="fil34" d="M715.152 1143.58l12.6503 10.1215c3.20452,2.56314 7.80046,2.3836 10.7924,-0.412229l39.8315 -37.2683c3.58367,-3.35098 3.46319,-9.07967 -0.258677,-12.2759l-13.1299 -11.292c-3.24113,-2.78875 -8.07921,-2.63756 -11.142,0.35317l-39.3519 38.4365c-3.54706,3.46201 -3.25885,9.24149 0.608303,12.3373z"/>
  <path class="fil0" d="M1187.74 0c9.99271,0 18.3849,7.77565 19.0145,17.8806 0.653188,10.4888 -7.30909,19.5259 -17.7896,20.2098 -0.545701,0.041341 -23.2844,1.80837 -53.3228,14.0796 -40.0901,16.3805 -73.672,42.7986 -99.8066,78.5219 -6.21651,8.49617 -18.1511,10.3459 -26.6472,4.12465 -8.50089,-6.21651 -10.3459,-18.1463 -4.12938,-26.6425 73.3874,-100.306 177.102,-107.866 181.481,-108.14 0.405142,-0.0212611 0.804378,-0.034254 1.20007,-0.034254z"/>
  <path class="fil0" d="M1927.57 343.704c0,9.98799 -7.77565,18.3838 -17.8794,19.0086 -10.4923,0.659094 -19.5307,-7.29964 -20.2146,-17.7837 -0.041341,-0.545701 -1.80365,-23.2844 -14.076,-53.324 -16.3793,-40.0901 -42.7974,-73.6708 -78.5207,-99.8066 -8.50089,-6.21651 -10.3459,-18.1511 -4.12938,-26.6508 6.21651,-8.49617 18.1511,-10.3423 26.6472,-4.12583 100.306,73.3885 107.865,177.098 108.136,181.482 0.0248046,0.403961 0.0366163,0.799653 0.0366163,1.20007z"/>
  <path class="fil0" d="M1359.78 1095.63c-7.4213,-6.68307 -8.45483,-18.0802 -2.158,-26.0094 6.53778,-8.23395 18.4971,-9.62182 26.7429,-3.11711 0.43349,0.337815 18.509,14.2426 49.0446,25.2263 40.7528,14.6595 83.3836,17.505 126.708,8.45128 10.3081,-2.15091 20.413,4.45774 22.5639,14.767 2.15328,10.3093 -4.45538,20.4095 -14.7635,22.5639 -121.662,25.4141 -203.779,-38.3774 -207.216,-41.1024l-0.921314 -0.779573z"/>
  <polygon class="fil1" points="1830.22,359.622 1720.38,417.233 1679.02,308.393 1787.84,269.996 "/>
  <path class="fil2" d="M1794.87 364.376c0,0 -34.5611,7.12483 -49.2572,0 -14.7009,-7.12128 -27.2603,-50.8152 -27.2603,-50.8152l-72.446 -5.16763 65.5456 123.141 67.9244 -32.1763 15.4934 -34.9816z"/>
  <path class="fil3" d="M1770.88 772.067c55.6781,-24.4514 80.9929,-89.41 56.545,-145.088l-186.448 -424.571c-24.4514,-55.6733 -89.41,-80.9917 -145.083,-56.5403l-542.549 238.252 0 746.955 817.535 -359.008z"/>
  <path class="fil4" d="M1039.45 399.778c20.4591,0 37.0474,16.5884 37.0474,37.0474 0,2.68008 -0.287025,5.29283 -0.824458,7.81345 -3.50454,-15.3222 -17.2132,-26.7476 -33.5937,-26.7476 -19.0346,0 -34.4642,15.4261 -34.4642,34.456 0,1.27921 0.0708703,2.54188 0.207886,3.78447 -3.44193,-5.6212 -5.42512,-12.2346 -5.42512,-19.3062 0,-20.4591 16.5919,-37.0474 37.0522,-37.0474z"/>
  <path class="fil4" d="M1185.59 887.869c20.4591,0 37.0474,16.5848 37.0474,37.0486 0,1.58749 -0.1004,3.15018 -0.291749,4.68334 -2.34581,-16.7514 -16.7348,-29.6439 -34.1311,-29.6439 -19.0263,0 -34.456,15.4261 -34.456,34.4607 0,4.74595 0.95793,9.27101 2.69543,13.3886 -4.95856,-6.30037 -7.91267,-14.2508 -7.91267,-22.8887 0,-20.4638 16.5848,-37.0486 37.0486,-37.0486z"/>
  <path class="fil4" d="M1711.19 609.553c14.6465,0 27.3099,8.50089 33.322,20.8382l-9.4541 5.8716c-6.31691,-7.22995 -15.6056,-11.7964 -25.9598,-11.7964 -17.4636,0 -31.894,12.9882 -34.1559,29.8305 -0.520897,-2.48282 -0.800834,-5.05896 -0.800834,-7.69651 0,-20.4591 16.5884,-37.0474 37.0486,-37.0474zm36.6978 31.9271c0.233872,1.67018 0.354351,3.38288 0.354351,5.12038 0,7.04214 -1.96665,13.6225 -5.37551,19.2307 0.450026,-2.2336 0.692166,-4.5416 0.692166,-6.90513 0,-4.65382 -0.926038,-9.0962 -2.59621,-13.1464l6.92521 -4.29946z"/>
  <path class="fil4" d="M1634.17 189.395c2.50881,4.1341 4.80382,8.46309 6.80473,13.013l0 0 21.5091 48.9737 -23.1888 -5.34953 -148.313 128.698 -35.3477 36.1486c0,0 -5.1629,-4.76248 -2.78402,-10.3258 2.3836,-5.56214 8.13827,-39.3649 11.2176,-47.0898 3.08286,-7.72959 26.1228,-22.0312 26.1228,-22.0312 0,0 77.8546,-109.235 94.9378,-122.74 9.50961,-7.5217 31.4522,-14.5461 49.0411,-19.2968z"/>
  <path class="fil4" d="M1592.41 430.639c10.9719,0 39.9862,3.61202 39.9862,3.61202l120.861 23.8561 21.0473 47.9319 -3.67108 12.1543 -72.0125 -15.6883 -115.878 -33.2476 -20.6563 -8.72531 1.58749 -12.3137 12.3515 -5.56214c0,0 5.92121,-11.1384 13.867,-11.9216 0.662637,-0.0673268 1.51308,-0.0956749 2.51708,-0.0956749z"/>
  <path class="fil4" d="M1387.44 193.991l15.8879 129.766 15.3588 69.121 42.7525 73.2173 -223.517 97.2636c0,0 -1.60876,-2.59621 -1.69616,-4.84162 -0.0921314,-2.24659 -2.21706,-36.6151 -2.21706,-36.6151l-8.07094 -74.9465 -42.6734 -69.0832 -65.0873 -66.1362 269.262 -117.745z"/>
  <path class="fil5" d="M1237.22 517.573l191.357 -82.6678c3.85062,-1.66663 5.6212,-6.13382 3.95929,-9.98326l-54.537 -126.246c-1.66191,-3.84944 -6.13382,-5.6212 -9.97972,-3.95811l-191.357 82.6631c-3.85062,1.66309 -5.62592,6.13382 -3.95811,9.98444l54.5323 126.245c1.66663,3.84944 6.13264,5.6212 9.98326,3.96283z"/>
  <path class="fil6" d="M1254.83 503.685l151.567 -65.4747c3.11711,-1.35008 4.54987,-4.97628 3.20452,-8.09221l-32.7728 -75.8714c-1.34654,-3.11711 -4.97155,-4.5546 -8.09221,-3.20452l-151.563 65.4747c-3.12066,1.34535 -4.5546,4.96683 -3.20806,8.08748l32.7728 75.8678c1.35008,3.12066 4.97037,4.55814 8.09221,3.21279z"/>
  <path class="fil7" d="M1277.52 383.298l25.6598 -11.0841c3.23405,-1.39614 4.72941,-5.15936 3.32972,-8.39222l-9.16707 -21.2304c-1.39969,-3.23405 -5.15818,-4.72587 -8.39577,-3.325l-25.661 11.0829c-3.24113,1.40087 -4.72941,5.15463 -3.32854,8.39222l9.16707 21.2268c1.39969,3.23759 5.15463,4.72941 8.39577,3.32972z"/>
  <path class="fil8" d="M1244.19 564.616l106.931 -46.1897 106.931 -46.1944c3.56714,-1.54143 4.52861,-6.15863 1.86625,-8.99226l-25.9929 -27.6973c-1.18353,-1.25913 -3.0297,-1.64183 -4.60893,-0.954387l-96.4226 41.6481 -96.4178 41.6528c-1.58277,0.682717 -2.56669,2.29147 -2.46274,4.01244l2.34581 37.9109c0.238597,3.87897 4.2593,6.34643 7.82999,4.80382z"/>
  <path class="fil9" d="M1234.01 521.902l2.33754 37.7313c1.46701,1.35835 3.82109,1.83318 6.05941,0.86698l106.931 -46.1944 106.93 -46.1944c2.2336,-0.966198 3.50454,-3.00018 3.5258,-5.00462l-25.8724 -27.5638c-1.18353,-1.25913 -3.0297,-1.64183 -4.60893,-0.954387l-96.4226 41.6481 -96.4178 41.6528c-1.58277,0.682717 -2.56669,2.29147 -2.46274,4.01244z"/>
  <path class="fil10" d="M1243.5 519.498l0.720515 31.1215c1.26622,1.07605 3.35453,1.37961 5.39205,0.496092l97.4384 -42.0899 97.4396 -42.0934c2.03752,-0.879973 3.25058,-2.61275 3.33799,-4.26757l-22.1647 -21.8552c-1.01581,-1.00045 -2.64937,-1.24968 -4.09512,-0.62484l-87.8603 37.9558 -87.8544 37.9487c-1.44575,0.62484 -2.38833,1.99146 -2.35407,3.40886z"/>
  <path class="fil11" d="M1338.28 291.188l8.67925 41.6694c0,0 -8.17489,26.4594 -7.55832,31.5018 0.62484,5.04124 9.57103,36.6435 9.57103,36.6435 0,0 6.02161,0.641376 7.30436,-2.57141 1.28748,-3.21633 0,-18.6838 0,-18.6838 0,0 4.50026,4.86288 5.78774,7.75912 0.970923,2.18753 3.05097,23.901 4.00535,34.3225 0.287025,3.13719 2.91631,5.52906 6.0665,5.52906 3.06278,0 5.646,-2.27494 6.03815,-5.31291l1.57096 -12.2381 10.2833 -2.05406 4.82154 -11.2507 10.8219 -23.1427 -6.813 -26.1181 -15.2596 -20.1638 -3.21279 -35.8899 -42.1064 0z"/>
  <path class="fil11" d="M1192.5 353.463l28.6895 31.4428c0,0 26.235,8.87178 29.9557,12.3302 3.72069,3.45375 24.0935,29.2139 24.0935,29.2139 0,0 -3.0049,5.25858 -6.36297,4.41758 -3.35925,-0.842175 -15.1391,-10.9424 -15.1391,-10.9424 0,0 1.30047,6.49644 2.89269,9.22967 1.20361,2.07059 17.5841,16.4762 25.472,23.3506 2.37888,2.07177 2.77457,5.60466 0.933125,8.15481 -1.79538,2.484 -5.15463,3.25058 -7.85007,1.78357l-10.8302 -5.89641 -7.69179 7.13428 -11.9428 -2.68362 -25.0975 -4.78729 -17.1801 -20.8181 -7.40476 -24.1809 -27.1965 -23.6258 24.6593 -34.1229z"/>
  <polygon class="fil8" points="1456.25,389.624 1632.37,326.895 1677.33,453.123 1501.2,515.852 "/>
  <polygon class="fil12" points="1464.07,397.378 1505.7,514.256 1677.33,453.123 1635.71,336.249 "/>
  <path class="fil13" d="M1655.35 502.505l-22.0182 -9.26275c0,0 -25.1637,5.29165 -33.4768,2.11666 -8.30954,-3.17499 -33.1732,-19.018 -35.7942,-20.8926 -2.62102,-1.8757 -6.66299,-10.6093 -6.66299,-12.4637 0,-1.85444 5.3259,-9.79664 11.0877,-10.3258 5.75939,-0.529165 32.2696,-1.32055 32.2696,-1.32055 0,0 -6.73858,-5.82908 -7.86306,-7.41658 -1.12093,-1.58395 -1.34654,-6.08776 -0.450026,-6.88387 0.900053,-0.792566 21.3426,7.9422 27.1847,9.80018 5.84207,1.84971 14.6005,9.52969 16.1761,11.1172 1.57096,1.58395 6.96301,7.67525 6.96301,7.67525l24.2636 9.8179 -11.6794 28.0386z"/>
  <path class="fil13" d="M1516.53 323.757l-15.3257 18.3176c0,0 -24.7928,6.82599 -30.727,13.4594 -5.92948,6.62992 -4.04197,17.1223 -5.51253,19.9925 -1.47056,2.8667 0.692166,21.4016 -0.578774,22.7553 -4.57113,4.87115 -11.0132,9.62655 -14.793,13.789 -6.67598,7.35043 -1.9005,10.6672 1.46701,9.30409 5.36252,-2.17099 40.8355,-26.2515 40.8355,-26.2515 0,0 -3.32145,8.26348 -3.59194,10.1923 -0.270488,1.92531 1.59222,6.02988 2.75449,6.32635 1.16227,0.290568 15.334,-16.8388 19.676,-21.1607 4.34553,-4.32899 8.6131,-15.1627 9.28401,-17.2959 0.670905,-2.13438 2.67535,-10.0175 2.67535,-10.0175l17.0632 -19.8425 -23.2266 -19.5685z"/>
  <path class="fil14" d="M1387.01 775.371l139.442 -46.4189c8.32135,-2.77103 12.8216,-11.7633 10.0506,-20.0894l-27.8308 -83.5915c-2.77103,-8.32135 -11.7597,-12.8216 -20.0846,-10.0506l-139.442 46.4189c-8.32135,2.77103 -12.8216,11.7633 -10.0506,20.0846l27.8308 83.5962c2.77103,8.32135 11.7633,12.8216 20.0846,10.0506z"/>
  <path class="fil15" d="M1518.96 727.163c6.18816,-2.0576 9.53796,-8.76665 7.47918,-14.9501l-27.8308 -83.5927c-2.05878,-6.18343 -8.75839,-9.54268 -14.9465,-7.47918l-133.233 44.3518c-6.18343,2.05878 -9.53796,8.76311 -7.47918,14.9513l27.8308 83.5927c2.0576,6.18343 8.76193,9.53796 14.9465,7.47918l133.233 -44.353zm-171.094 -69.3785l139.442 -46.4236c10.4297,-3.47146 21.7465,2.19225 25.218,12.6255l27.8308 83.5962c3.47501,10.4345 -2.18753,21.7477 -12.622,25.218l-139.441 46.4236c-10.4345,3.47619 -21.7513,-2.18753 -25.2227,-12.6208l-27.8308 -83.5962c-3.47501,-10.4345 2.19225,-21.7477 12.6255,-25.2227z"/>
  <path class="fil3" d="M1513.84 669.982c-0.862255,-2.59621 0.542158,-5.39677 3.13365,-6.26375 2.59621,-0.862255 5.39677,0.542158 6.26257,3.13365 0.863436,2.59621 -0.540977,5.40032 -3.13365,6.26375 -2.59503,0.862255 -5.40032,-0.542158 -6.26257,-3.13365z"/>
  <path class="fil4" d="M1524.34 659.46l117.752 169.16 -282.033 123.853 -27.1681 -67.9126 3.17971 -32.7562 206.429 -75.3044 -22.7931 -41.0233 8.03315 -2.67535c10.4345,-3.47028 16.097,-14.7835 12.622,-25.218l-16.0214 -48.1233z"/>
  <path class="fil16" d="M1502.94 641.609l23.5053 70.6045c2.05878,6.18343 -1.29102,12.8925 -7.47918,14.9501l-3.27066 1.08786 -13.4559 -24.2176 -34.2516 -9.6549 -16.7218 -39.7275 51.6739 -13.0425z"/>
  <path class="fil17" d="M1510.57 639.683l13.7677 19.7764 16.0214 48.1233c3.47501,10.4345 -2.18753,21.7477 -12.622,25.218l-8.03315 2.67535 -4.01244 -7.22523 3.27066 -1.08786c6.18816,-2.0576 9.53796,-8.76665 7.47918,-14.9501l-23.5053 -70.6045 7.63391 -1.92531zm7.967 33.6858c0.516172,0 1.04534,-0.0838632 1.56623,-0.253952 2.59267,-0.863436 3.99708,-3.66754 3.13365,-6.26375 -0.69571,-2.07532 -2.62456,-3.3876 -4.69988,-3.3876 -0.516172,0 -1.04534,0.0838632 -1.56269,0.253952 -2.59149,0.86698 -3.9959,3.66754 -3.13365,6.26375 0.687442,2.07532 2.62102,3.3876 4.69634,3.3876z"/>
  <path class="fil4" d="M1518.54 663.464c2.07532,0 4.00417,1.31228 4.69988,3.3876 0.863436,2.59621 -0.540977,5.40032 -3.13365,6.26375 -0.520897,0.170089 -1.05006,0.253952 -1.56623,0.253952 -2.07532,0 -4.0089,-1.31228 -4.69634,-3.3876 -0.862255,-2.59621 0.542158,-5.39677 3.13365,-6.26375 0.517353,-0.170089 1.04652,-0.253952 1.56269,-0.253952z"/>
  <path class="fil18" d="M1458.6 675.79l27.2484 12.5098c1.37016,0.628383 2.99545,0.216154 3.90377,-0.987459l0.275213 -0.36262c1.24614,-1.6501 0.621296,-4.0337 -1.27094,-4.87115l-27.5178 -12.1472c-1.54261,-0.679174 -3.34626,-0.0543339 -4.13882,1.43394 -0.865799,1.62884 -0.178357,3.65454 1.50009,4.42467z"/>
  <path class="fil11" d="M1517.2 851.804c0,0 8.01307,-3.36634 15.53,-4.33372 7.51225,-0.962655 17.0467,3.17971 23.4014,2.16745 6.35352,-1.01226 22.2426,-12.1342 22.2426,-12.1342l6.09248 -14.8296 3.7077 -24.364 -27.2768 -11.1219c0,0 -7.01616,-3.14192 -18.4003,2.94584 -11.3924,6.09248 -31.9271,23.8018 -31.9271,23.8018l-13.7547 7.14609 20.3847 30.7223z"/>
  <path class="fil11" d="M1498.11 714.159l-18.5846 -6.47046c0,0 -9.75057,-10.4297 -11.546,-13.3094 -1.80011,-2.87497 0,-11.5093 0,-11.5093 0,0 -6.47518,-6.47164 -6.11729,-12.5842 0.36262,-6.11729 10.0837,-14.3878 22.31,-14.7469 12.2169,-0.357895 25.1684,-1.80011 28.0434,0 2.87497,1.80011 16.547,29.3108 16.547,29.3108l19.4173 26.7925 -37.7644 18.3436 -12.3054 -15.8265z"/>
  <path class="fil19" d="M1891.84 327.662c0,0 6.05823,63.6285 -8.39222,83.4876 -14.4469,19.8602 -92.5342,157.122 -99.1393,162.598 -6.60393,5.47119 -145.012,-70.8254 -145.012,-70.8254 0,0 15.5383,-36.4273 17.1553,-37.1396 1.62057,-0.708703 104.243,36.6021 104.243,36.6021l17.8853 -57.3447 -26.561 10.2289 -23.8219 -54.2406c0,0 28.2347,-17.7636 76.2045,-41.406 47.9697,-23.6388 87.4386,-31.9601 87.4386,-31.9601z"/>
  <path class="fil19" d="M1838.45 223.681c0.637833,-1.64183 -68.8706,-52.7747 -95.7174,-43.5616 -26.8398,9.21786 -131.295,35.1399 -145.526,45.2483 -14.2248,10.1049 -92.5637,103.115 -92.5637,103.115l24.8684 30.264 82.5757 -74.7422 56.9655 -17.6514 26.9272 61.3087c0,0 115.536,-34.8776 142.471,-103.981z"/>
  <path class="fil20" d="M1392.38 304.585l-61.6205 8.18316 -23.2384 -84.1833 -157.539 69.1824 54.6445 54.087 -37.4597 45.6239 -121.078 -99.4109c0,0 -35.4859,-104.701 -34.5516,-116.269 0.924857,-11.5637 42.9568,-99.5231 106.706,-129.233 63.7537,-29.7135 150.134,8.72531 161.609,11.4054 11.4763,2.68362 79.5755,89.1383 80.8429,92.0133 1.26267,2.88324 31.6849,148.601 31.6849,148.601z"/>
  <path class="fil26" d="M1329.2 892.486c7.82644,41.7686 11.4054,135.458 19.2141,148.759 10.2171,17.3963 33.8016,41.7898 71.0664,56.3159 0,0 159.205,13.75 195.682,-8.70523 36.4769,-22.4553 49.7616,-219.629 49.6824,-228.605 -0.0791385,-8.97572 -122.636,-164.955 -122.636,-164.955l-38.8901 30.4849 78.6589 129.237 -174.802 76.7584 -3.13365 -21.7879 122.045 -56.3159 -24.201 -43.2864 -156.289 54.1284c-11.6712,3.94157 -18.6637,15.8631 -16.397,27.9725z"/>
  <polygon class="fil19" points="1523.52,709.947 1538.25,706.817 1663.88,857.709 1542.21,695.295 "/>
  <path class="fil19" d="M1329.03 884.56c0.308286,-0.43349 7.67053,-10.6046 18.9472,-14.8804 11.5211,-4.37033 146.603,-45.6818 146.603,-45.6818l15.9848 1.91704 -8.67925 -15.53 -156.289 54.1284c-9.08793,3.07105 -15.3127,10.9837 -16.5671,20.0468z"/>
  <path class="fil19" d="M1581.98 855.017l-25.0562 185.073c0,0 -72.0326,7.41303 -92.1585,0 -20.1272,-7.41658 -50.2081,-20.863 -50.2081,-20.863l-7.37878 -87.4516 174.802 -76.7584z"/>
  <path class="fil19" d="M1603.53 1075.58c0,0 -38.0739,-46.6279 -38.8983,-92.4302 -0.825639,-45.807 -15.6552,-26.7394 -15.6552,-26.7394l7.94574 83.6836c0,0 19.598,27.0098 46.6078,35.4859z"/>
  <path class="fil19" d="M1412.94 999.922c0,0 8.40049,49.1733 -15.4308,73.0035 0,0 30.1896,-13.2374 39.1901,-47.665 9.00407,-34.4264 -23.7593,-25.3385 -23.7593,-25.3385z"/>
  <path class="fil11" d="M1446.47 1034.66c-1.2544,0.458295 0.967379,-33.5441 0.967379,-33.5441l11.1503 -17.3632c0,0 25.9385,-18.5302 30.8014,-20.7886 4.86288,-2.25486 33.1519,-2.68008 33.1519,-2.68008 0,0 8.46782,-4.05378 12.4673,-2.20407 4.00063,1.85444 8.22213,15.9517 8.22213,15.9517 0,0 15.6836,8.46664 15.1344,40.9063 -0.550426,32.4432 -41.8076,46.6315 -41.8076,46.6315l-70.0872 -26.9094z"/>
  <path class="fil11" d="M1547.41 1094.94c0,0 9.62182,3.93684 15.1048,-3.40886 5.48772,-7.34689 -3.79629,-21.0095 -3.79629,-21.0095l-11.3085 24.4184z"/>
  <path class="fil11" d="M1419.46 1033.07c0,0 -7.139,-2.00445 -7.20987,-8.02134 -0.0791385,-6.01689 13.7807,-20.7059 23.4061,-19.6098 9.62537,1.08786 -16.1962,27.6311 -16.1962,27.6311z"/>
  <path class="fil24" d="M1562.92 1025.12c0,0 5.41685,58.6983 -13.7465,86.5917 -19.1598,27.8898 -40.1398,32.7444 -40.1398,32.7444 0,0 -19.8886,12.9882 -44.9365,4.15772 -25.0515,-8.82453 -46.8653,-32.1137 -54.9245,-56.6573 -8.05441,-24.5388 3.55533,-60.0945 17.1187,-77.3963 13.5669,-17.3053 32.2932,-30.8097 32.2932,-30.8097 0,0 -7.74612,22.7517 1.30401,24.1727 0,0 36.3517,-27.5603 60.6201,-26.0354 24.2636,1.52489 28.9222,6.45865 28.9222,6.45865 0,0 -29.6474,7.08349 -42.0107,17.3089 0,0 34.6107,-10.3293 50.3947,-9.95373l-11.6664 14.7091 8.04614 -3.90023c0,0 8.12055,7.2205 8.72531,18.6094z"/>
  <path class="fil25" d="M1756.39 286.146c0,0 -3.23759,-13.0921 2.59149,-22.3005 5.82081,-9.20959 16.9463,-11.0629 24.3593,-21.3934 7.41776,-10.3258 21.9308,-30.6219 42.3485,-31.0684 20.4142,-0.441758 35.773,21.006 47.691,25.5098 11.9168,4.50026 42.3733,-3.97464 51.903,15.093 9.53323,19.0677 -12.9716,51.1105 1.85326,67.5288 14.8308,16.4218 12.6716,36.119 4.23804,45.5483 -13.7051,15.3387 -31.7771,16.8175 -52.6991,4.90068 -20.9174,-11.918 -32.8389,-3.04624 -42.3733,0.133472 -9.52969,3.17853 -25.6846,4.35852 -31.7759,1.64537 -6.09248,-2.70488 -10.2183,-13.4004 -10.2183,-13.4004l-37.918 -72.1967z"/>
  <path class="fil26" d="M1752.02 455.268l26.561 -10.2289 16.2884 -41.3115c0,0 -25.8192,3.57541 -31.7818,0 -2.77457,-1.66663 -7.88314,-8.72886 -12.5464,-15.797 -14.4717,8.14654 -22.343,13.0968 -22.343,13.0968l23.8219 54.2406z"/>
  <path class="fil26" d="M1695.98 327.662c0,0 7.10829,-2.14265 18.2089,-6.42557 -4.81682,-11.0888 -11.892,-29.8317 -10.2915,-41.0445 2.3836,-16.684 24.2967,-29.397 24.2967,-29.397l-59.1413 15.5584 26.9272 61.3087z"/>
  <path class="fil13" d="M1232.36 157.914c0,0 10.5467,28.6434 -0.212611,45.4775 -12.5381,19.6181 -46.8394,32.4432 -68.5989,24.0723 -31.881,-12.2806 -29.6486,-22.597 -29.6486,-22.597l98.4601 -46.9527z"/>
  <path class="fil24" d="M1118.4 202.212c0,0 23.0435,24.8684 57.3081,19.3889 34.2681,-5.47119 41.8855,-12.6799 41.8855,-12.6799l-8.90958 0.250408 15.9139 -12.1672c0,0 18.8385,-30.8109 18.3341,-52.7039 -0.499636,-21.8883 -10.8632,-35.897 -10.8632,-35.897 0,0 -4.04197,-21.4312 -14.1717,-30.6148 -10.125,-9.18361 -34.5138,-18.9424 -52.9188,-17.0431 -18.4097,1.89578 -34.4441,11.6511 -34.4441,11.6511 0,0 -15.6009,1.05006 -27.2969,14.9962 -11.6971,13.9555 -10.8183,28.9942 -10.8183,28.9942 0,0 -11.1373,13.7843 -11.7338,21.9261 -0.59531,8.13827 5.62946,28.706 5.62946,28.706 0,0 7.83353,33.9599 32.0853,35.193z"/>
  <path class="fil28" d="M1307.52 228.585l-9.59229 -39.3614 -26.2137 -31.3093c0,0 -7.15081,43.8734 -41.3115,72.1542 -34.1642,28.2761 -93.7472,21.1253 -102.489,20.726 -8.73358,-0.395692 -42.1029,-39.4192 -42.1029,-39.4192l18.2727 48.6737 45.898 37.7183 157.539 -69.1824z"/>
  <path class="fil28" d="M1022.12 155.984c0.00472469,-0.00354351 64.5286,-83.0009 124.07,-99.4346 52.1782,-14.4008 115.545,2.13792 130.424,6.44565 -19.5673,-6.49526 -98.8345,-38.1766 -158.371,-10.4297 -45.3735,21.1477 -79.7468,71.8046 -96.1226,103.419z"/>
  <path class="fil18" d="M1473.45 682.823l30.3018 13.9095c1.52607,0.700435 3.33445,0.245684 4.34199,-1.09613l0.304742 -0.403961c1.38315,-1.8379 0.69571,-4.48727 -1.41268,-5.41685l-30.6065 -13.5055c-1.71152,-0.753587 -3.71597,-0.0626021 -4.59594,1.59222 -0.962655,1.81664 -0.199618,4.06677 1.66663,4.92076z"/>
  <polygon class="fil8" points="1263.51,587.248 1076.54,587.248 1076.54,721.246 1263.51,721.246 "/>
  <polygon class="fil12" points="1263.51,597.181 1081.31,597.181 1081.31,721.246 1263.51,721.246 "/>
  <polygon class="fil8" points="1269.06,599.165 1082.1,599.165 1082.1,733.165 1269.06,733.165 "/>
  <polygon class="fil8" points="1043.64,738.648 1228.41,710.142 1248.84,842.574 1064.06,871.081 "/>
  <polygon class="fil12" points="1049.86,747.736 1068.78,870.356 1248.84,842.574 1229.93,719.959 "/>
  <polygon class="fil8" points="1050.95,749.577 1235.73,721.072 1256.16,853.505 1071.38,882.01 "/>
  <path class="fil29" d="M1754.1 631.034c-1.63356,-2.62929 -5.08376,-3.43367 -7.71305,-1.80483l-19.3594 12.0255 5.90822 9.51316 19.3594 -12.022c2.62929,-1.63238 3.43839,-5.08731 1.80483,-7.71187z"/>
  <path class="fil29" d="M1674.64 658.926c0,-19.0299 15.4308,-34.4595 34.4607,-34.4595 19.0299,0 34.4607,15.4296 34.4607,34.4595 0,19.031 -15.4308,34.4607 -34.4607,34.4607 -19.0299,0 -34.4607,-15.4296 -34.4607,-34.4607z"/>
  <path class="fil15" d="M1740.87 664.623c-0.399236,3.23759 -1.38788,6.40077 -2.77457,9.38795 -1.42922,2.9671 -3.31673,5.73813 -5.61293,8.14181 -4.60066,4.80028 -10.738,8.12174 -17.3101,9.37614 -0.824458,0.128748 -1.65364,0.224423 -2.48282,0.337815 -0.825639,0.132291 -1.66663,0.0992184 -2.49582,0.153552 -0.416954,0.0129929 -0.833907,0.0460657 -1.25086,0.0377975l-1.2544 -0.0460657c-0.832726,-0.0082682 -1.65836,-0.120479 -2.49109,-0.207886 -3.30492,-0.421678 -6.55432,-1.35008 -9.55095,-2.78402 -2.99545,-1.42449 -5.78774,-3.28366 -8.17134,-5.56214 -2.36707,-2.2962 -4.43294,-4.89241 -5.96728,-7.76738 3.70061,5.35779 8.83398,9.59584 14.7056,12.0633 5.85507,2.53716 12.4177,3.13365 18.6389,2.0328 6.22123,-1.15873 12.055,-4.20851 16.6545,-8.60483 4.55932,-4.44947 7.84652,-10.2207 9.36315,-16.5588z"/>
  <path class="fil30" d="M1681.25 658.926c0,-15.38 12.472,-27.8473 27.852,-27.8473 15.3753,0 27.8473,12.4673 27.8473,27.8473 0,15.3812 -12.472,27.8485 -27.8473,27.8485 -15.38,0 -27.852,-12.4673 -27.852,-27.8485z"/>
  <path class="fil31" d="M1735.8 651.018c-3.40414,-11.5259 -14.0666,-19.9394 -26.6968,-19.9394 -14.1055,0 -25.7554,10.4888 -27.5898,24.0888 3.40886,11.5259 14.0725,19.9429 26.7016,19.9429 14.1055,0 25.7519,-10.4876 27.5851,-24.0924z"/>
  <path class="fil32" d="M1687.03 665.331c0.471287,0.549245 0.962655,1.08313 1.47528,1.59576 0.517353,1.32527 1.16227,2.60448 1.93358,3.81637l-0.137016 0.613028 -0.613028 -0.138197c-1.167,-1.83672 -2.05878,-3.82109 -2.65882,-5.88696z"/>
  <path class="fil33" d="M1709.1 635.95c1.22133,0 2.44621,0.1004 3.64628,0.291749l0.366163 0.50436 -0.507904 0.367344c-1.15046,-0.184263 -2.32927,-0.275213 -3.50454,-0.275213 -12.1802,0 -22.0926,9.90885 -22.0926,22.0879 0,2.75922 0.512628,5.46764 1.49536,8.00126 -0.512628,-0.512628 -1.004,-1.04652 -1.47528,-1.59576 -0.59531,-2.06705 -0.903596,-4.22151 -0.903596,-6.40549 0,-12.6669 10.3081,-22.9761 22.9761,-22.9761z"/>
  <path class="fil32" d="M1731.88 661.939c-0.829182,6.20469 -4.18371,11.8968 -9.32181,15.6139l-0.621296 -0.1004 0.1004 -0.616572c4.40459,-3.18798 7.4461,-7.87959 8.61783,-13.0921 0.428765,-0.583499 0.837451,-1.18826 1.22487,-1.80483z"/>
  <path class="fil33" d="M1725.84 643.401l0.329547 0.150009c3.80455,4.22151 5.90468,9.68442 5.90468,15.3753 0,1.01345 -0.0708703,2.01744 -0.199618,3.01317 -0.387424,0.616572 -0.79611,1.22133 -1.22487,1.80483 0.35317,-1.56741 0.537433,-3.18444 0.537433,-4.818 0,-5.47473 -2.01744,-10.7203 -5.68025,-14.7835l0.0330728 -0.62484 0.300018 -0.116936z"/>
  <path class="fil33" d="M1723.65 656.356l0.441758 0.379156c0.103943,0.720515 0.158277,1.45875 0.158277,2.19107 0,8.35561 -6.79646,15.1509 -15.1509,15.1509 -0.758312,0 -1.51308,-0.0578774 -2.25013,-0.166545l-0.375613 -0.503179 0.50436 -0.375613c0.69571,0.103943 1.40914,0.158277 2.12138,0.158277 7.86306,0 14.2626,-6.40077 14.2626,-14.2638 0,-0.690985 -0.0496092,-1.3867 -0.150009,-2.06587l0.379156 -0.500817 0.0590586 -0.00354351z"/>
  <path class="fil33" d="M1709.1 643.775c4.22978,0 8.29655,1.78829 11.1633,4.90541l-0.0295293 0.628383 -0.62484 -0.0283481c-2.69661,-2.93403 -6.52597,-4.6172 -10.5089,-4.6172 -3.94157,0 -7.74258,1.65364 -10.4345,4.53806l-0.62484 0.0200799 -0.0200799 -0.62484c2.85017,-3.06278 6.89095,-4.82154 11.0794,-4.82154z"/>
  <path class="fil33" d="M1694.43 657.356l0.0330728 0.00354351 0.41341 0.474831 -0.0460657 1.0914c0,5.39677 2.99191,10.2715 7.80872,12.7224l0.19135 0.59531 -0.591767 0.192531c-5.11683,-2.60094 -8.29182,-7.78038 -8.29182,-13.5102 0,-0.390968 0.0118117,-0.774848 0.0460657,-1.15755l0.437033 -0.412229z"/>
  <path class="fil33" d="M1709.1 647.172l0.445302 0.441758 -0.445302 0.445302c-3.84589,0 -7.32563,1.96665 -9.31354,5.25858l-0.608303 0.150009 -0.150009 -0.608303c2.15091,-3.56241 5.91294,-5.68734 10.0718,-5.68734z"/>
  <path class="fil33" d="M1718.88 664.181l0.225604 0.0578774 0.158277 0.608303c-2.10485,3.60021 -5.99681,5.83381 -10.1593,5.83381 -3.14192,0 -6.09248,-1.22487 -8.31308,-3.44193l0 -0.62484 0.62484 0c2.05406,2.05051 4.78374,3.17971 7.68825,3.17971 3.85062,0 7.4461,-2.06705 9.39149,-5.39677l0.383881 -0.216154z"/>
  <path class="fil29" d="M1149.81 973.082c2.19225,2.18753 5.73459,2.18753 7.92566,0l16.1135 -16.1171 -7.91739 -7.92212 -16.1218 16.1183c-2.1828,2.18753 -2.1828,5.73341 0,7.92094z"/>
  <path class="fil29" d="M1153.76 934.418c0,-19.0346 15.4296,-34.4607 34.456,-34.4607 19.0346,0 34.4642,15.4261 34.4642,34.4607 0,19.0299 -15.4296,34.4607 -34.4642,34.4607 -19.0263,0 -34.456,-15.4308 -34.456,-34.4607z"/>
  <path class="fil15" d="M1219.99 940.11c-0.400417,3.23759 -1.38788,6.40431 -2.7793,9.38795 -1.42922,2.97065 -3.31319,5.73813 -5.60938,8.14654 -4.59948,4.80028 -10.7416,8.12055 -17.3089,9.37496 -0.824458,0.129929 -1.65364,0.225604 -2.484,0.337815 -0.824458,0.133472 -1.66663,0.0956749 -2.49582,0.154733 -0.420497,0.0118117 -0.832726,0.0448845 -1.2544,0.0366163l-1.24968 -0.0448845c-0.832726,-0.00944937 -1.66191,-0.121661 -2.48755,-0.212611 -3.30846,-0.416954 -6.55905,-1.34654 -9.55095,-2.78402 -3.00018,-1.42095 -5.79128,-3.27893 -8.17961,-5.55859 -2.36589,-2.2962 -4.42939,-4.89241 -5.96255,-7.76738 3.70061,5.35897 8.83398,9.59702 14.7056,12.068 5.85389,2.53361 12.4165,3.12892 18.6342,2.02925 6.22477,-1.15873 12.055,-4.20497 16.6592,-8.60483 4.55814,-4.45065 7.84652,-10.2219 9.36315,-16.5636z"/>
  <path class="fil30" d="M1160.37 934.418c0,-15.38 12.4684,-27.8473 27.8438,-27.8473 15.3848,0 27.852,12.4673 27.852,27.8473 0,15.38 -12.4673,27.8473 -27.852,27.8473 -15.3753,0 -27.8438,-12.4673 -27.8438,-27.8473z"/>
  <path class="fil31" d="M1214.92 926.509c-3.40414,-11.5259 -14.0678,-19.9382 -26.7016,-19.9382 -14.1055,0 -25.7519,10.4876 -27.5851,24.0888 3.40414,11.5259 14.0678,19.9382 26.7016,19.9382 14.1055,0 25.7519,-10.4876 27.5851,-24.0888z"/>
  <path class="fil32" d="M1166.15 940.827c0.471287,0.549245 0.962655,1.08313 1.47174,1.59576 0.516172,1.32527 1.16227,2.59976 1.93358,3.81282l-0.141741 0.611847 -0.608303 -0.137016c-1.167,-1.8379 -2.05524,-3.81755 -2.65527,-5.88342z"/>
  <path class="fil33" d="M1188.22 911.442c1.22487,0 2.44975,0.0956749 3.64628,0.287025l0.370888 0.509085 -0.509085 0.366163c-1.14928,-0.183082 -2.33281,-0.275213 -3.50808,-0.275213 -12.1802,0 -22.0891,9.90885 -22.0891,22.0891 0,2.75804 0.512628,5.46646 1.49654,8.0048 -0.509085,-0.512628 -1.00045,-1.04652 -1.47174,-1.59576 -0.600035,-2.07177 -0.908321,-4.22505 -0.908321,-6.40904 0,-12.6669 10.3057,-22.9761 22.9726,-22.9761z"/>
  <path class="fil32" d="M1210.99 937.434c-0.829182,6.20469 -4.18371,11.892 -9.32181,15.6092l-0.620115 -0.1004 0.103943 -0.616572c4.40459,-3.19153 7.4461,-7.88314 8.61665,-13.0921 0.429946,-0.583499 0.837451,-1.18353 1.22133,-1.80011z"/>
  <path class="fil33" d="M1204.96 918.896l0.324822 0.141741c3.80928,4.22505 5.90468,9.68797 5.90468,15.38 0,1.01226 -0.0708703,2.02098 -0.199618,3.01671 -0.383881,0.616572 -0.791385,1.21661 -1.22133,1.80011 0.354351,-1.56623 0.537433,-3.18326 0.537433,-4.81682 0,-5.47591 -2.01626,-10.7262 -5.67553,-14.7847l0.0295293 -0.628383 0.300018 -0.108668z"/>
  <path class="fil33" d="M1202.77 931.843l0.440577 0.379156c0.1004,0.725239 0.154733,1.46229 0.154733,2.1958 0,8.35443 -6.79646,15.1462 -15.1509,15.1462 -0.754769,0 -1.50836,-0.0531527 -2.25013,-0.166545l-0.370888 -0.499636 0.50436 -0.374431c0.692166,0.103943 1.40796,0.158277 2.11666,0.158277 7.8666,0 14.2674,-6.40077 14.2674,-14.2638 0,-0.692166 -0.0543339,-1.38788 -0.150009,-2.06705l0.375613 -0.50436 0.0626021 -0.00354351z"/>
  <path class="fil33" d="M1188.22 919.267c4.23332,0 8.30009,1.78711 11.1633,4.90895l-0.0248046 0.62484 -0.62484 -0.0295293c-2.69661,-2.93285 -6.52952,-4.6172 -10.5136,-4.6172 -3.93803,0 -7.74258,1.65482 -10.4297,4.53806l-0.62484 0.0212611 -0.0248046 -0.62484c2.85843,-3.06278 6.89568,-4.82154 11.0794,-4.82154z"/>
  <path class="fil33" d="M1173.56 932.851l0.0295293 0 0.408685 0.474831 -0.0425222 1.0914c0,5.39559 2.99191,10.2715 7.80518,12.7177l0.196074 0.600035 -0.591767 0.19135c-5.11683,-2.59976 -8.29182,-7.77565 -8.29182,-13.5091 0,-0.392149 0.0118117,-0.774848 0.041341,-1.15873l0.445302 -0.407504z"/>
  <path class="fil33" d="M1188.22 922.659l0.445302 0.445302 -0.445302 0.441758c-3.84235,0 -7.32563,1.97138 -9.30881,5.2633l-0.613028 0.150009 -0.150009 -0.608303c2.15446,-3.56359 5.91767,-5.69207 10.0718,-5.69207z"/>
  <path class="fil33" d="M1198 939.668l0.220879 0.0626021 0.16182 0.608303c-2.10367,3.59549 -5.99563,5.83381 -10.1628,5.83381 -3.13719,0 -6.09248,-1.22487 -8.30836,-3.44193l0 -0.629564 0.62484 0c2.05406,2.05406 4.78374,3.18326 7.68352,3.18326 3.85416,0 7.45083,-2.06587 9.39622,-5.39559l0.383881 -0.220879z"/>
  <path class="fil29" d="M1013.69 404.841c-2.60921,1.65482 -3.37933,5.11683 -1.72569,7.72604l12.218 19.246 9.4541 -6.00389 -12.2133 -19.2425c-1.66191,-2.61275 -5.12156,-3.38406 -7.73313,-1.72569z"/>
  <path class="fil29" d="M1007.62 452.347c0,-19.0299 15.4296,-34.456 34.4642,-34.456 19.0299,0 34.456,15.4261 34.456,34.456 0,19.0346 -15.4261,34.4607 -34.456,34.4607 -19.0346,0 -34.4642,-15.4261 -34.4642,-34.4607z"/>
  <path class="fil15" d="M1073.86 458.048c-0.400417,3.23405 -1.38788,6.40077 -2.77457,9.37968 -1.42922,2.97183 -3.31673,5.74286 -5.60938,8.14654 -4.59948,4.80501 -10.7416,8.12528 -17.3136,9.37968 -0.824458,0.129929 -1.65836,0.220879 -2.48282,0.33309 -0.825639,0.138197 -1.66309,0.1004 -2.49582,0.159458 -0.416954,0.0118117 -0.837451,0.041341 -1.25086,0.0330728l-1.2544 -0.0425222c-0.832726,-0.0082682 -1.65836,-0.124023 -2.49109,-0.21143 -3.30846,-0.416954 -6.55432,-1.34654 -9.55095,-2.78402 -2.99545,-1.42095 -5.78774,-3.28366 -8.17489,-5.56332 -2.36352,-2.29147 -4.42585,-4.89123 -5.96373,-7.7662 3.69707,5.35779 8.83398,9.59584 14.7056,12.0668 5.85034,2.53361 12.4177,3.13365 18.6389,2.02925 6.22123,-1.15873 12.0503,-4.20379 16.6545,-8.60011 4.55932,-4.45065 7.84652,-10.2219 9.36315,-16.56z"/>
  <path class="fil30" d="M1014.24 452.347c0,-15.3753 12.4625,-27.8426 27.8473,-27.8426 15.3753,0 27.8426,12.4673 27.8426,27.8426 0,15.3848 -12.4673,27.8485 -27.8426,27.8485 -15.3848,0 -27.8473,-12.4637 -27.8473,-27.8485z"/>
  <path class="fil31" d="M1068.79 444.443c-3.40886,-11.5294 -14.0713,-19.9382 -26.7016,-19.9382 -14.1055,0 -25.7554,10.4841 -27.5898,24.0888 3.40886,11.5259 14.0725,19.9382 26.7016,19.9382 14.1055,0 25.7519,-10.4841 27.5898,-24.0888z"/>
  <path class="fil32" d="M1020.02 458.756c0.470106,0.550426 0.962655,1.08313 1.47528,1.59576 0.511447,1.32527 1.15755,2.60448 1.92413,3.81755l-0.132291 0.611847 -0.613028 -0.141741c-1.167,-1.83318 -2.05406,-3.81637 -2.65409,-5.88342z"/>
  <path class="fil33" d="M1042.08 429.376c1.22015,0 2.44621,0.0956749 3.64628,0.287025l0.366163 0.50436 -0.50436 0.370888c-1.15755,-0.183082 -2.33281,-0.278756 -3.50808,-0.278756 -12.1802,0 -22.0891,9.90885 -22.0891,22.0879 0,2.76276 0.512628,5.47119 1.49654,8.0048 -0.512628,-0.512628 -1.00518,-1.04534 -1.47528,-1.59576 -0.600035,-2.06705 -0.908321,-4.22505 -0.908321,-6.40904 0,-12.6669 10.3081,-22.9714 22.9761,-22.9714z"/>
  <path class="fil32" d="M1064.86 455.364c-0.824458,6.20469 -4.17898,11.8932 -9.32062,15.6104l-0.617753 -0.0968561 0.0968561 -0.620115c4.40813,-3.18798 7.44965,-7.87605 8.62137,-13.0838 0.428765,-0.588223 0.837451,-1.1918 1.22015,-1.80955z"/>
  <path class="fil33" d="M1058.82 436.826l0.33309 0.146465c3.80455,4.22505 5.89995,9.68324 5.89995,15.3753 0,1.01699 -0.0661456,2.02098 -0.199618,3.01671 -0.3827,0.617753 -0.791385,1.22133 -1.22015,1.80955 0.35317,-1.57096 0.537433,-3.18798 0.537433,-4.82627 0,-5.47119 -2.01744,-10.7215 -5.68025,-14.7835l0.0330728 -0.62484 0.296474 -0.113392z"/>
  <path class="fil33" d="M1056.63 449.777l0.441758 0.379156c0.103943,0.725239 0.158277,1.46229 0.158277,2.19107 0,8.35561 -6.79646,15.1509 -15.1509,15.1509 -0.758312,0 -1.51308,-0.0578774 -2.25013,-0.166545l-0.375613 -0.50436 0.50436 -0.370888c0.69571,0.1004 1.40914,0.154733 2.12138,0.154733 7.8666,0 14.2626,-6.39604 14.2626,-14.2638 0,-0.690985 -0.0496092,-1.38315 -0.145284,-2.06233l0.370888 -0.50436 0.0626021 -0.00354351z"/>
  <path class="fil33" d="M1042.08 437.196c4.22978,0 8.29655,1.79184 11.1633,4.90895l-0.0295293 0.629564 -0.629564 -0.0295293c-2.69189,-2.93285 -6.52125,-4.62074 -10.5042,-4.62074 -3.94157,0 -7.74612,1.65364 -10.4345,4.53806l-0.62484 0.0200799 -0.0212611 -0.620115c2.85489,-3.0675 6.89214,-4.82627 11.0806,-4.82627z"/>
  <path class="fil33" d="M1027.42 450.781l0.0330728 0 0.41341 0.479556 -0.0425222 1.08668c0,5.39677 2.99191,10.2715 7.80518,12.7224l0.19135 0.59531 -0.59531 0.19135c-5.11329,-2.59976 -8.28828,-7.77447 -8.28828,-13.5091 0,-0.387424 0.0118117,-0.774848 0.0460657,-1.154l0.437033 -0.412229z"/>
  <path class="fil33" d="M1042.08 440.593l0.441758 0.440577 -0.441758 0.446483c-3.84589,0 -7.32563,1.96311 -9.31708,5.26212l-0.60476 0.15119 -0.150009 -0.609484c2.14619,-3.56241 5.91294,-5.69088 10.0718,-5.69088z"/>
  <path class="fil33" d="M1051.86 457.602l0.220879 0.0626021 0.158277 0.603579c-2.10012,3.59667 -5.99208,5.83853 -10.1545,5.83853 -3.14192,0 -6.09248,-1.22487 -8.31308,-3.44666l0 -0.62484 0.62484 0c2.05406,2.05051 4.78374,3.18326 7.68825,3.18326 3.85062,0 7.4461,-2.06587 9.39149,-5.39559l0.383881 -0.220879z"/>
  <path class="fil35" d="M1738.86 327.662c0.778392,1.86271 5.40032,2.60803 9.90058,2.89151 17.1258,31.7558 60.4866,32.8649 60.4866,32.8649 0,0 3.46319,-13.6012 -15.0174,-36.1521 -18.4842,-22.5521 -18.3637,-67.2169 -18.3637,-67.2169 0,0 -9.72577,5.2007 -19.5637,16.0261 -8.21741,9.03832 -16.3096,22.33 -12.8677,39.8563 -2.72851,4.51326 -5.41685,9.74585 -4.57468,11.7302z"/>
  <path class="fil34" d="M1321.08 298.217l4.33372 15.6092c1.09495,3.95102 4.9243,6.49644 8.99226,5.98027l54.1071 -6.90867c4.86643,-0.621296 8.12055,-5.33417 6.97482,-10.1049l-4.03724 -16.8388c-1.00045,-4.1589 -5.01289,-6.86733 -9.23794,-6.23304l-54.4071 8.13355c-4.90068,0.728783 -8.05086,5.5834 -6.72559,10.3624z"/>
  <path class="fil34" d="M1222.85 360.276l-12.6503 -10.1215c-3.20452,-2.56314 -7.80046,-2.3836 -10.7924,0.412229l-39.8315 37.2683c-3.58367,3.35098 -3.46319,9.07967 0.258677,12.2759l13.1299 11.292c3.24113,2.78875 8.07921,2.63756 11.142,-0.35317l39.3519 -38.4365c3.54706,-3.46201 3.25885,-9.24149 -0.608303,-12.3373z"/>
 </g>
</svg>
