<?xml version="1.0" encoding="UTF-8"?>
<!DOCTYPE svg PUBLIC "-//W3C//DTD SVG 1.1//EN" "http://www.w3.org/Graphics/SVG/1.1/DTD/svg11.dtd">
<!-- Creator: CorelDRAW -->
<svg xmlns="http://www.w3.org/2000/svg" xml:space="preserve" width="1803px" height="1131px" style="shape-rendering:geometricPrecision; text-rendering:geometricPrecision; image-rendering:optimizeQuality; fill-rule:evenodd; clip-rule:evenodd"
viewBox="0 0 1671.64 1048.36"
 xmlns:xlink="http://www.w3.org/1999/xlink">
 <defs>
  <style type="text/css">
   <![CDATA[
    .fil1 {fill: #4f4b4b;fill-rule:nonzero}
    .fil0 {fill: #595656;fill-rule:nonzero}
    .fil2 {fill:#FEFEFE;fill-rule:nonzero}
   ]]>
  </style>
 </defs>
 <g id="Layer_x0020_1">
  <metadata id="CorelCorpID_0Corel-Layer"/>
  <path class="fil0" d="M1617.72 1048.36l-685.844 0c38.4667,-72.6392 43.2571,-161.657 0.900255,-232.439 -28.2934,-47.2908 -76.1591,-85.8506 -90.3935,-138.086 -12.9935,-47.6774 5.47162,-98.8703 37.354,-138.588 31.9251,-39.7185 76.1164,-69.8157 120.568,-98.0588 29.9581,-19.0477 60.9873,-38.1349 82.1017,-65.1798 21.0717,-27.046 30.2593,-64.4449 12.7383,-93.4995 -21.9106,-36.3453 -70.129,-43.7171 -118.601,-43.7171 -16.301,0 -32.6282,0.834543 -47.9983,1.68004 -13.0285,0.722832 -26.1841,1.1171 -39.3549,1.1171 -78.3386,0 -157.698,-13.9014 -220.633,-55.0141 -64.2324,-41.9593 -105.009,-118.072 -89.6203,-186.574l1038.78 0c20.9096,0 37.9268,15.0875 38.4536,33.8756l0.0010952 0c0.0076664,0.297895 0.010952,0.596884 0.010952,0.896969l0 978.81c0,0.300085 -0.0032856,0.599075 -0.010952,0.896969l-0.0010952 0c-0.526791,18.7882 -17.544,33.8789 -38.4536,33.8789z"/>
  <path class="fil1" d="M1671.64 34.7726l0 978.81 0 0.0032856c0,0.29899 -0.0032856,0.596884 -0.010952,0.893684l0 0.0032856c-0.0076664,0.297895 -0.0186184,0.593599 -0.0339512,0.889303l0 0.0021904c-0.0153328,0.295704 -0.0350464,0.590313 -0.0569504,0.883827l0 0.0021904c-0.021904,0.293514 -0.0481888,0.585932 -0.0777592,0.877256l0 0.0021904c-0.0295704,0.291323 -0.0624264,0.582647 -0.0996632,0.870684l0 0.0032856c-0.0372368,0.289133 -0.076664,0.577171 -0.121567,0.864113l0 0.0021904c-0.043808,0.286943 -0.0909016,0.57279 -0.142376,0.857542l0 0.0021904c-0.0503792,0.284752 -0.105139,0.568409 -0.163185,0.849876l0 0.0021904c-0.0580456,0.282562 -0.119377,0.562933 -0.183994,0.843304l0 0.0021904c-0.0646168,0.279276 -0.133614,0.557457 -0.204802,0.834543l0 0.0021904c-0.071188,0.277086 -0.146757,0.553076 -0.224516,0.826876l0 0.0021904c-0.0777592,0.2738 -0.158804,0.5476 -0.24423,0.81921l0 0.0021904c-0.0843304,0.27161 -0.170851,0.541029 -0.262848,0.810448l0 0.0010952c-0.0909016,0.268324 -0.186184,0.535553 -0.283657,0.801687l0 0.0021904c-0.0974728,0.266134 -0.199326,0.530077 -0.302275,0.792925l0 0.0010952c-0.104044,0.262848 -0.209183,0.523506 -0.319799,0.783068l0 0.0010952c-0.10952,0.259563 -0.223421,0.51803 -0.339512,0.774307l0 0.0010952 -0.357035 0.76445 0 0.0010952c-0.121567,0.252991 -0.24861,0.503792 -0.375654,0.753498l0 0.0010952c-0.128138,0.249706 -0.257372,0.497221 -0.392082,0.743641l0 0.0010952c-0.133614,0.24642 -0.27161,0.49065 -0.4107,0.732689l0 0.0010952c-0.13909,0.242039 -0.281467,0.481888 -0.427128,0.720642l0 0.0010952 -0.443556 0.710785 0 0.0010952 -0.461079 0.698738 0 0.0010952c-0.156614,0.231087 -0.314323,0.458889 -0.476412,0.686691l-0.49284 0.675739 -0.508173 0.662596 0 0.0010952c-0.171946,0.21904 -0.348274,0.434795 -0.524601,0.649454l0 0.0010952c-0.177422,0.214659 -0.357035,0.426033 -0.538839,0.636311l0 0.0010952c-0.181803,0.210278 -0.366892,0.418367 -0.554171,0.624264 -0.187279,0.205898 -0.376749,0.40851 -0.568409,0.610027l0 0.0010952c-0.19166,0.201517 -0.385511,0.399748 -0.582647,0.595789l0 0.0010952c-0.197136,0.196041 -0.395367,0.390987 -0.596884,0.582647l-0.611122 0.568409c-0.205898,0.187279 -0.413986,0.371273 -0.624264,0.554171l-0.637407 0.538839c-0.214659,0.177422 -0.431509,0.351559 -0.650549,0.523506l0 0.0010952c-0.21904,0.171946 -0.439175,0.341703 -0.662596,0.508173l-0.675739 0.49284c-0.227802,0.16209 -0.456699,0.320894 -0.687786,0.476412 -0.231087,0.156614 -0.464365,0.311037 -0.699833,0.461079 -0.235468,0.151138 -0.472031,0.29899 -0.710785,0.443556 -0.238754,0.145662 -0.479698,0.288038 -0.722832,0.427128 -0.243134,0.13909 -0.487364,0.277086 -0.733784,0.4107l-0.744736 0.393177c-0.249706,0.128138 -0.501602,0.252991 -0.754593,0.374559l-0.765545 0.357035 0 0.0010952c-0.256277,0.116091 -0.513649,0.227802 -0.774307,0.338417 -0.259563,0.10952 -0.521315,0.21685 -0.785259,0.320894 -0.262848,0.104044 -0.527887,0.204802 -0.79402,0.302275 -0.266134,0.0974728 -0.534458,0.19166 -0.803877,0.282562 -0.269419,0.0909016 -0.538839,0.179613 -0.811544,0.263943 -0.272705,0.0843304 -0.54541,0.16647 -0.8214,0.24423 -0.274895,0.0777592 -0.551981,0.153328 -0.829067,0.224516 -0.278181,0.071188 -0.556362,0.140186 -0.836733,0.204802 -0.280371,0.0646168 -0.561838,0.125948 -0.845495,0.183994 -0.282562,0.0580456 -0.566219,0.112806 -0.852066,0.163185 -0.285847,0.0514744 -0.57279,0.098568 -0.859732,0.142376 -0.288038,0.043808 -0.577171,0.0843304 -0.867399,0.121567 -0.290228,0.0372368 -0.580456,0.0700928 -0.872875,0.0996632 -0.292419,0.0295704 -0.584837,0.05476 -0.879446,0.0777592 -0.294609,0.021904 -0.589218,0.0416176 -0.886017,0.0569504 -0.295704,0.0153328 -0.593599,0.0262848 -0.892588,0.0339512 -0.297895,0.0076664 -0.596884,0.010952 -0.896969,0.010952l-169.883 0c34.7726,-72.6392 39.0998,-161.657 0.811544,-232.439 -25.5773,-47.2908 -68.8498,-85.8506 -81.7162,-138.086 -11.7449,-47.6774 4.94593,-98.8703 33.7683,-138.588 28.8607,-39.7185 68.8114,-69.8157 108.992,-98.0588 27.0843,-19.0477 55.1346,-38.1349 74.2206,-65.1798 19.0477,-27.046 27.3548,-64.4449 11.5171,-93.4995 -26.4688,-48.5656 -95.3963,-45.3982 -150.608,-42.0371 -81.8312,5.02368 -168.57,-5.87246 -235.025,-53.897 -58.0697,-41.9593 -94.9287,-118.072 -81.0196,-186.574l488.941 0c19.2021,0 34.7726,15.5705 34.7726,34.7726z"/>
  <path class="fil0" d="M465.679 1048.36l-427.451 0c-21.11,0 -38.228,-17.1191 -38.228,-38.2302l0 -479.271c1.99546,-0.297895 3.9942,-0.548695 5.94694,-0.808258 46.5526,-6.24264 93.103,-12.4864 139.653,-18.7301 24.0769,-3.23851 48.5141,-6.46059 72.7553,-6.46059 13.9047,0 27.7425,1.05906 41.4117,3.7872 37.5468,7.47584 74.2864,29.9001 88.6433,65.3638 21.1538,52.2443 -11.4667,112.513 1.19048,167.477 12.402,53.9791 64.1317,88.639 92.677,136.081 24.124,40.1391 30.9197,88.7704 27.6089,135.451 -0.849876,11.8457 -2.29444,23.6563 -4.20776,35.3399z"/>
  <path class="fil1" d="M237.846 1048.36l-203.073 0c-0.300085,0 -0.599075,-0.0032856 -0.896969,-0.010952 -0.29899,-0.0076664 -0.594694,-0.0186184 -0.891493,-0.0339512l-0.0010952 0c-0.295704,-0.0153328 -0.590313,-0.0350464 -0.884922,-0.0569504 -0.294609,-0.021904 -0.588123,-0.0481888 -0.880541,-0.0777592 -0.292419,-0.0295704 -0.583742,-0.0635216 -0.872875,-0.0996632 -0.290228,-0.0372368 -0.578266,-0.0777592 -0.866304,-0.121567l-0.0010952 0c-0.286943,-0.043808 -0.573885,-0.0909016 -0.858637,-0.142376 -0.285847,-0.0514744 -0.570599,-0.105139 -0.853161,-0.163185 -0.282562,-0.0580456 -0.564028,-0.119377 -0.8444,-0.183994 -0.280371,-0.0646168 -0.558552,-0.133614 -0.836733,-0.204802l-0.0010952 0c-0.277086,-0.071188 -0.554171,-0.145662 -0.829067,-0.224516 -0.274895,-0.0777592 -0.548695,-0.159899 -0.820305,-0.24423 -0.272705,-0.0843304 -0.543219,-0.173042 -0.812639,-0.263943 -0.269419,-0.0909016 -0.535553,-0.185089 -0.802782,-0.282562 -0.266134,-0.0974728 -0.530077,-0.198231 -0.79402,-0.302275l-0.0010952 0c-0.262848,-0.104044 -0.524601,-0.210278 -0.784164,-0.320894 -0.260658,-0.10952 -0.519125,-0.222326 -0.775402,-0.338417l0 -0.0010952 -0.76445 -0.357035 -0.0010952 0c-0.252991,-0.121567 -0.504887,-0.24642 -0.753498,-0.374559l-0.0010952 0c-0.249706,-0.128138 -0.497221,-0.259563 -0.743641,-0.393177l-0.0010952 0c-0.24642,-0.133614 -0.49065,-0.27161 -0.732689,-0.4107l-0.722832 -0.427128c-0.238754,-0.145662 -0.476412,-0.292419 -0.710785,-0.443556l-0.0010952 0 -0.698738 -0.461079c-0.231087,-0.156614 -0.459984,-0.314323 -0.687786,-0.476412l-0.675739 -0.49284 -0.662596 -0.508173 -0.0010952 -0.0010952c-0.21904,-0.171946 -0.434795,-0.346083 -0.649454,-0.523506l-0.0010952 0c-0.214659,-0.177422 -0.427128,-0.357035 -0.636311,-0.538839l-0.0010952 0c-0.210278,-0.181803 -0.418367,-0.367987 -0.623169,-0.554171l-0.0010952 0c-0.205898,-0.187279 -0.40851,-0.376749 -0.610027,-0.568409 -0.201517,-0.192755 -0.399748,-0.385511 -0.596884,-0.582647l-0.0010952 -0.0010952c-0.196041,-0.196041 -0.389891,-0.395367 -0.581551,-0.595789l-0.0010952 -0.0010952c-0.19166,-0.201517 -0.38113,-0.404129 -0.568409,-0.610027 -0.187279,-0.205898 -0.370178,-0.413986 -0.553076,-0.624264l-0.0010952 -0.0010952c-0.181803,-0.210278 -0.362511,-0.422747 -0.538839,-0.636311l0 -0.0010952c-0.177422,-0.214659 -0.351559,-0.430414 -0.523506,-0.649454l0 -0.0010952 -0.508173 -0.662596 -0.0010952 0 -0.491745 -0.675739c-0.16209,-0.227802 -0.320894,-0.455603 -0.477507,-0.686691l0 -0.0010952 -0.459984 -0.698738 0 -0.0010952 -0.444651 -0.710785 0 -0.0010952 -0.427128 -0.720642 0 -0.0010952c-0.13909,-0.242039 -0.275991,-0.486269 -0.409605,-0.732689l0 -0.0010952c-0.133614,-0.24642 -0.265039,-0.493935 -0.393177,-0.743641l0 -0.0010952c-0.128138,-0.249706 -0.252991,-0.500507 -0.374559,-0.753498l-0.0010952 -0.0010952c-0.121567,-0.252991 -0.242039,-0.508173 -0.357035,-0.76445l0 -0.0010952c-0.116091,-0.256277 -0.228897,-0.514744 -0.338417,-0.774307l-0.0010952 -0.0010952c-0.10952,-0.259563 -0.21685,-0.52022 -0.319799,-0.783068l0 -0.0010952c-0.104044,-0.262848 -0.204802,-0.527887 -0.302275,-0.792925l0 -0.0021904c-0.0974728,-0.266134 -0.19166,-0.533363 -0.282562,-0.801687l0 -0.0010952 -0.263943 -0.810448 0 -0.0021904c-0.0843304,-0.27161 -0.16647,-0.544315 -0.24423,-0.81921l0 -0.0021904c-0.0777592,-0.2738 -0.153328,-0.549791 -0.224516,-0.826876l0 -0.0021904c-0.071188,-0.277086 -0.140186,-0.555267 -0.204802,-0.834543l0 -0.0021904c-0.0646168,-0.279276 -0.125948,-0.560743 -0.183994,-0.843304l0 -0.0021904c-0.0580456,-0.282562 -0.112806,-0.565123 -0.163185,-0.849876l0 -0.0021904c-0.0514744,-0.284752 -0.098568,-0.570599 -0.142376,-0.857542l0 -0.0021904c-0.043808,-0.286943 -0.0843304,-0.57498 -0.121567,-0.864113l0 -0.0032856c-0.0372368,-0.289133 -0.0700928,-0.580456 -0.0996632,-0.870684l0 -0.0021904c-0.0295704,-0.291323 -0.0558552,-0.582647 -0.0777592,-0.877256l0 -0.0021904c-0.0229992,-0.293514 -0.0416176,-0.588123 -0.0569504,-0.883827l0 -0.0021904c-0.0142376,-0.295704 -0.0262848,-0.592503 -0.0339512,-0.889303l0 -0.0032856c-0.0065712,-0.297895 -0.010952,-0.595789 -0.010952,-0.893684l0 -0.0032856 0 -299.586c27.4731,-2.93623 55.0962,-4.01829 82.0261,1.35257 37.5533,7.45612 74.2973,29.9044 88.6696,65.3725 21.1352,52.24 -11.4744,112.509 1.15872,167.45 9.08031,39.563 39.2947,68.7337 65.9913,100.187z"/>
 </g>
</svg>
