<?xml version="1.0" encoding="UTF-8"?>
<!DOCTYPE svg PUBLIC "-//W3C//DTD SVG 1.1//EN" "http://www.w3.org/Graphics/SVG/1.1/DTD/svg11.dtd">
<!-- Creator: CorelDRAW -->
<svg xmlns="http://www.w3.org/2000/svg" xml:space="preserve" width="568px" height="1131px" style="shape-rendering:geometricPrecision; text-rendering:geometricPrecision; image-rendering:optimizeQuality; fill-rule:evenodd; clip-rule:evenodd"
viewBox="0 0 614.292 1222.81"
 xmlns:xlink="http://www.w3.org/1999/xlink">
 <defs>
  <style type="text/css">
   <![CDATA[
    .fil0 {fill: #7b7575;fill-rule:nonzero}
   ]]>
  </style>
 </defs>
 <g id="Layer_x0020_1">
  <metadata id="CorelCorpID_0Corel-Layer"/>
  <path class="fil0" d="M614.292 40.559l0 1141.69 0 0.00383235c0,0.348744 -0.00383235,0.69621 -0.0127745,1.0424l0 0.00383235c-0.00894215,0.347466 -0.0217166,0.692378 -0.0396009,1.03729l0 0.0025549c-0.0178843,0.344911 -0.0408784,0.688545 -0.0664274,1.0309l0 0.0025549c-0.025549,0.342356 -0.0562078,0.683435 -0.0906989,1.02324l0 0.0025549c-0.0344911,0.339802 -0.0728146,0.679603 -0.116248,1.01557l0 0.00383235c-0.0434333,0.337247 -0.0894215,0.673216 -0.141797,1.00791l0 0.0025549c-0.051098,0.334692 -0.106028,0.668106 -0.166068,1.00024l0 0.0025549c-0.0587627,0.332137 -0.122635,0.662996 -0.19034,0.991301l0 0.0025549c-0.0677048,0.329582 -0.139242,0.656609 -0.214612,0.983636l0 0.0025549c-0.0753695,0.32575 -0.155849,0.650222 -0.238883,0.973416l0 0.0025549c-0.0830342,0.323195 -0.171178,0.645112 -0.261877,0.964474l0 0.0025549c-0.0906989,0.319362 -0.18523,0.638725 -0.284871,0.955532l0 0.0025549c-0.0983636,0.316807 -0.199282,0.63106 -0.306588,0.945313l0 0.00127745c-0.106028,0.312975 -0.217166,0.624673 -0.330859,0.935093l0 0.0025549c-0.113693,0.31042 -0.232496,0.618286 -0.352576,0.924873l0 0.00127745c-0.121358,0.306588 -0.243993,0.610621 -0.373015,0.913376l0 0.00127745c-0.127745,0.302756 -0.2606,0.604234 -0.396009,0.903157l0 0.00127745 -0.416449 0.89166 0 0.00127745c-0.141797,0.295091 -0.289981,0.587627 -0.438165,0.878885l0 0.00127745c-0.149462,0.291258 -0.300201,0.579962 -0.457327,0.867388l0 0.00127745c-0.155849,0.287426 -0.316807,0.572297 -0.479044,0.854614l0 0.00127745c-0.162236,0.282316 -0.328305,0.562078 -0.498205,0.840562l0 0.00127745 -0.517367 0.829065 0 0.00127745 -0.537806 0.815013 0 0.00127745c-0.182675,0.269542 -0.366628,0.535251 -0.55569,0.800961l-0.574852 0.788186 -0.592737 0.772857 0 0.00127745c-0.20056,0.25549 -0.406229,0.507147 -0.611898,0.757528l0 0.00127745c-0.206947,0.25038 -0.416449,0.496928 -0.628505,0.742198l0 0.00127745c-0.212057,0.24527 -0.427946,0.487986 -0.646389,0.728146 -0.218444,0.24016 -0.439443,0.476489 -0.662996,0.711539l0 0.00127745c-0.223554,0.235051 -0.449662,0.466269 -0.679603,0.694932l0 0.00127745c-0.229941,0.228663 -0.461159,0.456049 -0.69621,0.679603l-0.712817 0.662996c-0.24016,0.218444 -0.482876,0.433055 -0.728146,0.646389l-0.743476 0.628505c-0.25038,0.206947 -0.503315,0.410061 -0.758805,0.610621l0 0.00127745c-0.25549,0.20056 -0.512257,0.398564 -0.772857,0.592737l-0.788186 0.574852c-0.265709,0.189063 -0.532696,0.374293 -0.802238,0.55569 -0.269542,0.182675 -0.541639,0.362796 -0.81629,0.537806 -0.274652,0.176288 -0.550581,0.348744 -0.829065,0.517367 -0.278484,0.169901 -0.559523,0.335969 -0.843117,0.498205 -0.283594,0.162236 -0.568465,0.323195 -0.855891,0.479044l-0.868666 0.458604c-0.291258,0.149462 -0.585072,0.295091 -0.880163,0.436888l-0.892937 0.416449 0 0.00127745c-0.298923,0.13541 -0.599124,0.265709 -0.903157,0.394732 -0.302756,0.127745 -0.608066,0.252935 -0.915931,0.374293 -0.306588,0.121358 -0.615731,0.238883 -0.926151,0.352576 -0.31042,0.113693 -0.623395,0.223554 -0.937648,0.329582 -0.314253,0.106028 -0.628505,0.209502 -0.94659,0.307865 -0.318085,0.0983636 -0.63617,0.194172 -0.958087,0.284871 -0.32064,0.0906989 -0.643835,0.178843 -0.967029,0.261877 -0.324472,0.0830342 -0.648944,0.163514 -0.975971,0.238883 -0.327027,0.0753695 -0.655332,0.146907 -0.986191,0.214612 -0.329582,0.0677048 -0.660441,0.131577 -0.993856,0.19034 -0.333414,0.0600401 -0.668106,0.11497 -1.0028,0.166068 -0.335969,0.051098 -0.673216,0.0983636 -1.01174,0.141797 -0.338524,0.0434333 -0.677048,0.0817568 -1.01813,0.116248 -0.341079,0.0344911 -0.682158,0.0638725 -1.02579,0.0906989 -0.343634,0.025549 -0.687268,0.0485431 -1.03346,0.0664274 -0.344911,0.0178843 -0.692378,0.0306588 -1.04112,0.0396009 -0.347466,0.00894215 -0.69621,0.0127745 -1.04623,0.0127745l-198.153 0c40.559,-84.7268 45.6062,-188.558 0.94659,-271.118 -29.8336,-55.1603 -80.3069,-100.137 -95.3143,-161.065 -13.6994,-55.6112 5.76896,-115.323 39.3876,-161.65 33.6633,-46.328 80.2621,-81.4336 127.129,-114.376 31.5913,-22.2174 64.3094,-44.4808 86.5715,-76.0261 22.2174,-31.5466 31.9069,-75.169 13.4337,-109.058 -30.8734,-56.6472 -111.271,-52.9528 -175.67,-49.0323 -95.4485,5.85966 -196.621,-6.84968 -274.134,-62.8658 -67.7329,-48.9416 -110.725,-137.721 -94.5019,-217.621l570.305 0c22.3975,0 40.559,18.1615 40.559,40.559z"/>
 </g>
</svg>
