<?xml version="1.0" encoding="UTF-8"?>
<!DOCTYPE svg PUBLIC "-//W3C//DTD SVG 1.1//EN" "http://www.w3.org/Graphics/SVG/1.1/DTD/svg11.dtd">
<!-- Creator: CorelDRAW -->
<svg xmlns="http://www.w3.org/2000/svg" xml:space="preserve" width="1165px" height="1131px" style="shape-rendering:geometricPrecision; text-rendering:geometricPrecision; image-rendering:optimizeQuality; fill-rule:evenodd; clip-rule:evenodd"
viewBox="0 0 1931.72 1874.26"
 xmlns:xlink="http://www.w3.org/1999/xlink">
 <defs>
  <style type="text/css">
   <![CDATA[
    .fil0 {fill: #777070;fill-rule:nonzero}
   ]]>
  </style>
 </defs>
 <g id="Layer_x0020_1">
  <metadata id="CorelCorpID_0Corel-Layer"/>
  <path class="fil0" d="M1862.95 1874.26l-1226.15 0c68.7709,-129.865 77.3352,-289.011 1.60948,-415.555 -50.583,-84.5466 -136.158,-153.484 -161.606,-246.871 -23.2297,-85.2377 9.78218,-176.761 66.7816,-247.768 57.0758,-71.0089 136.081,-124.817 215.553,-175.31 53.5592,-34.0536 109.033,-68.1777 146.782,-116.529 37.672,-48.3529 54.0977,-115.215 22.7735,-167.159 -39.1718,-64.9783 -125.377,-78.1576 -212.036,-78.1576 -29.1429,0 -58.3328,1.492 -85.8114,3.00358 -23.2924,1.29228 -46.8119,1.99716 -70.3589,1.99716 -140.054,0 -281.933,-24.8529 -394.448,-98.3544 -114.835,-75.015 -187.735,-211.09 -160.223,-333.558l1857.14 0c37.3822,0 67.8056,26.9734 68.7474,60.563l0.001958 0c0.013706,0.532577 0.01958,1.06711 0.01958,1.6036l0 1749.92c0,0.536493 -0.00587401,1.07103 -0.01958,1.6036l-0.001958 0c-0.941799,33.5895 -31.3652,60.5689 -68.7474,60.5689z"/>
 </g>
</svg>
