<?xml version="1.0" encoding="UTF-8"?>
<!DOCTYPE svg PUBLIC "-//W3C//DTD SVG 1.1//EN" "http://www.w3.org/Graphics/SVG/1.1/DTD/svg11.dtd">
<!-- Creator: CorelDRAW -->
<svg xmlns="http://www.w3.org/2000/svg" xml:space="preserve" width="508px" height="586px" style="shape-rendering:geometricPrecision; text-rendering:geometricPrecision; image-rendering:optimizeQuality; fill-rule:evenodd; clip-rule:evenodd"
viewBox="0 0 132.613 153.132"
 xmlns:xlink="http://www.w3.org/1999/xlink">
 <defs>
  <style type="text/css">
   <![CDATA[
    .fil0 {fill:#F2F2F1;fill-rule:nonzero}
   ]]>
  </style>
 </defs>
 <g id="Layer_x0020_1">
  <metadata id="CorelCorpID_0Corel-Layer"/>
  <path class="fil0" d="M131.206 153.132l-120.436 0c-5.94779,0 -10.7708,-4.82335 -10.7708,-10.7714l0 -135.036c0.562225,-0.0839326 1.12538,-0.154596 1.67557,-0.227729 13.1163,-1.75888 26.232,-3.51807 39.3477,-5.27726 6.78373,-0.912458 13.669,-1.82029 20.499,-1.82029 3.91768,0 7.81653,0.298393 11.6679,1.06705 10.5789,2.10634 20.9304,8.42442 24.9755,18.4164 5.96014,14.72 -3.23079,31.7009 0.335422,47.1871 3.49431,15.2088 18.0693,24.9743 26.112,38.3411 6.79699,11.3093 8.71171,25.0113 7.77888,38.1637 -0.239455,3.33755 -0.646466,6.66523 -1.18555,9.95712z"/>
 </g>
</svg>
