<?xml version="1.0" encoding="UTF-8"?>
<!DOCTYPE svg PUBLIC "-//W3C//DTD SVG 1.1//EN" "http://www.w3.org/Graphics/SVG/1.1/DTD/svg11.dtd">
<!-- Creator: CorelDRAW -->
<svg xmlns="http://www.w3.org/2000/svg" xml:space="preserve" width="257px" height="363px" style="shape-rendering:geometricPrecision; text-rendering:geometricPrecision; image-rendering:optimizeQuality; fill-rule:evenodd; clip-rule:evenodd"
viewBox="0 0 33.9026 48.0078"
 xmlns:xlink="http://www.w3.org/1999/xlink">
 <defs>
  <style type="text/css">
   <![CDATA[
    .fil0 {fill:#E3E3E1;fill-rule:nonzero}
   ]]>
  </style>
 </defs>
 <g id="Layer_x0020_1">
  <metadata id="CorelCorpID_0Corel-Layer"/>
  <path class="fil0" d="M33.9026 48.0078l-28.9461 0c-0.0427742,0 -0.0853922,-0.00046833 -0.127854,-0.0015611 -0.0426181,-0.00109277 -0.0847678,-0.00265387 -0.127074,-0.00483941l-0.00015611 0c-0.0421497,-0.00218554 -0.0841433,-0.00499552 -0.126137,-0.00811773 -0.0419936,-0.0031222 -0.0838311,-0.00686884 -0.125513,-0.0110838 -0.0416814,-0.00421497 -0.0832067,-0.00905439 -0.12442,-0.014206 -0.0413692,-0.00530774 -0.0824261,-0.0110838 -0.123483,-0.0173282l-0.00015611 0c-0.0409008,-0.0062444 -0.0818017,-0.0129571 -0.12239,-0.0202943 -0.0407447,-0.00733717 -0.0813334,-0.0149866 -0.12161,-0.0232604 -0.0402764,-0.00827384 -0.0803967,-0.017016 -0.120361,-0.0262265 -0.0399642,-0.0092105 -0.0796162,-0.0190454 -0.119268,-0.0291926l-0.00015611 0c-0.0394959,-0.0101472 -0.0789917,-0.0207626 -0.118175,-0.0320026 -0.0391836,-0.0110838 -0.0782112,-0.0227921 -0.116926,-0.0348126 -0.0388714,-0.0120205 -0.0774306,-0.0246654 -0.115834,-0.0376225 -0.0384031,-0.0129571 -0.0763378,-0.0263826 -0.114429,-0.0402764 -0.0379348,-0.0138938 -0.0755573,-0.0282559 -0.11318,-0.0430864l-0.00015611 0c-0.0374664,-0.0148305 -0.0747767,-0.0299731 -0.111775,-0.0457403 -0.0371542,-0.015611 -0.0739962,-0.0316904 -0.110526,-0.048238l0 -0.00015611 -0.108965 -0.0508919 -0.00015611 0c-0.0360614,-0.0173282 -0.0719668,-0.0351248 -0.107404,-0.0533897l-0.00015611 0c-0.0355931,-0.0182649 -0.070874,-0.0369981 -0.105999,-0.0560435l-0.00015611 0c-0.0351248,-0.0190454 -0.0699373,-0.0387153 -0.104438,-0.0585413l-0.103033 -0.0608829c-0.034032,-0.0207626 -0.0679079,-0.0416814 -0.101315,-0.0632246l-0.00015611 0 -0.0995982 -0.0657224c-0.0329392,-0.0223237 -0.0655662,-0.0448036 -0.0980371,-0.0679079l-0.0963199 -0.0702495 -0.0944466 -0.0724351 -0.00015611 -0.00015611c-0.031222,-0.0245093 -0.0619757,-0.0493308 -0.0925733,-0.0746206l-0.00015611 0c-0.0305976,-0.0252898 -0.0608829,-0.0508919 -0.0907,-0.0768062l-0.00015611 0c-0.0299731,-0.0259143 -0.0596341,-0.052453 -0.0888266,-0.0789917l-0.00015611 0c-0.0293487,-0.0266948 -0.0582291,-0.0537019 -0.0869533,-0.0810211 -0.0287243,-0.0274754 -0.0569802,-0.0549508 -0.08508,-0.0830506l-0.00015611 -0.00015611c-0.0279437,-0.0279437 -0.0555752,-0.0563557 -0.0828945,-0.0849239l-0.00015611 -0.00015611c-0.0273193,-0.0287243 -0.0543263,-0.0576046 -0.0810211,-0.0869533 -0.0266948,-0.0293487 -0.0527652,-0.0590096 -0.0788356,-0.0889828l-0.00015611 -0.00015611c-0.0259143,-0.0299731 -0.0516724,-0.0602585 -0.0768062,-0.0907l0 -0.00015611c-0.0252898,-0.0305976 -0.0501113,-0.0613513 -0.0746206,-0.0925733l0 -0.00015611 -0.0724351 -0.0944466 -0.00015611 0 -0.0700934 -0.0963199c-0.0231043,-0.0324709 -0.0457403,-0.0649418 -0.068064,-0.097881l0 -0.00015611 -0.0655662 -0.0995982 0 -0.00015611 -0.0633807 -0.101315 0 -0.00015611 -0.0608829 -0.10272 0 -0.00015611c-0.019826,-0.0345003 -0.0393397,-0.0693129 -0.0583852,-0.104438l0 -0.00015611c-0.0190454,-0.0351248 -0.0377786,-0.0704057 -0.0560435,-0.105999l0 -0.00015611c-0.0182649,-0.0355931 -0.0360614,-0.0713423 -0.0533897,-0.107404l-0.00015611 -0.00015611c-0.0173282,-0.0360614 -0.0345003,-0.0724351 -0.0508919,-0.108965l0 -0.00015611c-0.0165477,-0.0365298 -0.032627,-0.0733717 -0.048238,-0.11037l-0.00015611 -0.00015611c-0.015611,-0.0369981 -0.0309098,-0.0741523 -0.0455841,-0.111619l0 -0.00015611c-0.0148305,-0.0374664 -0.0291926,-0.0752451 -0.0430864,-0.113024l0 -0.00031222c-0.0138938,-0.0379348 -0.0273193,-0.0760256 -0.0402764,-0.114273l0 -0.00015611 -0.0376225 -0.115521 0 -0.00031222c-0.0120205,-0.0387153 -0.0237287,-0.0775867 -0.0348126,-0.11677l0 -0.00031222c-0.0110838,-0.0390275 -0.0218554,-0.0783673 -0.0320026,-0.117863l0 -0.00031222c-0.0101472,-0.0394959 -0.0199821,-0.0791478 -0.0291926,-0.118956l0 -0.00031222c-0.0092105,-0.0398081 -0.0179527,-0.0799284 -0.0262265,-0.120205l0 -0.00031222c-0.00827384,-0.0402764 -0.0160793,-0.0805528 -0.0232604,-0.121141l0 -0.00031222c-0.00733717,-0.0405886 -0.0140499,-0.0813334 -0.0202943,-0.122234l0 -0.00031222c-0.0062444,-0.0409008 -0.0120205,-0.0819578 -0.0173282,-0.123171l0 -0.00046833c-0.00530774,-0.0412131 -0.00999105,-0.0827384 -0.014206,-0.124108l0 -0.00031222c-0.00421497,-0.0415253 -0.00796162,-0.0830506 -0.0110838,-0.125044l0 -0.00031222c-0.00327831,-0.0418375 -0.00593218,-0.0838311 -0.00811773,-0.125981l0 -0.00031222c-0.00202943,-0.0421497 -0.00374664,-0.0844556 -0.00483941,-0.126761l0 -0.00046833c-0.000936661,-0.0424619 -0.0015611,-0.0849239 -0.0015611,-0.127386l0 -0.00046833 0 -42.703c3.91602,-0.418531 7.85343,-0.572768 11.692,0.192796 5.35286,1.0628 10.5904,4.26259 12.639,9.31821 3.01261,7.4463 -1.63557,16.037 0.165164,23.8683 1.29431,5.63932 5.60107,9.79731 9.40641,14.2806z"/>
 </g>
</svg>
